<svg width="75" height="60" viewBox="0 0 75 60" fill="none" xmlns="http://www.w3.org/2000/svg">
<path fill-rule="evenodd" clip-rule="evenodd" d="M6 8.00434C6 6.89977 6.89543 6.00434 8 6.00434H27.7047C27.7047 6.00434 31.4925 5.88878 33.5625 8.85265C35.6325 11.8165 36.1288 13.7003 37.432 15.2236C38.7786 16.7975 41.1949 17.2543 43.5961 17.2543C45.5106 17.2543 57.662 17.2543 62.5084 17.2543C63.613 17.2543 64.5 18.1498 64.5 19.2543V46.7543C64.5 47.8589 63.6046 48.7543 62.5 48.7543H8C6.89543 48.7543 6 47.8589 6 46.7543L6 8.00434Z" stroke="#555555" stroke-width="2"/>
<rect x="15" y="19.5" width="18" height="5.625" rx="1" fill="#DDDDDD"/>
<rect x="15" y="31.5" width="40.5" height="3" rx="1" fill="#DDDDDD"/>
<path d="M34.5 10.5H62.2778C63.5051 10.5 64.5 11.5553 64.5 12.8571V27" stroke="#555555" stroke-width="2"/>
<path fill-rule="evenodd" clip-rule="evenodd" d="M51.8272 39.8128C50.6429 32.4265 55.0869 30 57.7428 30L57.7451 57C50.6566 57 44.0034 56.1525 44.0691 55.0714C44.2861 51.1226 44.9094 49.8476 46.031 49.1679C46.675 48.7776 48.4215 48.14 50.0568 47.5431C51.2693 47.1004 52.4206 46.6801 53.0161 46.3995C54.4147 45.7403 54.406 44.7517 54.105 44.0799C53.8536 43.5643 53.4416 43.0297 53.0968 42.5823C52.9337 42.3707 52.7857 42.1787 52.6768 42.0173C52.2886 41.5022 51.9835 40.7876 51.8272 39.8128ZM57.7451 57L57.7473 30C60.4032 30 64.8472 32.4265 63.6629 39.8128C63.5066 40.7876 63.2016 41.5022 62.8134 42.0173C62.7044 42.1787 62.5564 42.3707 62.3934 42.5823C62.0486 43.0297 61.6366 43.5643 61.3852 44.0799C61.0841 44.7517 61.0754 45.7403 62.4741 46.3995C63.0696 46.6801 64.2209 47.1004 65.4333 47.5431C67.0686 48.14 68.8151 48.7776 69.4592 49.1679C70.5808 49.8476 71.2041 51.1226 71.4211 55.0714C71.4867 56.1525 64.8335 57 57.7451 57Z" fill="#FF7826"/>
</svg>
