<svg width="75" height="60" viewBox="0 0 75 60" fill="none" xmlns="http://www.w3.org/2000/svg">
<path d="M53.1732 26.307H40.4592C39.9748 26.307 39.4905 25.9437 39.4905 25.3383C39.4905 24.854 39.8537 24.3696 40.4592 24.3696H53.0521C53.5365 24.3696 53.8997 24.7329 53.8997 25.3383C54.0208 25.8227 53.6575 26.307 53.1732 26.307Z" fill="#DDDDDD"/>
<path d="M53.1732 32.3612H40.4592C39.9748 32.3612 39.4905 31.9979 39.4905 31.3925C39.4905 30.9082 39.8537 30.4238 40.4592 30.4238H53.0521C53.5365 30.4238 53.8997 30.7871 53.8997 31.3925C54.0208 31.9979 53.6575 32.3612 53.1732 32.3612Z" fill="#DDDDDD"/>
<path d="M31.0145 34.7831H24.7181C22.9018 34.7831 21.4487 33.3301 21.4487 31.5138V25.2173C21.4487 23.401 22.9018 21.948 24.7181 21.948H31.0145C32.8308 21.948 34.2838 23.401 34.2838 25.2173V31.5138C34.2838 33.3301 32.7097 34.7831 31.0145 34.7831ZM24.7181 23.7643C23.8704 23.7643 23.265 24.4908 23.265 25.2173V31.5138C23.265 32.3614 23.8704 32.9668 24.7181 32.9668H31.0145C31.8621 32.9668 32.4676 32.3614 32.4676 31.5138V25.2173C32.4676 24.3697 31.8621 23.7643 31.0145 23.7643H24.7181Z" fill="#DDDDDD"/>
<path d="M53.1732 45.0753H40.4592C39.9748 45.0753 39.4905 44.7121 39.4905 44.1066C39.4905 43.5012 39.8537 43.1379 40.4592 43.1379H53.0521C53.5365 43.1379 53.8997 43.5012 53.8997 44.1066C53.8997 44.7121 53.6575 45.0753 53.1732 45.0753Z" fill="#DDDDDD"/>
<path d="M53.1732 51.1295H40.4592C39.9748 51.1295 39.4905 50.7663 39.4905 50.1608C39.4905 49.6765 39.8537 49.1921 40.4592 49.1921H53.0521C53.5365 49.1921 53.8997 49.5554 53.8997 50.1608C54.0208 50.7663 53.6575 51.1295 53.1732 51.1295Z" fill="#DDDDDD"/>
<path d="M31.0145 53.5514H24.7181C22.9018 53.5514 21.4487 52.0984 21.4487 50.2821V43.9856C21.4487 42.1693 22.9018 40.7163 24.7181 40.7163H31.0145C32.8308 40.7163 34.2838 42.1693 34.2838 43.9856V50.2821C34.2838 52.0984 32.7097 53.5514 31.0145 53.5514ZM24.7181 42.5326C23.8704 42.5326 23.265 43.138 23.265 43.9856V50.2821C23.265 51.1297 23.8704 51.7351 24.7181 51.7351H31.0145C31.8621 51.7351 32.4676 51.1297 32.4676 50.2821V43.9856C32.4676 43.138 31.8621 42.5326 31.0145 42.5326H24.7181Z" fill="#DDDDDD"/>
<path d="M27.8664 48.2233C27.7453 48.2233 27.7453 48.2233 27.8664 48.2233C27.5031 48.2233 27.261 47.9812 27.0188 47.739L23.0229 40.2317C22.7808 39.7473 22.9019 39.263 23.3862 39.0208C23.8705 38.7786 24.3549 38.8997 24.5971 39.3841L27.8664 45.5595L34.5261 36.1147C34.7683 35.7515 35.3737 35.6304 35.737 35.8726C36.1002 36.1147 36.2213 36.7202 35.9791 37.0834L28.4718 47.739C28.3507 48.1023 28.1086 48.2233 27.8664 48.2233Z" fill="#1BBF6D"/>
<path d="M43.002 8.02299C42.5176 8.02299 42.0333 7.65973 42.0333 7.0543C42.0333 4.75366 40.0959 2.81629 37.7953 2.81629C35.4946 2.81629 33.5573 4.75366 33.5573 7.0543C33.5573 7.53864 33.194 8.02299 32.5886 8.02299C32.1042 8.02299 31.741 7.53864 31.741 7.0543C31.741 3.66389 34.4049 1 37.7953 1C41.1857 1 43.8496 3.66389 43.8496 7.0543C43.8496 7.53864 43.4863 8.02299 43.002 8.02299Z" fill="#555555"/>
<path d="M57.7747 59.0001H17.8163C16.8476 59.0001 16 58.1525 16 57.1838V12.382C16 11.4133 16.8476 10.5657 17.8163 10.5657H57.7747C58.7434 10.5657 59.591 11.4133 59.591 12.382V57.1838C59.591 58.2735 58.7434 59.0001 57.7747 59.0001Z" stroke="#555555" stroke-width="2" stroke-miterlimit="10"/>
<path d="M51.4781 14.5618H24.1127C23.144 14.5618 22.2964 13.7142 22.2964 12.7455V8.99183C22.2964 8.02314 23.144 7.17554 24.1127 7.17554H51.4781C52.4468 7.17554 53.2944 8.02314 53.2944 8.99183V12.7455C53.2944 13.8353 52.4468 14.5618 51.4781 14.5618Z" fill="white" stroke="#555555" stroke-width="2" stroke-miterlimit="10"/>
<rect x="46.5" y="30" width="25.5" height="25.5" rx="4" fill="#1BBF6D"/>
<rect x="52.5" y="40.5" width="13.5" height="4.5" rx="1" fill="white"/>
<rect x="57" y="36" width="4.5" height="13.5" rx="1" fill="white"/>
</svg>
