<svg width="14" height="15" viewBox="0 0 14 15" fill="none" xmlns="http://www.w3.org/2000/svg">
    <g clip-path="url(#lw2yv5on9a)">
        <path d="M4.083 8.667a.583.583 0 0 1-.583.583h-.583a.583.583 0 1 1 0-1.167H3.5a.583.583 0 0 1 .583.584zm2.334-.584h-.584a.583.583 0 0 0 0 1.167h.584a.583.583 0 0 0 0-1.167zM3.5 10.417h-.583a.583.583 0 1 0 0 1.166H3.5a.583.583 0 1 0 0-1.166zm2.917 0h-.584a.583.583 0 1 0 0 1.166h.584a.583.583 0 1 0 0-1.166zm-2.917-7h-.583a.583.583 0 1 0 0 1.166H3.5a.583.583 0 0 0 0-1.166zm2.917 0h-.584a.583.583 0 1 0 0 1.166h.584a.583.583 0 0 0 0-1.166zM3.5 5.75h-.583a.583.583 0 1 0 0 1.167H3.5a.583.583 0 0 0 0-1.167zm2.917 0h-.584a.583.583 0 0 0 0 1.167h.584a.583.583 0 0 0 0-1.167zM14 6.333v5.25a2.92 2.92 0 0 1-2.917 2.917H2.917A2.92 2.92 0 0 1 0 11.583V3.417A2.92 2.92 0 0 1 2.917.5h3.5a2.92 2.92 0 0 1 2.916 2.917h1.75A2.92 2.92 0 0 1 14 6.333zm-11.083 7h5.25V3.417a1.75 1.75 0 0 0-1.75-1.75h-3.5a1.75 1.75 0 0 0-1.75 1.75v8.166a1.75 1.75 0 0 0 1.75 1.75zm9.916-7a1.75 1.75 0 0 0-1.75-1.75h-1.75v8.75h1.75a1.75 1.75 0 0 0 1.75-1.75v-5.25zm-1.75 1.75a.583.583 0 1 0 0 1.167.583.583 0 0 0 0-1.167zm0 2.334a.583.583 0 1 0 0 1.166.583.583 0 0 0 0-1.166zm0-4.667a.583.583 0 1 0 0 1.166.583.583 0 0 0 0-1.166z" fill="#fff"/>
    </g>
    <defs>
        <clipPath id="lw2yv5on9a">
            <path fill="#fff" transform="translate(0 .5)" d="M0 0h14v14H0z"/>
        </clipPath>
    </defs>
</svg>
