<svg width="14" height="14" viewBox="0 0 14 14" fill="none" xmlns="http://www.w3.org/2000/svg">
<path d="M7.00008 0C5.72904 2.88046e-05 4.48664 0.377542 3.43045 1.08466C2.37426 1.79178 1.55187 2.79664 1.06758 3.97181C0.583293 5.14698 0.458924 6.4395 0.710249 7.68544C0.961574 8.93139 1.57727 10.0746 2.47925 10.9702L4.77933 13.0941C5.37053 13.6728 6.16429 13.9978 6.99159 14C7.81888 14.0022 8.61434 13.6813 9.20858 13.1058L11.5372 10.9538C12.4346 10.0564 13.0457 8.91313 13.2933 7.66844C13.5408 6.42376 13.4138 5.13361 12.9281 3.96114C12.4425 2.78868 11.6201 1.78654 10.5649 1.08147C9.50971 0.376393 8.26915 4.02844e-05 7.00008 0V0ZM10.7287 10.1133L8.40475 12.2605C8.02262 12.6205 7.51688 12.8202 6.99186 12.8182C6.46685 12.8163 5.96261 12.6129 5.58316 12.25L3.28775 10.129C2.67726 9.51851 2.22676 8.76688 1.97614 7.94069C1.72552 7.1145 1.68252 6.23925 1.85096 5.39248C2.0194 4.5457 2.39407 3.75354 2.94178 3.08615C3.48949 2.41876 4.19334 1.89674 4.99099 1.56635C5.78863 1.23595 6.65545 1.10737 7.51466 1.19199C8.37386 1.27661 9.19894 1.57183 9.9168 2.05148C10.6347 2.53114 11.2232 3.18043 11.6301 3.94185C12.0371 4.70327 12.2501 5.5533 12.2501 6.41667C12.2526 7.10269 12.1196 7.78244 11.8585 8.41684C11.5974 9.05124 11.2134 9.62776 10.7287 10.1133ZM9.74758 4.47008L7.99758 3.25617C7.70439 3.05357 7.35646 2.94505 7.00008 2.94505C6.6437 2.94505 6.29577 3.05357 6.00258 3.25617L4.25258 4.47008C4.02036 4.63118 3.83061 4.84613 3.69957 5.09654C3.56852 5.34695 3.50007 5.62537 3.50008 5.908V7.875C3.50008 8.26178 3.65373 8.63271 3.92722 8.9062C4.20071 9.17969 4.57164 9.33333 4.95841 9.33333H9.04175C9.42852 9.33333 9.79945 9.17969 10.0729 8.9062C10.3464 8.63271 10.5001 8.26178 10.5001 7.875V5.908C10.5001 5.62537 10.4316 5.34695 10.3006 5.09654C10.1695 4.84613 9.9798 4.63118 9.74758 4.47008ZM9.33341 7.875C9.33341 7.95236 9.30269 8.02654 9.24799 8.08124C9.19329 8.13594 9.1191 8.16667 9.04175 8.16667H8.16675V7C8.16675 6.84529 8.10529 6.69692 7.99589 6.58752C7.8865 6.47813 7.73812 6.41667 7.58341 6.41667H6.41675C6.26204 6.41667 6.11367 6.47813 6.00427 6.58752C5.89487 6.69692 5.83341 6.84529 5.83341 7V8.16667H4.95841C4.88106 8.16667 4.80687 8.13594 4.75217 8.08124C4.69748 8.02654 4.66675 7.95236 4.66675 7.875V5.908C4.66671 5.81376 4.68951 5.72091 4.7332 5.63741C4.77688 5.5539 4.84015 5.48222 4.91758 5.4285L6.66758 4.21458C6.76541 4.14731 6.88135 4.1113 7.00008 4.1113C7.11881 4.1113 7.23475 4.14731 7.33258 4.21458L9.08258 5.4285C9.16001 5.48222 9.22328 5.5539 9.26696 5.63741C9.31065 5.72091 9.33345 5.81376 9.33341 5.908V7.875Z" fill="white"/>
</svg>
