<svg width="14" height="14" viewBox="0 0 14 14" fill="none" xmlns="http://www.w3.org/2000/svg">
<path d="M12.3212 7.58278C12.7663 7.58232 13.193 7.4053 13.5078 7.09055C13.8225 6.77581 13.9995 6.34906 14 5.90395C13.9994 5.43344 13.8878 4.96972 13.6743 4.55042C13.4609 4.13111 13.1516 3.76805 12.7715 3.4907L8.75525 0.570534C8.24574 0.198218 7.63104 -0.00244141 7 -0.00244141C6.36896 -0.00244141 5.75426 0.198218 5.24475 0.570534L1.2285 3.4907C0.84843 3.76805 0.539115 4.13111 0.325663 4.55042C0.112211 4.96972 0.000637773 5.43344 0 5.90395C0.000463257 6.34906 0.177489 6.77581 0.492231 7.09055C0.806972 7.4053 1.23372 7.58232 1.67883 7.58278H6.41667V13.4161C6.41667 13.5708 6.47812 13.7192 6.58752 13.8286C6.69692 13.938 6.84529 13.9995 7 13.9995C7.15471 13.9995 7.30308 13.938 7.41248 13.8286C7.52187 13.7192 7.58333 13.5708 7.58333 13.4161V7.58278H12.3212ZM9.04167 4.70987C9.2324 4.99653 9.3339 5.3333 9.33333 5.67762V6.41612H7.58333V2.51537L9.04167 4.70987ZM12.0855 4.43278C12.3171 4.60187 12.5056 4.82323 12.6355 5.07886C12.7654 5.33449 12.8332 5.61719 12.8333 5.90395C12.8332 6.03974 12.7792 6.16992 12.6832 6.26594C12.5871 6.36195 12.457 6.41596 12.3212 6.41612H10.5V5.67762C10.5005 5.10348 10.3311 4.54204 10.0129 4.06412L8.55458 1.86495L12.0855 4.43278ZM1.16667 5.90395C1.16677 5.61719 1.23456 5.33449 1.3645 5.07886C1.49445 4.82323 1.68289 4.60187 1.9145 4.43278L5.44775 1.86612L3.98942 4.06528C3.67067 4.54262 3.50037 5.10364 3.5 5.67762V6.41612H1.67883C1.54305 6.41596 1.41286 6.36195 1.31685 6.26594C1.22083 6.16992 1.16682 6.03974 1.16667 5.90395ZM4.66667 6.41612V5.67762C4.6661 5.3333 4.7676 4.99653 4.95833 4.70987L6.41667 2.51537V6.41612H4.66667Z" fill="white"/>
</svg>
