<svg width="40" height="40" viewBox="0 0 40 40" fill="none" xmlns="http://www.w3.org/2000/svg">
    <path d="M32.77 13.294V5.972A.957.957 0 0 0 31.794 5h-2.082a.957.957 0 0 0-.976.972v.486l-.781.648a15.039 15.039 0 0 1-9.598 3.466H8.889C5.635 10.572 3 13.197 3 16.436v3.37a5.85 5.85 0 0 0 4.848 5.766v8.456c0 .55.423.972.976.972h2.408a.957.957 0 0 0 .976-.972V25.67h6.149c3.514 0 6.898 1.23 9.598 3.466l.78.648v.486c0 .55.424.972.977.972h2.082a.957.957 0 0 0 .976-.972v-7.354A4.868 4.868 0 0 0 37 18.089c0-2.43-1.822-4.471-4.23-4.795zM35.7 18.12c0 1.717-1.27 3.207-2.929 3.499v-7.03a3.586 3.586 0 0 1 2.929 3.53zM10.906 25.67v8.034H9.15V25.67h1.757zM8.89 11.867h6.15v12.506h-6.15c-2.538 0-4.588-2.074-4.588-4.6v-3.338a4.572 4.572 0 0 1 4.588-4.568zm7.45 0h2.018a16.42 16.42 0 0 0 10.379-3.725v19.924a16.42 16.42 0 0 0-10.38-3.726H16.34V11.868zm13.698 18.046V6.296h1.432v23.618h-1.432z" fill="#666"/>
</svg>
