<svg width="50" height="40" viewBox="0 0 50 40" fill="none" xmlns="http://www.w3.org/2000/svg">
    <rect x="6" y="5" width="37" height="27" rx="1" stroke="#555" stroke-width="2"/>
    <rect x="13" y="17" width="10" height="2" rx="1" fill="#DDD"/>
    <rect x="13" y="22" width="12.25" height="2" rx="1" fill="#DDD"/>
    <rect x="13" y="12" width="16" height="2" rx="1" fill="#DDD"/>
    <path d="M25 33v3M31 37H19" stroke="#555" stroke-width="2" stroke-linecap="round" stroke-linejoin="round"/>
    <path d="M46.727 29.727a1.5 1.5 0 0 0 .3 1.655l.055.054a1.816 1.816 0 0 1 0 2.573 1.818 1.818 0 0 1-2.573 0l-.054-.054a1.5 1.5 0 0 0-1.655-.3 1.5 1.5 0 0 0-.91 1.372v.155a1.818 1.818 0 1 1-3.636 0V35.1a1.5 1.5 0 0 0-.981-1.373 1.5 1.5 0 0 0-1.655.3l-.054.055a1.816 1.816 0 0 1-2.573 0 1.818 1.818 0 0 1 0-2.573l.054-.055a1.5 1.5 0 0 0 .3-1.654 1.5 1.5 0 0 0-1.372-.91h-.155a1.818 1.818 0 1 1 0-3.636h.082a1.5 1.5 0 0 0 1.373-.981 1.5 1.5 0 0 0-.3-1.655l-.055-.054a1.816 1.816 0 0 1 0-2.573 1.818 1.818 0 0 1 2.573 0l.054.055a1.5 1.5 0 0 0 1.655.3h.073a1.5 1.5 0 0 0 .909-1.373v-.155a1.818 1.818 0 0 1 3.636 0v.082a1.499 1.499 0 0 0 .91 1.373 1.5 1.5 0 0 0 1.654-.3l.054-.055a1.816 1.816 0 0 1 2.573 0 1.818 1.818 0 0 1 0 2.573l-.054.055a1.5 1.5 0 0 0-.3 1.654v.073a1.5 1.5 0 0 0 1.372.909h.155a1.818 1.818 0 0 1 0 3.636H48.1a1.499 1.499 0 0 0-1.373.91z" fill="#BE7DFF"/>
    <path d="M40 29.727a2.727 2.727 0 1 0 0-5.454 2.727 2.727 0 0 0 0 5.454z" fill="#fff"/>
</svg>
