<svg width="46" height="33" viewBox="0 0 46 33" fill="none" xmlns="http://www.w3.org/2000/svg">
    <path d="M1 25h38v3a4 4 0 0 1-4 4H5a4 4 0 0 1-4-4v-3z" fill="#48D6E8" stroke="#000" stroke-width="2"/>
    <path d="M8 5h24a4 4 0 0 1 4 4v16H4V9a4 4 0 0 1 4-4z" fill="#fff" stroke="#000" stroke-width="2"/>
    <path d="M10 11h12v3H10v-3zM10 17h17v3H10v-3z" fill="#D5D5D5"/>
    <circle cx="36" cy="10" r="10" fill="#FFCF22"/>
    <circle cx="32.5" cy="8.5" r="1.5" fill="#000"/>
    <path d="M39 12a3 3 0 1 1-6 0h6z" fill="#000"/>
    <circle cx="39.5" cy="8.5" r="1.5" fill="#000"/>
</svg>
