<svg width="50" height="40" viewBox="0 0 50 40" fill="none" xmlns="http://www.w3.org/2000/svg">
    <path d="M45 8.5v24c0 .828-.667 1.5-1.49 1.5H7.49C6.669 34 6 33.328 6 32.5v-24" stroke="#555" stroke-width="2"/>
    <rect x="3" y="5" width="45" height="4" rx="2" stroke="#555" stroke-width="2"/>
    <path d="m18 26 4.5-4.5 4 4L35 17" stroke="#DDD" stroke-width="3" stroke-linecap="round" stroke-linejoin="round"/>
    <path fill-rule="evenodd" clip-rule="evenodd" d="M9.673 25.269C8.807 19.797 12.056 18 13.998 18L14 38c-5.183 0-10.048-.628-10-1.429.159-2.925.615-3.87 1.435-4.372.47-.29 1.748-.762 2.943-1.204.887-.328 1.729-.64 2.164-.847 1.023-.488 1.017-1.22.796-1.718-.183-.382-.485-.778-.737-1.11a8.994 8.994 0 0 1-.307-.418c-.284-.382-.507-.911-.621-1.633zM14 38l.002-20c1.942 0 5.191 1.797 4.325 7.269-.114.722-.337 1.251-.621 1.633-.08.12-.188.261-.307.418-.252.332-.554.728-.737 1.11-.22.497-.227 1.23.796 1.718.435.208 1.277.519 2.164.847 1.195.442 2.472.914 2.943 1.204.82.503 1.276 1.447 1.435 4.372.048.801-4.817 1.429-10 1.429z" fill="#4BB6BB"/>
</svg>
