<svg width="14" height="14" viewBox="0 0 14 14" fill="none" xmlns="http://www.w3.org/2000/svg">
<path d="M12.25 5.83334H10.3209L7.84351 0.911752C7.69292 0.635773 7.47076 0.405459 7.20038 0.245021C6.93001 0.0845818 6.6214 -5.67278e-05 6.30701 1.46318e-06H6.20084C5.96277 -0.000327313 5.72789 0.0547554 5.51478 0.160891C5.30167 0.267026 5.11619 0.421302 4.97301 0.611509C4.82983 0.801717 4.73289 1.02264 4.68984 1.25679C4.6468 1.49094 4.65884 1.73189 4.72501 1.96058L5.84968 5.83334H4.45901C4.22903 5.83394 4.00122 5.78893 3.78875 5.70092C3.57628 5.61291 3.38337 5.48364 3.22118 5.32059L2.39459 4.49167C2.18332 4.28061 1.91031 4.14235 1.61515 4.09693C1.31999 4.05151 1.01804 4.10131 0.753094 4.23909C0.589153 4.32367 0.444243 4.44088 0.327275 4.58353C0.210306 4.72618 0.12375 4.89125 0.0729269 5.06859C0.0167179 5.25885 -0.000475184 5.4585 0.0223794 5.65558C0.0452341 5.85265 0.107665 6.04307 0.205927 6.21542L1.14743 7.86334C1.40302 8.30935 1.77169 8.68009 2.21627 8.93817C2.66085 9.19626 3.16562 9.33256 3.67968 9.33333H5.84443L4.87143 11.9274C4.78432 12.1594 4.75475 12.4091 4.78523 12.6551C4.81572 12.901 4.90536 13.1359 5.04647 13.3396C5.18759 13.5434 5.37598 13.7099 5.59551 13.8249C5.81504 13.9399 6.05918 14 6.30701 14C6.61597 14.0016 6.91975 13.9207 7.18691 13.7655C7.45408 13.6103 7.67493 13.3866 7.82659 13.1174L10.1873 9.33333H12.25C12.7141 9.33333 13.1593 9.14896 13.4874 8.82077C13.8156 8.49258 14 8.04746 14 7.58334C14 7.11921 13.8156 6.67409 13.4874 6.3459C13.1593 6.01771 12.7141 5.83334 12.25 5.83334ZM5.84793 1.63625C5.8321 1.58152 5.82922 1.52386 5.8395 1.46783C5.84979 1.4118 5.87296 1.35892 5.90718 1.31338C5.94141 1.26783 5.98576 1.23087 6.03672 1.20541C6.08769 1.17995 6.14387 1.16669 6.20084 1.16667H6.30701C6.40872 1.16579 6.50886 1.19182 6.59727 1.24212C6.68568 1.29242 6.75921 1.3652 6.81043 1.45308L9.01543 5.83334H7.06418L5.84793 1.63625ZM12.25 8.16667H9.8636C9.7646 8.16673 9.66726 8.19198 9.58072 8.24005C9.49418 8.28811 9.4213 8.35741 9.36893 8.44142L6.81918 12.5294C6.76898 12.6214 6.69493 12.6982 6.6048 12.7517C6.51468 12.8051 6.41181 12.8334 6.30701 12.8333C6.24771 12.8334 6.18929 12.819 6.13676 12.7915C6.08422 12.764 6.03915 12.7242 6.00542 12.6754C5.97168 12.6266 5.95029 12.5704 5.94308 12.5116C5.93587 12.4527 5.94305 12.393 5.96401 12.3375L7.23218 8.95417C7.26515 8.86592 7.27626 8.771 7.26455 8.67752C7.25285 8.58404 7.21867 8.49479 7.16496 8.41739C7.11124 8.34 7.03958 8.27676 6.9561 8.2331C6.87262 8.18944 6.7798 8.16665 6.6856 8.16667H3.67968C3.37161 8.16616 3.06914 8.08433 2.80283 7.92946C2.53652 7.7746 2.31581 7.55217 2.16301 7.28467L1.21859 5.63617C1.19883 5.60102 1.18623 5.5623 1.18152 5.52225C1.17682 5.4822 1.1801 5.44161 1.19118 5.40284C1.19702 5.37699 1.20825 5.35267 1.22413 5.33146C1.24001 5.31026 1.26019 5.29263 1.28334 5.27975C1.3193 5.26066 1.3593 5.25046 1.40001 5.25C1.46262 5.25043 1.52262 5.27511 1.56743 5.31884L2.39401 6.14542C2.66459 6.41735 2.98643 6.6329 3.34089 6.77959C3.69536 6.92628 4.0754 7.0012 4.45901 7H12.25C12.4047 7 12.5531 7.06146 12.6625 7.17086C12.7719 7.28025 12.8333 7.42863 12.8333 7.58334C12.8333 7.73805 12.7719 7.88642 12.6625 7.99581C12.5531 8.10521 12.4047 8.16667 12.25 8.16667Z" fill="white"/>
</svg>
