<svg width="76" height="60" viewBox="0 0 76 60" fill="none" xmlns="http://www.w3.org/2000/svg">
<path d="M60.5 27.9429V30.0129C60.4972 34.8648 58.9261 39.5859 56.021 43.472C53.1159 47.3581 49.0324 50.2009 44.3795 51.5766C39.7267 52.9523 34.7538 52.7871 30.2026 51.1057C25.6513 49.4242 21.7655 46.3166 19.1247 42.2463C16.4838 38.1759 15.2295 33.361 15.5488 28.5196C15.868 23.6781 17.7437 19.0696 20.8961 15.3813C24.0485 11.693 28.3088 9.12249 33.0414 8.05321C37.7741 6.98393 42.7256 7.47314 47.1575 9.44788" stroke="#555555" stroke-width="2" stroke-linecap="round" stroke-linejoin="round"/>
<path d="M38 2.5V7.5" stroke="#555555" stroke-width="2" stroke-linecap="round"/>
<path d="M18.5547 10.5547L22.0902 14.0902" stroke="#555555" stroke-width="2" stroke-linecap="round"/>
<path d="M38 52.5V57.5" stroke="#555555" stroke-width="2" stroke-linecap="round"/>
<path d="M53.9102 45.9102L57.4457 49.4457" stroke="#555555" stroke-width="2" stroke-linecap="round"/>
<path d="M60.5 30H65.5" stroke="#555555" stroke-width="2" stroke-linecap="round"/>
<path d="M53.9102 14.0898L57.4457 10.5543" stroke="#555555" stroke-width="2" stroke-linecap="round"/>
<path d="M10.5 30H15.5" stroke="#555555" stroke-width="2" stroke-linecap="round"/>
<path d="M18.5547 49.4453L22.0902 45.9098" stroke="#555555" stroke-width="2" stroke-linecap="round"/>
<path d="M29.75 36C33.4779 36 36.5 32.9779 36.5 29.25C36.5 25.5221 33.4779 22.5 29.75 22.5C26.0221 22.5 23 25.5221 23 29.25C23 32.9779 26.0221 36 29.75 36Z" fill="#FFC800"/>
<path d="M44 27C46.4853 27 48.5 24.9853 48.5 22.5C48.5 20.0147 46.4853 18 44 18C41.5147 18 39.5 20.0147 39.5 22.5C39.5 24.9853 41.5147 27 44 27Z" fill="#FFC800"/>
<path d="M62 12C65.3137 12 68 9.31371 68 6C68 2.68629 65.3137 0 62 0C58.6863 0 56 2.68629 56 6C56 9.31371 58.6863 12 62 12Z" fill="#FFC800"/>
<path d="M43.25 42C45.3211 42 47 40.3211 47 38.25C47 36.1789 45.3211 34.5 43.25 34.5C41.1789 34.5 39.5 36.1789 39.5 38.25C39.5 40.3211 41.1789 42 43.25 42Z" fill="#DDDDDD"/>
</svg>
