<svg width="50" height="40" viewBox="0 0 50 40" fill="none" xmlns="http://www.w3.org/2000/svg">
    <path clip-rule="evenodd" d="M4 6.003a2 2 0 0 1 2-2h12.47s2.525-.077 3.905 1.899 1.71 3.232 2.58 4.247c.897 1.05 2.508 1.354 4.109 1.354h11.938c1.104 0 1.998.895 1.998 2v17a2 2 0 0 1-2 2H6a2 2 0 0 1-2-2v-24.5z" stroke="#555" stroke-width="2"/>
    <rect x="10" y="13" width="12" height="3.75" rx="1" fill="#DDD"/>
    <rect x="10" y="21" width="27" height="2" rx="1" fill="#DDD"/>
    <path d="M23 7h18.519C42.337 7 43 7.704 43 8.571V18" stroke="#555" stroke-width="2"/>
    <rect x="31" y="20" width="17" height="17" rx="4" fill="#1BBF6D"/>
    <rect x="35" y="27" width="9" height="3" rx="1" fill="#fff"/>
    <rect x="38" y="24" width="3" height="9" rx="1" fill="#fff"/>
</svg>
