<svg width="26" height="26" viewBox="0 0 26 26" fill="none" xmlns="http://www.w3.org/2000/svg">
<rect x="1" y="1" width="24" height="24" rx="3" fill="#EE3B57" stroke="#EE3B57" stroke-width="2"/>
<path d="M10.4997 19.9984C10.0688 19.9983 9.65555 19.8271 9.35088 19.5223L4.47588 14.6473C4.17124 14.3426 4 13.9293 4 13.4984C4 13.0675 4.17124 12.6542 4.47588 12.3495C4.78061 12.0448 5.19381 11.8734 5.6247 11.8734C6.05559 11.8734 6.4688 12.0448 6.77353 12.3495L10.4477 16.0248L18.238 7.52525C18.3822 7.36796 18.556 7.24084 18.7495 7.15074C18.9429 7.06063 19.1523 7.01077 19.3655 7.00157C19.5787 6.99236 19.7916 7.02368 19.9921 7.09678C20.1926 7.16988 20.3768 7.28259 20.5341 7.42686C20.8512 7.71813 21.0398 8.12335 21.0584 8.55357C21.077 8.98379 20.9241 9.404 20.6332 9.72154L11.6957 19.4715C11.5476 19.6331 11.3683 19.7619 11.1686 19.8524C10.9689 19.9429 10.753 19.9935 10.5338 19.9984H10.4997Z" fill="white"/>
</svg>
