<svg width="24" height="24" viewBox="0 0 24 24" fill="none" xmlns="http://www.w3.org/2000/svg">
<g clip-path="url(#clip0_260_912)">
<path fill-rule="evenodd" clip-rule="evenodd" d="M12 2.25C6.61522 2.25 2.25 6.61522 2.25 12C2.25 17.3848 6.61522 21.75 12 21.75C17.3848 21.75 21.75 17.3848 21.75 12C21.75 6.61522 17.3848 2.25 12 2.25ZM0.75 12C0.75 5.7868 5.7868 0.75 12 0.75C18.2132 0.75 23.25 5.7868 23.25 12C23.25 18.2132 18.2132 23.25 12 23.25C5.7868 23.25 0.75 18.2132 0.75 12ZM9.8303 5.74759C10.4384 5.41674 11.1489 5.25 12 5.25C12.9142 5.25 13.8402 5.68266 14.5283 6.32723C15.2233 6.97821 15.75 7.91572 15.75 9C15.75 10.8245 14.4779 12.3337 12.75 12.6768V15C12.75 15.4142 12.4142 15.75 12 15.75C11.5858 15.75 11.25 15.4142 11.25 15V12C11.25 11.5858 11.5858 11.25 12 11.25C13.2643 11.25 14.25 10.2556 14.25 9C14.25 8.41656 13.9642 7.85406 13.5029 7.42198C13.0347 6.98348 12.4607 6.75 12 6.75C11.3511 6.75 10.8965 6.87513 10.5471 7.06521C10.1949 7.25687 9.89797 7.54255 9.60543 7.94266C9.36096 8.27703 8.89171 8.34991 8.55734 8.10543C8.22297 7.86096 8.15009 7.39171 8.39457 7.05734C8.77196 6.54117 9.22508 6.07685 9.8303 5.74759Z" fill="#EC373C"/>
<path d="M13 18C13 18.5523 12.5523 19 12 19C11.4477 19 11 18.5523 11 18C11 17.4477 11.4477 17 12 17C12.5523 17 13 17.4477 13 18Z" fill="#EC373C"/>
</g>
<defs>
<clipPath id="clip0_260_912">
<rect width="24" height="24" fill="white"/>
</clipPath>
</defs>
</svg>
