<svg width="75" height="60" viewBox="0 0 75 60" fill="none" xmlns="http://www.w3.org/2000/svg">
<path fill-rule="evenodd" clip-rule="evenodd" d="M6 8.00434C6 6.89977 6.89543 6.00434 8 6.00434H27.7047C27.7047 6.00434 31.4925 5.88878 33.5625 8.85265C35.6325 11.8165 36.1288 13.7003 37.432 15.2236C38.7786 16.7975 41.1949 17.2543 43.5961 17.2543C45.5106 17.2543 57.662 17.2543 62.5084 17.2543C63.613 17.2543 64.5 18.1498 64.5 19.2543V46.7543C64.5 47.8589 63.6046 48.7543 62.5 48.7543H8C6.89543 48.7543 6 47.8589 6 46.7543L6 8.00434Z" stroke="#555555" stroke-width="2"/>
<rect x="15" y="19.5" width="18" height="5.625" rx="1" fill="#DDDDDD"/>
<rect x="15" y="31.5" width="40.5" height="3" rx="1" fill="#DDDDDD"/>
<path d="M34.5 10.5H62.2778C63.5051 10.5 64.5 11.5553 64.5 12.8571V27" stroke="#555555" stroke-width="2"/>
<rect x="46.5" y="30" width="25.5" height="25.5" rx="4" fill="#1BBF6D"/>
<rect x="52.5" y="40.5" width="13.5" height="4.5" rx="1" fill="white"/>
<rect x="57" y="36" width="4.5" height="13.5" rx="1" fill="white"/>
</svg>
