<svg width="50" height="40" viewBox="0 0 50 40" fill="none" xmlns="http://www.w3.org/2000/svg">
    <path d="M30.09 7h13.42c.823 0 1.49.672 1.49 1.5v24c0 .828-.667 1.5-1.49 1.5H5.49C4.669 34 4 33.328 4 32.5v-24C4 7.672 4.668 7 5.49 7h13.42" stroke="#555" stroke-width="2"/>
    <rect x="18.5" y="5" width="11.25" height="3" rx="1.5" stroke="#555" stroke-width="2"/>
    <rect x="21" y="19" width="6" height="2" rx="1" fill="#DDD"/>
    <rect x="21" y="24" width="8.25" height="2" rx="1" fill="#DDD"/>
    <rect x="21" y="14" width="12" height="2" rx="1" fill="#DDD"/>
    <rect x="9" y="14" width="9" height="12" rx="1" fill="#DDD"/>
    <path fill-rule="evenodd" clip-rule="evenodd" d="M34.106 26.542C33.326 21.618 36.25 20 37.998 20L38 38c-4.665 0-9.043-.565-9-1.286.143-2.632.553-3.482 1.291-3.935.424-.26 1.573-.686 2.65-1.084.797-.295 1.555-.575 1.947-.762.92-.44.915-1.099.717-1.546-.166-.344-.437-.7-.664-.999-.107-.14-.205-.269-.276-.377-.256-.343-.456-.82-.56-1.47zM38 38l.002-18c1.747 0 4.672 1.618 3.892 6.542-.102.65-.303 1.126-.559 1.47-.071.107-.169.235-.276.376-.227.298-.498.655-.664.999-.198.447-.203 1.107.717 1.546.392.187 1.15.467 1.947.762 1.077.398 2.226.823 2.65 1.084.738.453 1.148 1.303 1.29 3.935C47.044 37.435 42.666 38 38 38z" fill="#FF7826"/>
</svg>
