<svg width="21" height="20" viewBox="0 0 21 20" fill="none" xmlns="http://www.w3.org/2000/svg">
<path d="M18.3462 3H2.65385C2.29274 3 2 3.29848 2 3.66667V18.3333C2 18.7015 2.29274 19 2.65385 19H18.3462C18.7073 19 19 18.7015 19 18.3333V3.66667C19 3.29848 18.7073 3 18.3462 3Z" stroke="black"/>
<line x1="2" y1="7.5" x2="19" y2="7.5" stroke="black"/>
<line x1="7.5" y1="1.5" x2="7.5" y2="4.5" stroke="black" stroke-linecap="round"/>
<line x1="14.5" y1="1.5" x2="14.5" y2="4.5" stroke="black" stroke-linecap="round"/>
<rect x="5" y="10" width="2" height="2" fill="black"/>
<rect x="5" y="14" width="2" height="2" fill="black"/>
<rect x="8" y="10" width="2" height="2" fill="black"/>
<rect x="8" y="14" width="2" height="2" fill="black"/>
<rect x="11" y="10" width="2" height="2" fill="black"/>
<rect x="11" y="14" width="2" height="2" fill="black"/>
<rect x="14" y="10" width="2" height="2" fill="black"/>
<rect x="14" y="14" width="2" height="2" fill="black"/>
</svg>
