<svg xmlns="http://www.w3.org/2000/svg" width="18" height="54" viewBox="0 0 18 54">
  <g id="bg_radio" transform="translate(-327 -9)">
    <g id="input_radio" transform="translate(327 9)">
      <g id="ico_radio_off_n">
        <g id="사각형_56" data-name="사각형 56" fill="#fff" stroke="#ccced4" stroke-width="1">
          <rect width="18" height="18" rx="9" stroke="none"/>
          <rect x="0.5" y="0.5" width="17" height="17" rx="8.5" fill="none"/>
        </g>
      </g>
    </g>
    <g id="input_radio-2" data-name="input_radio" transform="translate(327 27)">
      <g id="ico_radio_on_s">
        <g id="패스_13403" data-name="패스 13403" fill="#fff">
          <path d="M 9 17 C 4.588789939880371 17 1 13.41121006011963 1 9 C 1 4.588789939880371 4.588789939880371 1 9 1 C 13.41121006011963 1 17 4.588789939880371 17 9 C 17 13.41121006011963 13.41121006011963 17 9 17 Z" stroke="none"/>
          <path d="M 9 2 C 5.140190124511719 2 2 5.140190124511719 2 9 C 2 12.85980987548828 5.140190124511719 16 9 16 C 12.85980987548828 16 16 12.85980987548828 16 9 C 16 5.140190124511719 12.85980987548828 2 9 2 M 9 0 C 13.97056007385254 0 18 4.029439926147461 18 9 C 18 13.97056007385254 13.97056007385254 18 9 18 C 4.029439926147461 18 0 13.97056007385254 0 9 C 0 4.029439926147461 4.029439926147461 0 9 0 Z" stroke="none" fill="#2d94f9"/>
        </g>
        <circle id="타원_290" data-name="타원 290" cx="5" cy="5" r="5" transform="translate(4 4)" fill="#2d94f9"/>
      </g>
    </g>
    <g id="input_radio-3" data-name="input_radio" transform="translate(327 45)">
      <g id="ico_radio_on_d">
        <g id="패스_13403-2" data-name="패스 13403" fill="none">
          <path d="M9,0A9,9,0,1,1,0,9,9,9,0,0,1,9,0Z" stroke="none"/>
          <path d="M 9 2 C 5.140190124511719 2 2 5.140190124511719 2 9 C 2 12.85980987548828 5.140190124511719 16 9 16 C 12.85980987548828 16 16 12.85980987548828 16 9 C 16 5.140190124511719 12.85980987548828 2 9 2 M 9 0 C 13.97056007385254 0 18 4.029439926147461 18 9 C 18 13.97056007385254 13.97056007385254 18 9 18 C 4.029439926147461 18 0 13.97056007385254 0 9 C 0 4.029439926147461 4.029439926147461 0 9 0 Z" stroke="none" fill="#ccced4"/>
        </g>
        <circle id="타원_290-2" data-name="타원 290" cx="5" cy="5" r="5" transform="translate(4 4)" fill="#ccced4"/>
      </g>
    </g>
  </g>
</svg>
