<svg xmlns="http://www.w3.org/2000/svg" width="40" height="40" viewBox="0 0 40 40">
  <g id="icon_menu_02_on" transform="translate(-12 -668)">
    <g id="box" transform="translate(12 668)" fill="none" stroke="rgba(204,204,204,0)" stroke-miterlimit="10" stroke-width="1">
      <rect width="40" height="40" stroke="none"/>
      <rect x="0.5" y="0.5" width="39" height="39" fill="none"/>
    </g>
    <g id="icon_menu_02" transform="translate(-421 492)">
      <g id="타원_133" data-name="타원 133" transform="translate(452 194)" fill="none" stroke="#225bb8" stroke-linecap="round" stroke-linejoin="round" stroke-width="2">
        <circle cx="7" cy="7" r="7" stroke="none"/>
        <circle cx="7" cy="7" r="6" fill="none"/>
      </g>
      <path id="패스_2371" data-name="패스 2371" d="M459,207H444.995A2,2,0,0,1,443,205.005v-18.01A2,2,0,0,1,444.995,185h10.641l3.572,3.476V195" fill="none" stroke="#225bb8" stroke-linecap="round" stroke-linejoin="round" stroke-width="2"/>
      <path id="합치기_5" data-name="합치기 5" d="M3834,832.5a1,1,0,0,1-1-1V829a1,1,0,1,1,2,0v1.5h1a1,1,0,1,1,0,2Z" transform="translate(-3374.911 -630.616)" fill="#225bb8"/>
    </g>
  </g>
</svg>
