<svg xmlns="http://www.w3.org/2000/svg" xmlns:xlink="http://www.w3.org/1999/xlink" width="122" height="122" viewBox="0 0 122 122">
  <defs>
    <clipPath id="clip-path">
      <rect id="사각형_110769" data-name="사각형 110769" width="67.137" height="48.761" fill="#3375cb" stroke="#fff" stroke-width="2.5"/>
    </clipPath>
  </defs>
  <g id="icon_main_01" transform="translate(-452 -534)">
    <circle id="bg" cx="61" cy="61" r="61" transform="translate(452 534)" fill="#fff"/>
    <rect id="box" width="70" height="70" transform="translate(478 560)" fill="none" opacity="0"/>
    <g id="icon" transform="translate(479 571)" opacity="0.6" clip-path="url(#clip-path)">
      <path id="패스_53696" data-name="패스 53696" d="M11.845,23.883a8.45,8.45,0,1,1,8.449-8.448,8.459,8.459,0,0,1-8.449,8.448m0-11.675a3.225,3.225,0,1,0,3.226,3.227,3.229,3.229,0,0,0-3.226-3.227" transform="translate(0.739 1.519)" fill="#3375cb" stroke="#fff" stroke-width="2.5"/>
      <path id="패스_53697" data-name="패스 53697" d="M2.612,44.109A2.611,2.611,0,0,1,0,41.5v-7.54a12.585,12.585,0,0,1,23.268-6.652,2.612,2.612,0,1,1-4.433,2.763A7.361,7.361,0,0,0,5.224,33.957V41.5a2.611,2.611,0,0,1-2.612,2.612" transform="translate(0 4.651)" fill="#3375cb" stroke="#fff" stroke-width="2.5"/>
      <path id="패스_53698" data-name="패스 53698" d="M46.312,23.883a8.45,8.45,0,1,1,8.449-8.448,8.459,8.459,0,0,1-8.449,8.448m0-11.675a3.225,3.225,0,1,0,3.224,3.227,3.229,3.229,0,0,0-3.224-3.227" transform="translate(8.241 1.519)" fill="#3375cb" stroke="#fff" stroke-width="2.5"/>
      <path id="패스_53699" data-name="패스 53699" d="M56.755,44.109A2.611,2.611,0,0,1,54.143,41.5v-7.54a7.361,7.361,0,0,0-13.611-3.889A2.612,2.612,0,0,1,36.1,27.305a12.585,12.585,0,0,1,23.268,6.652V41.5a2.611,2.611,0,0,1-2.612,2.612" transform="translate(7.771 4.651)" fill="#3375cb" stroke="#fff" stroke-width="2.5"/>
      <path id="패스_53700" data-name="패스 53700" d="M29.262,20.151A10.076,10.076,0,1,1,39.338,10.075,10.086,10.086,0,0,1,29.262,20.151m0-14.927a4.851,4.851,0,1,0,4.852,4.851,4.857,4.857,0,0,0-4.852-4.851" transform="translate(4.176 -0.001)" fill="#3375cb" stroke="#fff" stroke-width="2.5"/>
      <path id="패스_53701" data-name="패스 53701" d="M42.958,44.981a2.611,2.611,0,0,1-2.612-2.612v-9.64a10.138,10.138,0,1,0-20.276,0v9.64a2.612,2.612,0,0,1-5.225,0v-9.64a15.362,15.362,0,1,1,30.725,0v9.64a2.611,2.611,0,0,1-2.612,2.612" transform="translate(3.231 3.779)" fill="#3375cb" stroke="#fff" stroke-width="2.5"/>
    </g>
  </g>
</svg>
