<svg xmlns="http://www.w3.org/2000/svg" width="50" height="50" viewBox="0 0 50 50">
  <g id="icon_notice" transform="translate(-677.5 -470)">
    <circle id="Ellipse_1" data-name="Ellipse 1" cx="25" cy="25" r="25" transform="translate(677.5 470)" fill="#1b86fe"/>
    <path id="Shape_1" data-name="Shape 1" d="M698.5,516c-1.493,0-2-1.507-2-3v-5c0-.3-.3-1,0-1a1.654,1.654,0,0,1,1,1v5c0,.9.1,2,1,2h3c.178,0,.9.145,1,0a2.109,2.109,0,0,0,0-1l-1-1c-.02-.058,0-.94,0-1v-3a1.655,1.655,0,0,1,1-1c.3,0,0,.7,0,1v3l1,2c.172.5.3.572,0,1a3.549,3.549,0,0,1-2,1Zm13.147-5.983A.522.522,0,0,1,711.5,510c-4.182-2.162-8.612-2.441-13-3-2.975-.381-6-3.01-6-6s3.026-5.62,6-6a39.047,39.047,0,0,0,13-4,6.567,6.567,0,0,1,.927,0,2.943,2.943,0,0,1,2.073-1c2.733,0,4,4.926,4,11s-1.266,11-4,11A3.636,3.636,0,0,1,711.647,510.016ZM714.5,511c1.793,0,3-4.254,3-10s-1.207-10-3-10-4,4.253-4,10a17.476,17.476,0,0,0,1.646,7.823q.178.086.354.177c.105.048.092.289.06.53C713.182,510.47,713.867,511,714.5,511Zm-16-15a5.125,5.125,0,0,0,0,10c3.881.494,8.3.71,12.234,2.214A20.006,20.006,0,0,1,709.5,501a18.369,18.369,0,0,1,1.791-8.415A45.656,45.656,0,0,1,698.5,496Z" transform="translate(-2.5 -8.5)" fill="#fff" stroke="#fff" stroke-width="1"/>
  </g>
</svg>
