<svg xmlns="http://www.w3.org/2000/svg" width="40" height="40" viewBox="0 0 40 40">
  <g id="icon_menu_05_on" transform="translate(-12 -732)">
    <g id="box" transform="translate(12 732)" fill="none" stroke="rgba(204,204,204,0)" stroke-miterlimit="10" stroke-width="1">
      <rect width="40" height="40" stroke="none"/>
      <rect x="0.5" y="0.5" width="39" height="39" fill="none"/>
    </g>
    <g id="icon_menu_05" transform="translate(-1595 207)">
      <path id="패스_3160" data-name="패스 3160" d="M1627,555h8a3,3,0,0,0,3-3V537a3,3,0,0,0-3-3h-15a3,3,0,0,0-3,3v6" fill="none" stroke="#225bb8" stroke-linecap="round" stroke-linejoin="round" stroke-width="2"/>
      <line id="선_366" data-name="선 366" y2="9" transform="translate(1626 540)" fill="none" stroke="#225bb8" stroke-linecap="round" stroke-linejoin="round" stroke-width="2"/>
      <line id="선_367" data-name="선 367" y2="7" transform="translate(1634 542)" fill="none" stroke="#225bb8" stroke-linecap="round" stroke-linejoin="round" stroke-width="2"/>
      <line id="선_368" data-name="선 368" y2="5" transform="translate(1630 544)" fill="none" stroke="#225bb8" stroke-linecap="round" stroke-linejoin="round" stroke-width="2"/>
      <circle id="타원_238" data-name="타원 238" cx="2" cy="2" r="2" transform="translate(1618 546)" fill="none" stroke="#225bb8" stroke-linecap="round" stroke-linejoin="round" stroke-width="2"/>
      <path id="패스_3161" data-name="패스 3161" d="M1616,556v-1.792a1.556,1.556,0,0,1,1.555-1.556h4.722a1.556,1.556,0,0,1,1.555,1.556V556" fill="none" stroke="#225bb8" stroke-linecap="round" stroke-linejoin="round" stroke-width="2"/>
    </g>
  </g>
</svg>
