<svg xmlns="http://www.w3.org/2000/svg" width="122" height="122" viewBox="0 0 122 122">
  <g id="icon_main_03" transform="translate(-1144 -534)">
    <circle id="bg" cx="61" cy="61" r="61" transform="translate(1144 534)" fill="#fff"/>
    <rect id="box" width="70" height="70" transform="translate(1170 560)" fill="none" opacity="0"/>
    <path id="icon" d="M1423.93,609.565l-7.853-8.029h-24.2a6.887,6.887,0,0,1-6.88-6.88V575.541a6.887,6.887,0,0,1,6.88-6.88H1405.2a1.428,1.428,0,0,1,1.376,1.435,1.377,1.377,0,0,1-1.376,1.376h-13.261a4.132,4.132,0,0,0-4.127,4.127v18.969a4.133,4.133,0,0,0,4.127,4.128h24.709a1.372,1.372,0,0,1,.972.4l5.908,6.17V586.9a1.375,1.375,0,0,1,1.376-1.376,1.4,1.4,0,0,1,1.4,1.376v21.692a1.4,1.4,0,0,1-.878,1.272,1.377,1.377,0,0,1-1.5-.3Zm-13.636-18.671a1.374,1.374,0,0,1-.85-1.271V554.9a6.888,6.888,0,0,1,6.88-6.88h27.548a6.888,6.888,0,0,1,6.88,6.88v20.966a6.888,6.888,0,0,1-6.88,6.88h-23.9l-8.176,7.852a1.372,1.372,0,0,1-1.5.3Zm1.931-35.967v31.345l6.2-5.908a1.379,1.379,0,0,1,.973-.4h24.415a4.133,4.133,0,0,0,4.127-4.128V554.927a4.132,4.132,0,0,0-4.127-4.127h-27.461A4.132,4.132,0,0,0,1412.225,554.927Zm16.925,10.122a2,2,0,1,1,2,2A2,2,0,0,1,1429.15,565.05Zm8.445-.019a2,2,0,1,1,2,2A2,2,0,0,1,1437.594,565.031Zm-16.918,0a2,2,0,1,1,2,2A2,2,0,0,1,1420.676,565.031Z" transform="translate(-213 15.982)" fill="#e27ca1" opacity="0.6"/>
  </g>
</svg>
