<svg id="그룹_190536" data-name="그룹 190536" xmlns="http://www.w3.org/2000/svg" xmlns:xlink="http://www.w3.org/1999/xlink" width="35" height="35" viewBox="0 0 35 35">
  <defs>
    <clipPath id="clip-path">
      <rect id="사각형_110770" data-name="사각형 110770" width="29.199" height="31.071" transform="translate(-2 -2)" fill="none" stroke="#8f5adf" stroke-width="1.5"/>
    </clipPath>
  </defs>
  <g id="그룹_190353" data-name="그룹 190353" transform="translate(5 4)" opacity="0.6">
    <g id="그룹_181977" data-name="그룹 181977" transform="translate(0 0)" clip-path="url(#clip-path)">
      <path id="패스_53702" data-name="패스 53702" d="M9.394,21.772V21.4H21.187V1H1V21.772a5.357,5.357,0,0,0,3.295,4.943H6.1A5.356,5.356,0,0,0,9.394,21.772Z" transform="translate(-0.321 -0.322)" fill="none" stroke="#8f5adf" stroke-linecap="round" stroke-linejoin="round" stroke-width="2"/>
      <path id="패스_53703" data-name="패스 53703" d="M30.75,36.38h.36a5.355,5.355,0,0,0,3.3-4.943v-.368H30.75" transform="translate(-9.885 -9.987)" fill="none" stroke="#8f5adf" stroke-linecap="round" stroke-linejoin="round" stroke-width="2"/>
      <path id="패스_53704" data-name="패스 53704" d="M23.6,31.069H11.809v.368a5.357,5.357,0,0,1-3.3,4.943H23.6" transform="translate(-2.737 -9.988)" fill="none" stroke="#8f5adf" stroke-linecap="round" stroke-linejoin="round" stroke-width="2"/>
      <line id="선_32" data-name="선 32" x2="4.827" transform="translate(5.944 6.871)" fill="none" stroke="#8f5adf" stroke-linecap="round" stroke-linejoin="round" stroke-width="2"/>
      <path id="패스_56195" data-name="패스 56195" d="M0-1H4.827" transform="translate(5.944 13.766)" fill="none" stroke="#8f5adf" stroke-linecap="round" stroke-width="2"/>
    </g>
  </g>
  <rect id="사각형_113300" data-name="사각형 113300" width="35" height="35" fill="none" opacity="0"/>
</svg>
