<?xml version="1.0" encoding="utf-8"?>
<!-- Generator: Adobe Illustrator 23.0.0, SVG Export Plug-In . SVG Version: 6.00 Build 0)  -->
<svg version="1.1" id="Layer_1" xmlns="http://www.w3.org/2000/svg" xmlns:xlink="http://www.w3.org/1999/xlink" x="0px" y="0px"
	 viewBox="0 0 14 17" style="enable-background:new 0 0 14 17;" xml:space="preserve">
<style type="text/css">
	.st0{fill:none;}
	.st1{fill:none;stroke:#898D9C;stroke-width:2;}
	.st2{fill:#898D9C;}
</style>
<circle class="st0" cx="7" cy="4" r="4"/>
<circle class="st1" cx="7" cy="4" r="3"/>
<path class="st0" d="M0,17L0,17v-4c0-1.7,1.3-3,3-3h8c1.7,0,3,1.3,3,3v4l0,0"/>
<path class="st2" d="M12,13c0-0.6-0.4-1-1-1H3c-0.6,0-1,0.4-1,1l0,4H0v-4c0-1.7,1.3-3,3-3h8c1.7,0,3,1.3,3,3v4h-2V13z"/>
</svg>
