<svg id="icon_calendar" xmlns="http://www.w3.org/2000/svg" width="16" height="16" viewBox="0 0 16 16">
  <rect id="사각형_64" data-name="사각형 64" width="16" height="16" fill="none"/>
  <path id="합치기_202" data-name="합치기 202" d="M-9941-9014a1,1,0,0,1-1-1v-11a1,1,0,0,1,1-1h12a1,1,0,0,1,1,1v11a1,1,0,0,1-1,1Zm0-1h12v-9h-12Zm12-10v-1h-12v1Z" transform="translate(9943 9029)" fill="#898d9c"/>
  <g id="합치기_2" data-name="합치기 2" transform="translate(3)" fill="none">
    <path d="M8,2V.5a.5.5,0,1,1,1,0V2ZM1,2V.5a.5.5,0,1,1,1,0V2Z" stroke="none"/>
    <path d="M 9 1.999800086021423 L 8.000100135803223 1.999800086021423 L 8.000100135803223 0.5004000663757324 C 8.000100135803223 0.2241000384092331 8.224200248718262 4.301071143686386e-08 8.499599456787109 4.301071143686386e-08 C 8.775899887084961 4.301071143686386e-08 9 0.2241000384092331 9 0.5004000663757324 L 9 1.999800086021423 Z M 1.999799966812134 1.999800086021423 L 0.9998999238014221 1.999800086021423 L 0.9998999238014221 0.5004000663757324 C 0.9998999238014221 0.2241000384092331 1.223999977111816 4.301071143686386e-08 1.50029993057251 4.301071143686386e-08 C 1.775699973106384 4.301071143686386e-08 1.999799966812134 0.2241000384092331 1.999799966812134 0.5004000663757324 L 1.999799966812134 1.999800086021423 Z" stroke="none" fill="#898d9c"/>
  </g>
  <g id="합치기_1" data-name="합치기 1" transform="translate(3 6)" fill="none">
    <path d="M7,6V4H9V6ZM4,6V4H6V6ZM1,6V4H3V6ZM7,3V1H9V3ZM4,3V1H6V3ZM1,3V1H3V3Z" stroke="none"/>
    <path d="M 9 6.00029993057251 L 7.000199794769287 6.00029993057251 L 7.000199794769287 3.999599933624268 L 9 3.999599933624268 L 9 6.00029993057251 Z M 6.00029993057251 6.00029993057251 L 3.999599933624268 6.00029993057251 L 3.999599933624268 3.999599933624268 L 6.00029993057251 3.999599933624268 L 6.00029993057251 6.00029993057251 Z M 2.999699831008911 6.00029993057251 L 0.9998999238014221 6.00029993057251 L 0.9998999238014221 3.999599933624268 L 2.999699831008911 3.999599933624268 L 2.999699831008911 6.00029993057251 Z M 9 2.999699831008911 L 7.000199794769287 2.999699831008911 L 7.000199794769287 0.9998999238014221 L 9 0.9998999238014221 L 9 2.999699831008911 Z M 6.00029993057251 2.999699831008911 L 3.999599933624268 2.999699831008911 L 3.999599933624268 0.9998999238014221 L 6.00029993057251 0.9998999238014221 L 6.00029993057251 2.999699831008911 Z M 2.999699831008911 2.999699831008911 L 0.9998999238014221 2.999699831008911 L 0.9998999238014221 0.9998999238014221 L 2.999699831008911 0.9998999238014221 L 2.999699831008911 2.999699831008911 Z" stroke="none" fill="#898d9c"/>
  </g>
</svg>
