<svg xmlns="http://www.w3.org/2000/svg" xmlns:xlink="http://www.w3.org/1999/xlink" width="122" height="122" viewBox="0 0 122 122">
  <defs>
    <clipPath id="clip-path">
      <rect id="사각형_110770" data-name="사각형 110770" width="50.398" height="54.142" fill="none" stroke="#8f5adf" stroke-width="2.7"/>
    </clipPath>
  </defs>
  <g id="icon_main_02" transform="translate(-798 -534)">
    <circle id="bg" cx="61" cy="61" r="61" transform="translate(798 534)" fill="#fff"/>
    <rect id="box" width="70" height="70" transform="translate(824 560)" fill="none" opacity="0"/>
    <g id="icon" transform="translate(834 568)" opacity="0.6" clip-path="url(#clip-path)">
      <path id="패스_53702" data-name="패스 53702" d="M17.788,42.543v-.737H41.373V1H1V42.543a10.714,10.714,0,0,0,6.59,9.886H11.2A10.713,10.713,0,0,0,17.788,42.543Z" transform="translate(0.357 0.357)" fill="none" stroke="#8f5adf" stroke-linecap="round" stroke-linejoin="round" stroke-width="2.9"/>
      <path id="패스_53703" data-name="패스 53703" d="M30.75,41.691h.719A10.71,10.71,0,0,0,38.061,31.8v-.737H30.75" transform="translate(10.98 11.093)" fill="none" stroke="#8f5adf" stroke-linecap="round" stroke-linejoin="round" stroke-width="2.7"/>
      <path id="패스_53704" data-name="패스 53704" d="M38.69,31.069H15.106v.737a10.715,10.715,0,0,1-6.593,9.886H38.69" transform="translate(3.04 11.094)" fill="none" stroke="#8f5adf" stroke-linecap="round" stroke-linejoin="round" stroke-width="2.7"/>
      <line id="선_32" data-name="선 32" x2="9.655" transform="translate(11.889 13.743)" fill="none" stroke="#8f5adf" stroke-linecap="round" stroke-linejoin="round" stroke-width="2.7"/>
      <path id="패스_56195" data-name="패스 56195" d="M0-1H9.655" transform="translate(11.889 26.532)" fill="none" stroke="#8f5adf" stroke-linecap="round" stroke-width="2.7"/>
    </g>
  </g>
</svg>
