<svg xmlns="http://www.w3.org/2000/svg" width="40" height="40" viewBox="0 0 40 40">
  <g id="icon_menu21_on" transform="translate(-30 -296)">
    <g id="box" transform="translate(30 296)" fill="none" stroke="rgba(204,204,204,0)" stroke-miterlimit="10" stroke-width="1">
      <rect width="40" height="40" stroke="none"/>
      <rect x="0.5" y="0.5" width="39" height="39" fill="none"/>
    </g>
    <g id="icon" transform="translate(18 12)">
      <path id="패스_2365" data-name="패스 2365" d="M232.189,207h-9.406A1.9,1.9,0,0,1,221,205V187a1.9,1.9,0,0,1,1.783-2h14.434A1.9,1.9,0,0,1,239,187" transform="translate(-200 108)" fill="none" stroke="#1571c2" stroke-linecap="round" stroke-linejoin="round" stroke-width="2"/>
      <rect id="사각형_1906" data-name="사각형 1906" width="2" height="11" rx="1" transform="translate(38 294)" fill="#1571c2"/>
      <rect id="사각형_1905" data-name="사각형 1905" width="8" height="2" rx="1" transform="translate(26 297)" fill="#1571c2"/>
      <g id="Ellipse_532" data-name="Ellipse 532" transform="translate(28 303)" fill="none" stroke="#1571c2" stroke-width="2">
        <circle cx="5" cy="5" r="5" stroke="none"/>
        <circle cx="5" cy="5" r="4" fill="none"/>
      </g>
      <line id="Shape_533" data-name="Shape 533" x2="3.755" y2="3.01" transform="translate(36.745 310.49)" fill="none" stroke="#1571c2" stroke-linecap="round" stroke-width="2"/>
    </g>
  </g>
</svg>
