<svg xmlns="http://www.w3.org/2000/svg" width="32" height="32" viewBox="0 0 32 32">
  <g id="그룹_190535" data-name="그룹 190535" transform="translate(-0.065 -0.065)">
    <path id="icon" d="M17.869,28.251l-3.6-3.685H3.158A3.161,3.161,0,0,1,0,21.408V12.633A3.161,3.161,0,0,1,3.158,9.476H9.272a.655.655,0,0,1,.632.659.632.632,0,0,1-.632.632H3.185A1.9,1.9,0,0,0,1.29,12.66v8.707a1.9,1.9,0,0,0,1.895,1.895H14.526a.63.63,0,0,1,.446.185l2.712,2.832V17.848a.631.631,0,0,1,.632-.632.643.643,0,0,1,.645.632V27.8a.645.645,0,0,1-.4.584.632.632,0,0,1-.688-.137Zm-6.259-8.57a.631.631,0,0,1-.39-.583V3.158A3.162,3.162,0,0,1,14.378,0H27.023a3.162,3.162,0,0,1,3.158,3.158v9.624a3.162,3.162,0,0,1-3.158,3.158H16.051l-3.753,3.6a.63.63,0,0,1-.688.137ZM12.5,3.171V17.559l2.846-2.712a.633.633,0,0,1,.447-.185H27a1.9,1.9,0,0,0,1.895-1.895v-9.6A1.9,1.9,0,0,0,27,1.277h-12.6A1.9,1.9,0,0,0,12.5,3.171Zm7.769,4.646a.918.918,0,1,1,.918.918A.918.918,0,0,1,20.265,7.818Zm3.876-.009a.918.918,0,1,1,.918.918A.918.918,0,0,1,24.142,7.809Zm-7.766,0a.918.918,0,1,1,.918.918A.918.918,0,0,1,16.376,7.809Z" transform="translate(0.918 1.836)" fill="#e27ca1" stroke="#e27ca1" stroke-width="1" opacity="0.6"/>
    <rect id="사각형_113301" data-name="사각형 113301" width="32" height="32" transform="translate(0.065 0.065)" fill="none" opacity="0"/>
  </g>
</svg>
