<svg id="그룹_190537" data-name="그룹 190537" xmlns="http://www.w3.org/2000/svg" xmlns:xlink="http://www.w3.org/1999/xlink" width="35" height="35" viewBox="0 0 35 35">
  <defs>
    <clipPath id="clip-path">
      <rect id="사각형_110769" data-name="사각형 110769" width="33.569" height="24.38" fill="#3375cb" stroke="#fff" stroke-width="0.8"/>
    </clipPath>
  </defs>
  <rect id="사각형_113299" data-name="사각형 113299" width="35" height="35" fill="none" opacity="0"/>
  <g id="그룹_190352" data-name="그룹 190352" transform="translate(0.5 5)">
    <g id="그룹_181975" data-name="그룹 181975" transform="translate(0 0)" clip-path="url(#clip-path)">
      <path id="패스_53696" data-name="패스 53696" d="M7.621,15.433a4.225,4.225,0,1,1,4.225-4.224,4.229,4.229,0,0,1-4.225,4.224m0-5.837a1.612,1.612,0,1,0,1.613,1.613A1.614,1.614,0,0,0,7.621,9.6" transform="translate(-1.328 -2.732)" fill="#3375cb" stroke="#fff" stroke-width="0.8"/>
      <path id="패스_53697" data-name="패스 53697" d="M1.306,32.741A1.306,1.306,0,0,1,0,31.435v-3.77a6.293,6.293,0,0,1,11.634-3.326,1.306,1.306,0,1,1-2.217,1.381,3.681,3.681,0,0,0-6.805,1.945v3.77a1.306,1.306,0,0,1-1.306,1.306" transform="translate(0 -8.361)" fill="#3375cb" stroke="#fff" stroke-width="0.8"/>
      <path id="패스_53698" data-name="패스 53698" d="M42.088,15.433a4.225,4.225,0,1,1,4.225-4.224,4.229,4.229,0,0,1-4.225,4.224m0-5.837A1.612,1.612,0,1,0,43.7,11.209,1.614,1.614,0,0,0,42.088,9.6" transform="translate(-14.811 -2.732)" fill="#3375cb" stroke="#fff" stroke-width="0.8"/>
      <path id="패스_53699" data-name="패스 53699" d="M46.229,32.741a1.306,1.306,0,0,1-1.306-1.306v-3.77a3.681,3.681,0,0,0-6.805-1.945A1.306,1.306,0,0,1,35.9,24.339a6.293,6.293,0,0,1,11.634,3.326v3.77a1.306,1.306,0,0,1-1.306,1.306" transform="translate(-13.966 -8.361)" fill="#3375cb" stroke="#fff" stroke-width="0.8"/>
      <path id="패스_53700" data-name="패스 53700" d="M24.224,10.075a5.038,5.038,0,1,1,5.038-5.038,5.043,5.043,0,0,1-5.038,5.038m0-7.464a2.426,2.426,0,1,0,2.426,2.426,2.429,2.429,0,0,0-2.426-2.426" transform="translate(-7.506 0)" fill="#3375cb" stroke="#fff" stroke-width="0.8"/>
      <path id="패스_53701" data-name="패스 53701" d="M28.9,31.173A1.306,1.306,0,0,1,27.6,29.868v-4.82a5.069,5.069,0,1,0-10.138,0v4.82a1.306,1.306,0,0,1-2.612,0v-4.82a7.681,7.681,0,1,1,15.362,0v4.82A1.306,1.306,0,0,1,28.9,31.173" transform="translate(-5.807 -6.793)" fill="#3375cb" stroke="#fff" stroke-width="0.8"/>
    </g>
  </g>
</svg>
