<svg xmlns="http://www.w3.org/2000/svg" xmlns:xlink="http://www.w3.org/1999/xlink" width="480" height="309" viewBox="0 0 480 309">
  <defs>
    <clipPath id="clip-path">
      <rect id="사각형_113060" data-name="사각형 113060" width="116.687" height="72.961" fill="none"/>
    </clipPath>
    <clipPath id="clip-path-2">
      <rect id="사각형_113161" data-name="사각형 113161" width="349.585" height="213.867" fill="none"/>
    </clipPath>
  </defs>
  <g id="img_main" transform="translate(-890 -77)">
    <rect id="사각형_113302" data-name="사각형 113302" width="480" height="286.633" transform="translate(890 77)" fill="none"/>
    <g id="그룹_190364" data-name="그룹 190364" transform="translate(903.603 87.914)">
      <g id="그룹_190307" data-name="그룹 190307">
        <g id="그룹_190296" data-name="그룹 190296">
          <g id="그룹_190416" data-name="그룹 190416">
            <g id="그룹_190419" data-name="그룹 190419" transform="translate(312.192 92.358)">
              <path id="패스_55752" data-name="패스 55752" d="M541.751,325.744H504.417V365.4h48.889V328.409H541.751Z" transform="translate(-504.417 -318.221)" fill="#d7eaf7"/>
              <path id="패스_55753" data-name="패스 55753" d="M626.68,303.872H612.958V311.4h11.556v2.665h2.167Z" transform="translate(-577.792 -303.872)" fill="#d7eaf7"/>
              <rect id="사각형_113125" data-name="사각형 113125" width="13.722" height="2.665" transform="translate(35.167 7.523)" fill="#e5f2f9"/>
              <rect id="사각형_113126" data-name="사각형 113126" width="5.941" height="6.652" transform="translate(36.098 34.46)" fill="#dd9fac"/>
              <rect id="사각형_113127" data-name="사각형 113127" width="5.941" height="17.338" transform="translate(27.039 23.775)" fill="#f9ea9c"/>
              <rect id="사각형_113128" data-name="사각형 113128" width="5.941" height="19.746" transform="translate(17.617 21.367)" fill="#afe6d6"/>
              <rect id="사각형_113129" data-name="사각형 113129" width="5.941" height="28.474" transform="translate(8.196 12.639)" fill="#dd9fac"/>
              <path id="패스_55755" data-name="패스 55755" d="M545.524,406.282v.389a.473.473,0,0,0,.066-.221.256.256,0,0,0-.066-.168" transform="translate(-531.385 -371.058)" fill="#d0e8fc"/>
            </g>
            <path id="패스_55766" data-name="패스 55766" d="M17.029,239.374A17.029,17.029,0,1,0,34.058,256.4a17.029,17.029,0,0,0-17.029-17.029m14.5,13.271a14.876,14.876,0,0,1,.38,2.05l-.342.039a14.514,14.514,0,0,0-.371-2Zm-29.055.188.334.082a14.515,14.515,0,0,0-.345,2.008l-.342-.034a14.889,14.889,0,0,1,.354-2.055m-.2,6.213a14.958,14.958,0,0,1-.223-2.073l.344-.013a14.647,14.647,0,0,0,.218,2.026h0ZM3.58,263a14.866,14.866,0,0,1-.788-1.931l.327-.107a14.556,14.556,0,0,0,.77,1.886Zm-.145-12.025-.319-.128a14.934,14.934,0,0,1,.91-1.878l.3.171a14.558,14.558,0,0,0-.889,1.835M5.917,266.44a15.031,15.031,0,0,1-1.288-1.64l.284-.193a14.694,14.694,0,0,0,1.259,1.6Zm-.458-18.994h0l-.272-.211a15.134,15.134,0,0,1,1.389-1.555l.24.246a14.792,14.792,0,0,0-1.358,1.52m3.647,21.666a15.069,15.069,0,0,1-1.687-1.226l.221-.264a14.7,14.7,0,0,0,1.649,1.2Zm-.736-24.5-.2-.277a15.061,15.061,0,0,1,1.76-1.116l.164.3a14.716,14.716,0,0,0-1.72,1.091m4.539,26.2a14.876,14.876,0,0,1-1.961-.714l.14-.314a14.526,14.526,0,0,0,1.915.7Zm-.965-28.131-.12-.323a14.828,14.828,0,0,1,2-.587l.074.336a14.514,14.514,0,0,0-1.955.574m5.085,28.707a15.041,15.041,0,0,1-2.08-.144L15,270.9a14.739,14.739,0,0,0,2.033.14Zm-1.114-29.576-.026-.343q.564-.043,1.14-.043.476,0,.945.03l-.021.343q-.458-.028-.924-.029-.562,0-1.114.042m1.308,29.575,0-.344a14.692,14.692,0,0,0,2.031-.167l.052.34a14.991,14.991,0,0,1-2.078.171m2.818-29.656a14.84,14.84,0,0,1,2.01.562l-.116.324a14.436,14.436,0,0,0-1.964-.549Zm1.295,29.027-.1-.329a14.558,14.558,0,0,0,1.905-.722l.144.313a14.873,14.873,0,0,1-1.95.739m2.627-27.628a15.064,15.064,0,0,1,1.776,1.1l-.2.279a14.686,14.686,0,0,0-1.735-1.07Zm1.151,25.885-.186-.289A14.736,14.736,0,0,0,26.56,267.5l.224.261a15.027,15.027,0,0,1-1.671,1.247m2.232-23.461a15.168,15.168,0,0,1,1.408,1.538l-.269.214a14.717,14.717,0,0,0-1.376-1.5Zm.922,20.749-.258-.227a14.8,14.8,0,0,0,1.239-1.619l.287.19a15,15,0,0,1-1.267,1.657M29.936,248.8a14.983,14.983,0,0,1,.932,1.864l-.317.132a14.6,14.6,0,0,0-.911-1.821Zm.626,14.021-.311-.148a14.506,14.506,0,0,0,.746-1.9l.328.1a14.906,14.906,0,0,1-.764,1.942m.908-4.027a14.69,14.69,0,0,0,.192-2.028l.344.009a15.056,15.056,0,0,1-.2,2.076Z" transform="translate(0 -157.04)" fill="#e798c4"/>
            <path id="패스_55767" data-name="패스 55767" d="M34.378,246.918l.12.322a14.574,14.574,0,0,1,1.955-.574l-.074-.336a14.829,14.829,0,0,0-2,.587" transform="translate(-22.554 -161.604)" fill="#c65d91"/>
            <path id="패스_55768" data-name="패스 55768" d="M72.472,322.374l.186.289a15.122,15.122,0,0,0,1.671-1.247l-.224-.261a14.74,14.74,0,0,1-1.633,1.218" transform="translate(-47.545 -210.693)" fill="#c65d91"/>
            <path id="패스_55769" data-name="패스 55769" d="M71.139,251.375a15.064,15.064,0,0,0-1.776-1.1l-.16.3a14.677,14.677,0,0,1,1.735,1.07Z" transform="translate(-45.401 -164.195)" fill="#c65d91"/>
            <path id="패스_55770" data-name="패스 55770" d="M61.743,328.269l.1.329a14.868,14.868,0,0,0,1.95-.739l-.144-.313a14.5,14.5,0,0,1-1.905.722" transform="translate(-40.506 -214.886)" fill="#c65d91"/>
            <path id="패스_55771" data-name="패스 55771" d="M50.061,331.117l0,.344a15,15,0,0,0,2.078-.171l-.052-.34a14.688,14.688,0,0,1-2.031.167" transform="translate(-32.842 -217.118)" fill="#c65d91"/>
            <path id="패스_55772" data-name="패스 55772" d="M60.145,246.775a14.852,14.852,0,0,0-2.01-.562l-.069.337a14.444,14.444,0,0,1,1.964.549Z" transform="translate(-38.094 -161.527)" fill="#c65d91"/>
            <path id="패스_55773" data-name="패스 55773" d="M91.685,289.952a14.637,14.637,0,0,1-.192,2.028l.339.056a14.953,14.953,0,0,0,.2-2.076Z" transform="translate(-60.024 -190.222)" fill="#c65d91"/>
            <path id="패스_55774" data-name="패스 55774" d="M80.458,258.867a15.134,15.134,0,0,0-1.408-1.538l-.237.249a14.756,14.756,0,0,1,1.376,1.5Z" transform="translate(-51.705 -168.819)" fill="#c65d91"/>
            <path id="패스_55775" data-name="패스 55775" d="M87.951,303.508l.311.148a14.908,14.908,0,0,0,.763-1.942l-.328-.1a14.5,14.5,0,0,1-.746,1.9" transform="translate(-57.7 -197.87)" fill="#c65d91"/>
            <path id="패스_55776" data-name="패스 55776" d="M48.28,245.358q-.469-.029-.945-.03-.575,0-1.14.043l.026.343q.552-.042,1.114-.042.465,0,.924.029Z" transform="translate(-30.306 -160.946)" fill="#c65d91"/>
            <path id="패스_55777" data-name="패스 55777" d="M87.4,268.656a14.933,14.933,0,0,0-.933-1.864l-.3.175a14.556,14.556,0,0,1,.911,1.821Z" transform="translate(-56.534 -175.028)" fill="#c65d91"/>
            <path id="패스_55778" data-name="패스 55778" d="M81.434,313.9l.258.227a15.072,15.072,0,0,0,1.268-1.656l-.287-.19a14.779,14.779,0,0,1-1.239,1.619" transform="translate(-53.424 -204.874)" fill="#c65d91"/>
            <path id="패스_55779" data-name="패스 55779" d="M31.83,328.089a14.856,14.856,0,0,0,1.961.714l.095-.331a14.575,14.575,0,0,1-1.916-.7Z" transform="translate(-20.882 -215.035)" fill="#c65d91"/>
            <path id="패스_55780" data-name="패스 55780" d="M9.06,269.148l.319.128a14.577,14.577,0,0,1,.889-1.835l-.3-.171a14.929,14.929,0,0,0-.91,1.877" transform="translate(-5.944 -175.342)" fill="#c65d91"/>
            <path id="패스_55781" data-name="패스 55781" d="M8.117,302.243a14.863,14.863,0,0,0,.788,1.931l.308-.152a14.556,14.556,0,0,1-.77-1.886Z" transform="translate(-5.325 -198.215)" fill="#c65d91"/>
            <path id="패스_55782" data-name="패스 55782" d="M6.33,290.5l-.344.013a15.006,15.006,0,0,0,.223,2.073l.339-.06A14.653,14.653,0,0,1,6.33,290.5" transform="translate(-3.927 -190.583)" fill="#c65d91"/>
            <path id="패스_55783" data-name="패스 55783" d="M13.458,312.93a15.037,15.037,0,0,0,1.288,1.64l.255-.231a14.73,14.73,0,0,1-1.259-1.6Z" transform="translate(-8.829 -205.17)" fill="#c65d91"/>
            <path id="패스_55784" data-name="패스 55784" d="M43.462,331.371a15.051,15.051,0,0,0,2.08.144v-.344a14.739,14.739,0,0,1-2.033-.14Z" transform="translate(-28.513 -217.171)" fill="#c65d91"/>
            <path id="패스_55785" data-name="패스 55785" d="M6.864,278.589l-.334-.082a14.874,14.874,0,0,0-.354,2.055l.342.034a14.514,14.514,0,0,1,.345-2.008" transform="translate(-4.052 -182.713)" fill="#c65d91"/>
            <path id="패스_55786" data-name="패스 55786" d="M91.421,280.009a14.93,14.93,0,0,0-.38-2.05l-.333.086a14.522,14.522,0,0,1,.371,2Z" transform="translate(-59.509 -182.354)" fill="#c65d91"/>
            <path id="패스_55787" data-name="패스 55787" d="M23.742,251.658l.2.277a14.67,14.67,0,0,1,1.72-1.091l-.164-.3a15.015,15.015,0,0,0-1.76,1.116" transform="translate(-15.576 -164.367)" fill="#c65d91"/>
            <path id="패스_55788" data-name="패스 55788" d="M21.57,321.769a15.073,15.073,0,0,0,1.687,1.226l.182-.291a14.724,14.724,0,0,1-1.649-1.2Z" transform="translate(-14.151 -210.922)" fill="#c65d91"/>
            <path id="패스_55789" data-name="패스 55789" d="M15.082,259.265l.272.211a14.787,14.787,0,0,1,1.358-1.52l-.24-.246a15.093,15.093,0,0,0-1.389,1.555" transform="translate(-9.894 -169.069)" fill="#c65d91"/>
            <path id="패스_55790" data-name="패스 55790" d="M1135.956,165.874a25.456,25.456,0,1,0,25.456,25.456,25.456,25.456,0,0,0-25.456-25.456M1157.638,187q.2,1.012.31,2.055l-.342.035q-.105-1.026-.305-2.023Zm-43.277-.413.336.074q-.218.993-.344,2.017l-.342-.042q.127-1.04.349-2.049m-.513,4.747q0-.314.009-.626l.344.01c-.005.2-.008.41-.008.616q0,.721.047,1.43l-.343.022q-.048-.72-.048-1.453m.706,5.552q-.259-1-.427-2.034l.339-.055q.164,1.018.42,2Zm1.078-14.253.316.136q-.4.937-.718,1.917l-.328-.105q.32-.995.729-1.947m.342,18.155q-.445-.936-.8-1.918l.323-.118q.352.966.79,1.888Zm.569-20.024q.5-.915,1.081-1.775l.285.192q-.572.847-1.065,1.748Zm1.557,23.591q-.612-.838-1.147-1.734l.3-.176q.525.881,1.129,1.707Zm1.033-26.814-.266-.218q.66-.8,1.393-1.543l.244.242Q1119.782,176.745,1119.132,177.538Zm1.72,29.924q-.759-.711-1.449-1.49l.258-.228q.679.767,1.427,1.467Zm.937-33.092q.8-.667,1.655-1.258l.2.283q-.844.581-1.63,1.239Zm2.345,35.636q-.879-.558-1.7-1.2l.211-.272q.808.627,1.674,1.177Zm1.075-37.992q.9-.505,1.861-.927l.139.315q-.94.414-1.832.913Zm2.624,39.88q-.97-.385-1.894-.856l.156-.307q.909.464,1.865.843Zm1.176-41.554q.981-.326,2-.56l.077.335q-1,.23-1.97.551Zm2.813,42.712q-1.028-.2-2.022-.484l.1-.33q.977.284,1.989.476Zm1.234-43.64q1.022-.135,2.071-.174l.013.344q-1.032.038-2.039.171Zm2.9,44.028q-1.05,0-2.076-.1l.032-.343q1.01.094,2.044.1.823,0,1.631-.061l.026.343q-.821.061-1.657.062m3.265-43.629q-1-.152-2.035-.21l.019-.343q1.047.059,2.067.213Zm.454,43.315-.058-.339q1.016-.173,2-.438l.09.332q-1,.269-2.03.445m3.511-42.325q-.96-.34-1.96-.59l.084-.334q1.014.253,1.99.6Zm.5,41.244-.121-.322q.963-.36,1.88-.807l.151.309q-.932.453-1.91.82m3.211-39.524q-.882-.515-1.814-.948l.145-.312q.946.439,1.843.962Zm.522,37.708-.179-.294q.876-.533,1.7-1.145l.205.276q-.832.62-1.723,1.163m2.8-35.325q-.772-.671-1.606-1.269h0l.2-.28q.846.607,1.631,1.289Zm.53,32.844-.23-.256q.761-.686,1.454-1.44l.253.233q-.7.766-1.477,1.463m.95-31.43.249-.237q.718.752,1.364,1.569l-.27.213q-.634-.8-1.342-1.545m1.861,28.374-.274-.208q.619-.813,1.161-1.685l.292.182q-.55.884-1.18,1.711m.673-25.165.289-.187q.564.871,1.047,1.8l-.3.159q-.475-.91-1.031-1.768m1.521,21.639-.308-.153q.455-.913.826-1.872l.321.124q-.376.974-.839,1.9m.37-18.015.319-.129q.39.958.691,1.96l-.329.1q-.3-.985-.681-1.929m1.124,14.14-.331-.093q.274-.98.458-1.994l.339.061q-.186,1.03-.465,2.026m.395-4.115q.076-.912.077-1.844c0-.067,0-.134,0-.2h0l.344,0q0,.1,0,.2,0,.946-.079,1.872Z" transform="translate(-728.538 -126.219)" fill="#8dce97"/>
            <path id="패스_55791" data-name="패스 55791" d="M1242,262.584q-.37.959-.825,1.873l.307.153q.463-.927.839-1.9Z" transform="translate(-814.268 -189.665)" fill="#428275"/>
            <path id="패스_55792" data-name="패스 55792" d="M1217.317,291.79l.179.294q.89-.542,1.723-1.163l-.205-.276q-.82.611-1.7,1.145" transform="translate(-798.615 -208.074)" fill="#428275"/>
            <path id="패스_55793" data-name="패스 55793" d="M1226.848,284.124l.23.256q.772-.7,1.477-1.463l-.253-.233q-.693.753-1.454,1.44" transform="translate(-804.868 -202.852)" fill="#428275"/>
            <path id="패스_55794" data-name="패스 55794" d="M1211.042,181.847q.932.432,1.814.948l.173-.3q-.9-.523-1.842-.963Z" transform="translate(-794.498 -136.493)" fill="#428275"/>
            <path id="패스_55795" data-name="패스 55795" d="M1221.308,187.9h0q.833.6,1.606,1.269l.226-.26q-.784-.682-1.631-1.289Z" transform="translate(-801.233 -140.488)" fill="#428275"/>
            <path id="패스_55796" data-name="패스 55796" d="M1206.629,297.633l.121.322q.977-.366,1.91-.82l-.15-.309q-.917.446-1.88.807" transform="translate(-791.603 -212.129)" fill="#428275"/>
            <path id="패스_55797" data-name="패스 55797" d="M1188.086,176.052q1.031.058,2.035.21l.051-.34q-1.019-.154-2.067-.214Z" transform="translate(-779.438 -132.671)" fill="#428275"/>
            <path id="패스_55798" data-name="패스 55798" d="M1199.836,177.848q1,.249,1.959.589l.115-.324q-.975-.344-1.991-.6Z" transform="translate(-787.147 -133.855)" fill="#428275"/>
            <path id="패스_55799" data-name="패스 55799" d="M1195.156,301.429l.058.339q1.032-.175,2.03-.445l-.089-.332q-.983.265-2,.438" transform="translate(-784.076 -214.862)" fill="#428275"/>
            <path id="패스_55800" data-name="패스 55800" d="M1243.466,215.722l-.319.13q.384.944.681,1.929l.33-.1q-.3-1-.692-1.96" transform="translate(-815.561 -158.922)" fill="#428275"/>
            <path id="패스_55801" data-name="패스 55801" d="M1247.784,239.3Z" transform="translate(-818.603 -174.39)" fill="#428275"/>
            <path id="패스_55802" data-name="패스 55802" d="M1247.982,239.291l-.344,0c0,.067,0,.134,0,.2q0,.931-.077,1.844l.342.029q.079-.927.079-1.873c0-.068,0-.136,0-.2" transform="translate(-818.457 -174.384)" fill="#428275"/>
            <path id="패스_55803" data-name="패스 55803" d="M1245.452,253.135l.331.093q.279-.995.465-2.026l-.339-.061q-.183,1.014-.458,1.994" transform="translate(-817.073 -182.158)" fill="#428275"/>
            <path id="패스_55804" data-name="패스 55804" d="M1234.9,274.907l.274.208q.628-.826,1.18-1.712l-.292-.182q-.542.871-1.162,1.685" transform="translate(-810.148 -196.644)" fill="#428275"/>
            <path id="패스_55805" data-name="패스 55805" d="M1180.55,302.979q-1.034,0-2.044-.1l-.032.343q1.025.1,2.076.1.836,0,1.656-.062l-.026-.343q-.807.06-1.631.061" transform="translate(-773.132 -216.104)" fill="#428275"/>
            <path id="패스_55806" data-name="패스 55806" d="M1230.528,195.545l-.249.237q.707.74,1.342,1.545l.27-.213q-.645-.817-1.363-1.569" transform="translate(-807.119 -145.685)" fill="#428275"/>
            <path id="패스_55807" data-name="패스 55807" d="M1237.938,205.019l-.289.187q.555.857,1.031,1.768l.305-.159q-.482-.924-1.047-1.8" transform="translate(-811.954 -151.9)" fill="#428275"/>
            <path id="패스_55808" data-name="패스 55808" d="M1178.15,175.651q-1.048.039-2.071.174l.045.341q1.007-.132,2.039-.171Z" transform="translate(-771.561 -132.633)" fill="#428275"/>
            <path id="패스_55809" data-name="패스 55809" d="M1129.146,203.993q-.581.86-1.082,1.775l.3.165q.493-.9,1.065-1.748Z" transform="translate(-740.062 -151.227)" fill="#428275"/>
            <path id="패스_55810" data-name="패스 55810" d="M1124.343,214.725l-.316-.136q-.409.951-.729,1.947l.328.105q.314-.979.718-1.917" transform="translate(-736.934 -158.178)" fill="#428275"/>
            <path id="패스_55811" data-name="패스 55811" d="M1136.216,194.663q-.732.738-1.393,1.543l.266.218q.649-.791,1.371-1.519Z" transform="translate(-744.495 -145.106)" fill="#428275"/>
            <path id="패스_55812" data-name="패스 55812" d="M1129.258,272.367q.533.895,1.147,1.734l.278-.2q-.6-.825-1.13-1.707Z" transform="translate(-740.844 -195.968)" fill="#428275"/>
            <path id="패스_55813" data-name="패스 55813" d="M1124.079,261.574q.357.981.8,1.918l.311-.148q-.437-.921-.79-1.888Z" transform="translate(-737.447 -188.925)" fill="#428275"/>
            <path id="패스_55814" data-name="패스 55814" d="M1121.045,250.008q.166,1.034.426,2.034l.333-.086q-.256-.984-.42-2Z" transform="translate(-735.456 -181.379)" fill="#428275"/>
            <path id="패스_55815" data-name="패스 55815" d="M1121.393,226.158l-.336-.074q-.221,1.008-.349,2.049l.342.042q.125-1.024.344-2.017" transform="translate(-735.235 -165.72)" fill="#428275"/>
            <path id="패스_55816" data-name="패스 55816" d="M1120.576,238.691q0-.309.008-.616l-.344-.01q-.008.312-.009.625,0,.732.047,1.453l.343-.022q-.046-.709-.046-1.43" transform="translate(-734.923 -173.58)" fill="#428275"/>
            <path id="패스_55817" data-name="패스 55817" d="M1155.125,181.029q-.955.42-1.86.927l.167.3q.892-.5,1.832-.913Z" transform="translate(-756.594 -136.161)" fill="#428275"/>
            <path id="패스_55818" data-name="패스 55818" d="M1155.387,296.593q.924.471,1.895.856l.127-.32q-.956-.379-1.865-.843Z" transform="translate(-757.986 -211.776)" fill="#428275"/>
            <path id="패스_55819" data-name="패스 55819" d="M1166.314,177.228q-1.019.234-2,.56l.108.326q.966-.32,1.97-.551Z" transform="translate(-763.842 -133.668)" fill="#428275"/>
            <path id="패스_55820" data-name="패스 55820" d="M1136.641,281.787l-.258.228q.69.778,1.449,1.49l.235-.251q-.747-.7-1.427-1.467" transform="translate(-745.519 -202.263)" fill="#428275"/>
            <path id="패스_55821" data-name="패스 55821" d="M1166.614,301q.993.288,2.021.484l.064-.338q-1.012-.192-1.99-.477Z" transform="translate(-765.351 -214.649)" fill="#428275"/>
            <path id="패스_55822" data-name="패스 55822" d="M1144.976,186.915q-.857.591-1.655,1.258l.221.264q.785-.656,1.629-1.238Z" transform="translate(-750.07 -140.023)" fill="#428275"/>
            <path id="패스_55823" data-name="패스 55823" d="M1145.2,290.187q.821.636,1.7,1.2l.184-.29q-.865-.55-1.674-1.177Z" transform="translate(-751.3 -207.596)" fill="#428275"/>
            <path id="패스_55824" data-name="패스 55824" d="M1247.213,229.339q-.107-1.043-.31-2.055l-.338.067q.2,1,.305,2.023Z" transform="translate(-817.804 -166.507)" fill="#428275"/>
            <path id="패스_55825" data-name="패스 55825" d="M969.139,0a22.8,22.8,0,1,0,22.8,22.8A22.8,22.8,0,0,0,969.139,0M949.768,18.588l.336.073a19.346,19.346,0,0,0-.328,2.017l-.342-.037a19.669,19.669,0,0,1,.334-2.053m-.451,4.216v-.086l.344,0V22.8a19.572,19.572,0,0,0,.1,1.957l-.343.034q-.1-.983-.1-1.991m.947,6.059a19.588,19.588,0,0,1-.531-2.011l.337-.07a19.274,19.274,0,0,0,.522,1.976Zm.053-12.282a19.734,19.734,0,0,1,.758-1.938l.314.142a19.312,19.312,0,0,0-.745,1.9Zm1.629,16.08A19.762,19.762,0,0,1,951,30.806l.314-.139a19.571,19.571,0,0,0,.925,1.823Zm.384-19.691-.3-.174a19.785,19.785,0,0,1,1.146-1.736l.276.2a19.6,19.6,0,0,0-1.126,1.706m2.053,23.056a19.85,19.85,0,0,1-1.307-1.619l.279-.2a19.706,19.706,0,0,0,1.284,1.591Zm.371-26.342-.254-.232a19.967,19.967,0,0,1,1.48-1.461l.228.257a19.614,19.614,0,0,0-1.455,1.436m2.71,29.13a19.957,19.957,0,0,1-1.613-1.314l.231-.255a19.571,19.571,0,0,0,1.585,1.291ZM957.6,6.691a19.972,19.972,0,0,1,1.751-1.123l.17.3a19.5,19.5,0,0,0-1.721,1.1ZM961.057,40.9a19.75,19.75,0,0,1-1.852-.95l.173-.3a19.446,19.446,0,0,0,1.819.934Zm.157-36.268a19.637,19.637,0,0,1,1.947-.733l.1.328a19.248,19.248,0,0,0-1.913.72Zm3.793,37.558A19.6,19.6,0,0,1,963,41.652l.107-.327a19.315,19.315,0,0,0,1.974.531Zm.237-38.476-.069-.337a19.755,19.755,0,0,1,2.057-.307l.033.343A19.332,19.332,0,0,0,965.244,3.716Zm3.895,38.91a19.927,19.927,0,0,1-2.077-.108l.036-.342a19.533,19.533,0,0,0,2.041.106Zm18.927-25.718a19.662,19.662,0,0,1,.514,2.016l-.337.067a19.375,19.375,0,0,0-.505-1.98Zm-1.65-3.813a19.667,19.667,0,0,1,.926,1.863l-.316.137a19.4,19.4,0,0,0-.909-1.831h0ZM969.31,2.982a19.883,19.883,0,0,1,2.076.126l-.038.342a19.488,19.488,0,0,0-2.04-.124Zm1.565,39.569-.03-.343a19.5,19.5,0,0,0,2.024-.284l.065.338a19.794,19.794,0,0,1-2.06.289m2.563-39.1a19.564,19.564,0,0,1,2,.558l-.109.326a19.276,19.276,0,0,0-1.97-.548Zm1.515,38.305-.1-.329a19.2,19.2,0,0,0,1.919-.7l.135.316a19.71,19.71,0,0,1-1.953.715m2.424-36.981a19.838,19.838,0,0,1,1.843.966l-.175.3a19.3,19.3,0,0,0-1.811-.949Zm1.4,35.348-.168-.3a19.6,19.6,0,0,0,1.73-1.089l.2.281a19.975,19.975,0,0,1-1.76,1.108m2.179-33.228a19.931,19.931,0,0,1,1.6,1.328l-.233.253a19.7,19.7,0,0,0-1.574-1.3Zm1.217,30.835-.226-.259a19.639,19.639,0,0,0,1.467-1.424l.252.234a20.059,20.059,0,0,1-1.493,1.449m1.582-27.794.258-.227a20.118,20.118,0,0,1,1.293,1.63l-.28.2a19.64,19.64,0,0,0-1.271-1.6ZM985,34.685l-.275-.207a19.6,19.6,0,0,0,1.141-1.7l.3.177A20.032,20.032,0,0,1,985,34.685m2.135-3.565-.312-.145a19.237,19.237,0,0,0,.761-1.9l.325.111a19.684,19.684,0,0,1-.775,1.931m1.341-3.933-.335-.076a19.39,19.39,0,0,0,.346-2.015l.341.04a19.721,19.721,0,0,1-.352,2.05m.143-4.13c0-.084,0-.168,0-.252q0-.905-.082-1.79l.343-.031q.082.9.083,1.822,0,.128,0,.257Z" transform="translate(-620.839)" fill="#feb59f"/>
            <path id="패스_55826" data-name="패스 55826" d="M971.553,23.231a19.925,19.925,0,0,0-1.481,1.461l.254.232a19.681,19.681,0,0,1,1.455-1.436Z" transform="translate(-636.411 -15.241)" fill="#c65d5d"/>
            <path id="패스_55827" data-name="패스 55827" d="M1038.155,14.848a19.923,19.923,0,0,0-1.843-.966l-.144.313a19.4,19.4,0,0,1,1.811.949Z" transform="translate(-679.774 -9.107)" fill="#c65d5d"/>
            <path id="패스_55828" data-name="패스 55828" d="M1048.188,21.373a19.912,19.912,0,0,0-1.6-1.328l-.205.276a19.65,19.65,0,0,1,1.574,1.3Z" transform="translate(-686.473 -13.15)" fill="#c65d5d"/>
            <path id="패스_55829" data-name="패스 55829" d="M1029.244,119.1l.1.329a19.744,19.744,0,0,0,1.953-.716l-.135-.316a19.4,19.4,0,0,1-1.919.7" transform="translate(-675.231 -77.675)" fill="#c65d5d"/>
            <path id="패스_55830" data-name="패스 55830" d="M1040.156,113.7l.168.3a19.946,19.946,0,0,0,1.76-1.108l-.2-.281a19.569,19.569,0,0,1-1.73,1.089" transform="translate(-682.389 -73.879)" fill="#c65d5d"/>
            <path id="패스_55831" data-name="패스 55831" d="M1027,10.59a19.559,19.559,0,0,0-2-.558l-.075.336a19.293,19.293,0,0,1,1.97.548Z" transform="translate(-672.391 -6.581)" fill="#c65d5d"/>
            <path id="패스_55832" data-name="패스 55832" d="M1015.2,8.795a19.88,19.88,0,0,0-2.076-.126l0,.344a19.485,19.485,0,0,1,2.04.124Z" transform="translate(-664.655 -5.687)" fill="#c65d5d"/>
            <path id="패스_55833" data-name="패스 55833" d="M1017.594,122.17l.03.343a19.8,19.8,0,0,0,2.06-.289l-.065-.338a19.406,19.406,0,0,1-2.024.284" transform="translate(-667.588 -79.963)" fill="#c65d5d"/>
            <path id="패스_55834" data-name="패스 55834" d="M1062.9,40.07l.316-.137a19.72,19.72,0,0,0-.925-1.863l-.3.169h0a19.4,19.4,0,0,1,.909,1.83" transform="translate(-696.716 -24.976)" fill="#c65d5d"/>
            <path id="패스_55835" data-name="패스 55835" d="M1064.037,86.436l.312.145a19.657,19.657,0,0,0,.775-1.931l-.325-.111a19.312,19.312,0,0,1-.761,1.9" transform="translate(-698.056 -55.461)" fill="#c65d5d"/>
            <path id="패스_55836" data-name="패스 55836" d="M1067.87,74.977l.335.076a19.8,19.8,0,0,0,.352-2.05l-.342-.04a19.407,19.407,0,0,1-.346,2.015" transform="translate(-700.571 -47.866)" fill="#c65d5d"/>
            <path id="패스_55837" data-name="패스 55837" d="M1069.369,61l-.342.031q.081.885.081,1.79,0,.126,0,.252l.344,0c0-.086,0-.171,0-.257q0-.921-.083-1.822" transform="translate(-701.33 -40.02)" fill="#c65d5d"/>
            <path id="패스_55838" data-name="패스 55838" d="M1057.937,97l.275.207a19.936,19.936,0,0,0,1.161-1.727l-.3-.177a19.574,19.574,0,0,1-1.141,1.7" transform="translate(-694.055 -62.526)" fill="#c65d5d"/>
            <path id="패스_55839" data-name="패스 55839" d="M1049.858,106.225l.226.259a19.92,19.92,0,0,0,1.493-1.449l-.252-.234a19.726,19.726,0,0,1-1.468,1.424" transform="translate(-688.754 -68.754)" fill="#c65d5d"/>
            <path id="패스_55840" data-name="패스 55840" d="M1056.666,29.857a20.006,20.006,0,0,0-1.293-1.63l-.258.227h0a19.571,19.571,0,0,1,1.27,1.6Z" transform="translate(-692.203 -18.518)" fill="#c65d5d"/>
            <path id="패스_55841" data-name="패스 55841" d="M994.779,120.475a19.669,19.669,0,0,0,2.009.54l.072-.336a19.308,19.308,0,0,1-1.974-.531Z" transform="translate(-652.62 -78.823)" fill="#c65d5d"/>
            <path id="패스_55842" data-name="패스 55842" d="M959.911,89.3a19.643,19.643,0,0,0,.941,1.855l.3-.171a19.467,19.467,0,0,1-.925-1.823Z" transform="translate(-629.745 -58.493)" fill="#c65d5d"/>
            <path id="패스_55843" data-name="패스 55843" d="M1067.549,51.172a19.661,19.661,0,0,0-.514-2.016l-.328.1a19.407,19.407,0,0,1,.505,1.98Z" transform="translate(-699.808 -32.249)" fill="#c65d5d"/>
            <path id="패스_55844" data-name="패스 55844" d="M965.934,99.65a19.965,19.965,0,0,0,1.307,1.619l.256-.229a19.689,19.689,0,0,1-1.284-1.591Z" transform="translate(-633.697 -65.242)" fill="#c65d5d"/>
            <path id="패스_55845" data-name="패스 55845" d="M974,108.54a20.1,20.1,0,0,0,1.613,1.314l.2-.278a19.64,19.64,0,0,1-1.585-1.291Z" transform="translate(-638.988 -71.04)" fill="#c65d5d"/>
            <path id="패스_55846" data-name="패스 55846" d="M955.347,66.134V66.05l-.344,0v.086q0,1.008.1,1.992l.343-.034a19.591,19.591,0,0,1-.1-1.957" transform="translate(-626.525 -43.33)" fill="#c65d5d"/>
            <path id="패스_55847" data-name="패스 55847" d="M956.211,77.932a19.6,19.6,0,0,0,.531,2.011l.328-.105a19.3,19.3,0,0,1-.522-1.976Z" transform="translate(-627.318 -51.081)" fill="#c65d5d"/>
            <path id="패스_55848" data-name="패스 55848" d="M958.67,42.572a19.718,19.718,0,0,0-.758,1.938l.326.108a19.388,19.388,0,0,1,.745-1.9Z" transform="translate(-628.434 -27.929)" fill="#c65d5d"/>
            <path id="패스_55849" data-name="패스 55849" d="M964.047,32.153a19.881,19.881,0,0,0-1.146,1.736l.3.174a19.525,19.525,0,0,1,1.126-1.706Z" transform="translate(-631.707 -21.094)" fill="#c65d5d"/>
            <path id="패스_55850" data-name="패스 55850" d="M1003.166,8.932a19.849,19.849,0,0,0-2.057.307l.069.337h0a19.409,19.409,0,0,1,2.021-.3Z" transform="translate(-656.773 -5.86)" fill="#c65d5d"/>
            <path id="패스_55851" data-name="패스 55851" d="M980.85,16.188a19.893,19.893,0,0,0-1.751,1.123l.2.28a19.554,19.554,0,0,1,1.721-1.1Z" transform="translate(-642.333 -10.62)" fill="#c65d5d"/>
            <path id="패스_55852" data-name="패스 55852" d="M1006.594,122.961a20.022,20.022,0,0,0,2.077.108v-.344a19.628,19.628,0,0,1-2.041-.106Z" transform="translate(-660.371 -80.444)" fill="#c65d5d"/>
            <path id="패스_55853" data-name="패스 55853" d="M956.014,54.115l-.336-.073a19.663,19.663,0,0,0-.334,2.053l.342.037a19.427,19.427,0,0,1,.328-2.017" transform="translate(-626.749 -35.454)" fill="#c65d5d"/>
            <path id="패스_55854" data-name="패스 55854" d="M991.54,11.344a19.735,19.735,0,0,0-1.947.733l.138.315a19.321,19.321,0,0,1,1.913-.72Z" transform="translate(-649.218 -7.442)" fill="#c65d5d"/>
            <path id="패스_55855" data-name="패스 55855" d="M983.753,115.589a19.7,19.7,0,0,0,1.851.95l.141-.314a19.433,19.433,0,0,1-1.819-.934Z" transform="translate(-645.386 -75.636)" fill="#c65d5d"/>
            <path id="패스_55856" data-name="패스 55856" d="M291.955,81.874a25.456,25.456,0,1,0,25.456,25.456,25.456,25.456,0,0,0-25.456-25.456M313.637,103q.2,1.012.31,2.055l-.342.035q-.106-1.026-.305-2.023ZM297.31,85.878q1.014.253,1.991.6l-.115.324q-.96-.339-1.959-.59Zm-4.105-.621q1.047.059,2.067.213l-.051.34q-1-.152-2.035-.21Zm-2.079-.02.013.344q-1.032.038-2.039.171l-.045-.341q1.021-.135,2.071-.174m-4.116.542.077.335q-1,.23-1.97.551l-.108-.326q.981-.326,2-.56m-16.651,16.8.336.074q-.218.993-.344,2.017l-.341-.042q.127-1.04.349-2.049m-.513,4.747q0-.314.009-.626l.344.01q-.009.307-.009.616,0,.721.046,1.43l-.343.022q-.047-.72-.047-1.453m.706,5.552q-.26-1-.426-2.035l.339-.054q.164,1.017.42,2Zm1.078-14.253.316.136q-.4.936-.718,1.917l-.327-.106q.32-.994.73-1.947m.341,18.155q-.445-.936-.8-1.918l.323-.118q.351.966.79,1.887Zm.569-20.024q.5-.915,1.081-1.775l.285.193q-.572.847-1.065,1.748Zm1.557,23.591q-.612-.838-1.147-1.734l.3-.176q.525.881,1.129,1.707Zm.767-27.033q.66-.8,1.393-1.543l.244.242q-.72.727-1.371,1.52Zm1.986,30.142q-.759-.711-1.449-1.49l.258-.228q.679.766,1.427,1.467Zm.937-33.092q.8-.667,1.655-1.258l.2.283q-.844.581-1.629,1.239Zm2.345,35.636q-.879-.559-1.7-1.2l.21-.271q.808.626,1.674,1.177Zm1.075-37.992q.905-.505,1.86-.927l.139.315q-.94.414-1.832.913Zm2.624,39.879q-.97-.384-1.895-.856l.157-.306q.909.463,1.865.843Zm3.988,1.158q-1.028-.2-2.021-.484l.1-.33q.977.284,1.99.476Zm4.134.388q-1.05,0-2.076-.1l.032-.343q1.009.094,2.044.1.822,0,1.631-.061l.025.343q-.82.061-1.656.062m3.719-.313-.057-.339q1.015-.173,2-.438l.089.332q-1,.269-2.03.445m4.01-1.081-.121-.322q.963-.36,1.88-.807l.151.309q-.932.453-1.91.82m-3.519-14.22-.885,4.637a.357.357,0,0,1-.068.2,1.154,1.154,0,0,1,.569.894,1.106,1.106,0,0,1-.5.84,1.106,1.106,0,0,1,.5.84,1.128,1.128,0,0,1-.528.863,1.127,1.127,0,0,1,.528.863c0,.692-.918,1.286-2.227,1.542a1.678,1.678,0,0,1-2.827.007c-1.331-.251-2.268-.85-2.268-1.549a1.127,1.127,0,0,1,.528-.863,1.129,1.129,0,0,1-.528-.863,1.106,1.106,0,0,1,.5-.84,1.106,1.106,0,0,1-.5-.84,1.172,1.172,0,0,1,.594-.913.431.431,0,0,1-.094-.185l-.885-4.637a9.6,9.6,0,1,1,8.092,0m6.731-25.3q-.882-.514-1.814-.948l.145-.312q.946.439,1.843.963Zm.522,37.708-.179-.294q.876-.533,1.7-1.145l.206.276q-.833.621-1.723,1.163m2.8-35.325q-.772-.671-1.605-1.27l.2-.279q.846.607,1.631,1.289Zm.53,32.843-.23-.255q.76-.686,1.454-1.44l.253.233q-.7.765-1.477,1.462m.95-31.43.249-.237q.717.752,1.363,1.569l-.27.213q-.635-.8-1.342-1.545m1.861,28.374-.274-.208q.619-.814,1.162-1.685l.292.182q-.551.884-1.18,1.712m.673-25.165h0l.289-.187q.565.87,1.047,1.8l-.305.159q-.475-.91-1.031-1.768m1.521,21.639-.308-.153q.455-.913.826-1.872l.321.124q-.376.974-.839,1.9m.37-18.015.319-.13q.39.959.692,1.96l-.33.1q-.3-.985-.681-1.929m1.124,14.14-.331-.093q.274-.979.458-1.994l.338.061q-.186,1.03-.465,2.026m.395-4.115q.077-.912.077-1.844c0-.067,0-.134,0-.2l.344,0c0,.068,0,.136,0,.2q0,.946-.079,1.873Z" transform="translate(-174.835 -61.713)" fill="#9aa2ef"/>
            <path id="패스_55857" data-name="패스 55857" d="M373.315,207.791l.179.294q.89-.541,1.723-1.163l-.205-.276q-.82.611-1.7,1.145" transform="translate(-244.912 -143.569)" fill="#4282b8"/>
            <path id="패스_55858" data-name="패스 55858" d="M336.55,218.979q-1.033,0-2.044-.1l-.032.343q1.025.1,2.076.1.836,0,1.656-.062l-.025-.343q-.807.06-1.631.061" transform="translate(-219.43 -151.598)" fill="#4282b8"/>
            <path id="패스_55859" data-name="패스 55859" d="M377.309,103.9q.833.6,1.606,1.269l.226-.26q-.784-.682-1.631-1.289Z" transform="translate(-247.532 -75.982)" fill="#4282b8"/>
            <path id="패스_55860" data-name="패스 55860" d="M351.155,217.43l.057.339q1.032-.175,2.03-.445l-.089-.332q-.982.265-2,.438" transform="translate(-230.374 -150.357)" fill="#4282b8"/>
            <path id="패스_55861" data-name="패스 55861" d="M362.628,213.633l.121.322q.977-.366,1.91-.82l-.15-.309q-.917.446-1.88.807" transform="translate(-237.9 -147.623)" fill="#4282b8"/>
            <path id="패스_55862" data-name="패스 55862" d="M367.043,97.847h0q.931.431,1.814.947l.174-.3q-.9-.523-1.843-.963Z" transform="translate(-240.797 -71.987)" fill="#4282b8"/>
            <path id="패스_55863" data-name="패스 55863" d="M397.175,180.457l.308.153q.462-.927.839-1.9l-.321-.124q-.37.959-.826,1.872" transform="translate(-260.565 -125.16)" fill="#4282b8"/>
            <path id="패스_55864" data-name="패스 55864" d="M401.451,169.137l.331.093q.279-1,.465-2.026l-.338-.061q-.183,1.014-.458,1.994" transform="translate(-263.37 -117.653)" fill="#4282b8"/>
            <path id="패스_55865" data-name="패스 55865" d="M399.466,131.723l-.319.13q.384.944.681,1.929l.33-.1q-.3-1-.692-1.96" transform="translate(-261.858 -94.416)" fill="#4282b8"/>
            <path id="패스_55866" data-name="패스 55866" d="M403.981,155.292l-.344,0c0,.067,0,.134,0,.2q0,.932-.077,1.844l.343.029q.078-.927.079-1.873c0-.068,0-.136,0-.2" transform="translate(-264.754 -109.879)" fill="#4282b8"/>
            <path id="패스_55867" data-name="패스 55867" d="M386.529,111.545l-.249.237q.707.74,1.342,1.545l.27-.213q-.645-.816-1.363-1.569" transform="translate(-253.417 -81.179)" fill="#4282b8"/>
            <path id="패스_55868" data-name="패스 55868" d="M382.847,200.125l.23.255q.772-.7,1.477-1.462l-.253-.233q-.693.753-1.454,1.44" transform="translate(-251.165 -138.346)" fill="#4282b8"/>
            <path id="패스_55869" data-name="패스 55869" d="M390.895,190.908l.274.208q.628-.826,1.18-1.712l-.292-.182q-.542.871-1.162,1.685" transform="translate(-256.445 -132.139)" fill="#4282b8"/>
            <path id="패스_55870" data-name="패스 55870" d="M393.938,121.02l-.289.187q.555.857,1.031,1.768l.3-.159q-.482-.924-1.047-1.8" transform="translate(-258.252 -87.395)" fill="#4282b8"/>
            <path id="패스_55871" data-name="패스 55871" d="M292.641,197.786l-.258.228q.689.779,1.449,1.49l.235-.251q-.747-.7-1.427-1.467" transform="translate(-191.816 -137.757)" fill="#4282b8"/>
            <path id="패스_55872" data-name="패스 55872" d="M277.045,166.008q.166,1.034.426,2.034l.333-.086q-.256-.984-.42-2Z" transform="translate(-181.754 -116.873)" fill="#4282b8"/>
            <path id="패스_55873" data-name="패스 55873" d="M357.911,94.112q-.976-.345-1.991-.6l-.083.334q1,.25,1.96.59Z" transform="translate(-233.445 -69.349)" fill="#4282b8"/>
            <path id="패스_55874" data-name="패스 55874" d="M403.212,145.339q-.107-1.043-.31-2.055l-.337.067q.2,1,.305,2.023Z" transform="translate(-264.101 -102.001)" fill="#4282b8"/>
            <path id="패스_55875" data-name="패스 55875" d="M285.258,188.367q.533.895,1.147,1.734l.278-.2q-.6-.825-1.129-1.707Z" transform="translate(-187.142 -131.462)" fill="#4282b8"/>
            <path id="패스_55876" data-name="패스 55876" d="M285.146,119.993q-.581.86-1.082,1.775l.3.165q.492-.9,1.065-1.748Z" transform="translate(-186.359 -86.721)" fill="#4282b8"/>
            <path id="패스_55877" data-name="패스 55877" d="M280.344,130.725l-.316-.136q-.409.951-.729,1.947l.327.105q.314-.979.718-1.917" transform="translate(-183.233 -93.672)" fill="#4282b8"/>
            <path id="패스_55878" data-name="패스 55878" d="M346.122,92.262l.051-.34q-1.019-.154-2.067-.213l-.019.343q1.031.058,2.035.21" transform="translate(-225.737 -68.165)" fill="#4282b8"/>
            <path id="패스_55879" data-name="패스 55879" d="M277.393,142.158l-.336-.074q-.221,1.008-.349,2.049l.341.042q.125-1.024.344-2.017" transform="translate(-181.533 -101.214)" fill="#4282b8"/>
            <path id="패스_55880" data-name="패스 55880" d="M322.392,93.562l-.077-.335q-1.019.234-2,.56l.108.327q.966-.321,1.971-.552" transform="translate(-210.14 -69.161)" fill="#4282b8"/>
            <path id="패스_55881" data-name="패스 55881" d="M334.164,91.995l-.013-.344q-1.048.039-2.071.174l.045.341q1.006-.133,2.039-.171" transform="translate(-217.859 -68.127)" fill="#4282b8"/>
            <path id="패스_55882" data-name="패스 55882" d="M280.079,177.573q.356.981.8,1.918l.311-.148q-.438-.921-.789-1.888Z" transform="translate(-183.745 -124.418)" fill="#4282b8"/>
            <path id="패스_55883" data-name="패스 55883" d="M301.2,206.186q.82.636,1.7,1.2l.184-.29q-.865-.55-1.674-1.177Z" transform="translate(-197.598 -143.089)" fill="#4282b8"/>
            <path id="패스_55884" data-name="패스 55884" d="M292.216,110.662q-.732.738-1.393,1.543l.266.218q.65-.791,1.371-1.519Z" transform="translate(-190.793 -80.599)" fill="#4282b8"/>
            <path id="패스_55885" data-name="패스 55885" d="M311.387,212.593q.924.471,1.894.856l.127-.32q-.955-.379-1.865-.843Z" transform="translate(-204.284 -147.27)" fill="#4282b8"/>
            <path id="패스_55886" data-name="패스 55886" d="M300.978,102.915q-.857.591-1.655,1.258l.22.264q.785-.656,1.629-1.239Z" transform="translate(-196.369 -75.517)" fill="#4282b8"/>
            <path id="패스_55887" data-name="패스 55887" d="M311.125,97.029q-.954.42-1.86.927l.168.3q.891-.5,1.831-.913Z" transform="translate(-202.892 -71.655)" fill="#4282b8"/>
            <path id="패스_55888" data-name="패스 55888" d="M276.576,154.691q0-.309.009-.616l-.344-.01q-.009.312-.009.626,0,.732.047,1.453l.343-.022q-.046-.709-.046-1.43" transform="translate(-181.221 -109.074)" fill="#4282b8"/>
            <path id="패스_55889" data-name="패스 55889" d="M322.613,217q.993.288,2.021.484l.064-.338q-1.012-.192-1.99-.477Z" transform="translate(-211.649 -150.143)" fill="#4282b8"/>
            <path id="패스_55890" data-name="패스 55890" d="M336.936,205.829a1.677,1.677,0,0,0,2.826-.007,7.756,7.756,0,0,1-2.826.007" transform="translate(-221.045 -143.029)" fill="gray"/>
            <path id="패스_55891" data-name="패스 55891" d="M335.727,189.41l-.013.112-.46-.051c-.329.032-.708.053-1.16.053a11.347,11.347,0,0,1-1.451-.083l-.383.042-.012-.1a2.109,2.109,0,0,1-1.314-.6,1.173,1.173,0,0,0-.594.913.958.958,0,0,1,0,1.68.97.97,0,0,1,0,1.727c0,.7.938,1.3,2.268,1.549a7.755,7.755,0,0,0,2.826-.007c1.309-.255,2.228-.849,2.228-1.542a.97.97,0,0,1,0-1.727.958.958,0,0,1,0-1.68,1.155,1.155,0,0,0-.568-.893c-.12.187-.456.456-1.367.607" transform="translate(-216.718 -131.851)" fill="#b3b3b3"/>
            <path id="패스_55892" data-name="패스 55892" d="M322.674,121.546a9.6,9.6,0,0,0-4.046,18.3l.885,4.637a.431.431,0,0,0,.094.185,2.108,2.108,0,0,0,1.314.6l-.94-8.537a1.251,1.251,0,0,1-.007-.128,1.078,1.078,0,0,1,.315-.768,1.1,1.1,0,0,1,.777-.315h3.189a1.094,1.094,0,0,1,.778.315,1.08,1.08,0,0,1,.315.769,1.231,1.231,0,0,1-.007.127l-.94,8.568c.911-.151,1.248-.42,1.367-.607a.36.36,0,0,0,.068-.2l.885-4.637a9.6,9.6,0,0,0-4.046-18.3" transform="translate(-205.391 -87.74)" fill="#fff"/>
            <path id="패스_55893" data-name="패스 55893" d="M339.128,164.623l0-.052a.391.391,0,0,0-.112-.282.406.406,0,0,0-.292-.114h-3.189a.405.405,0,0,0-.292.114.39.39,0,0,0-.112.281l0,.053.952,8.642-.3.033a11.4,11.4,0,0,0,1.451.083c.452,0,.831-.021,1.16-.053l-.224-.024Z" transform="translate(-219.862 -115.706)" fill="#fff"/>
            <path id="패스_55894" data-name="패스 55894" d="M334.475,171.985l.3-.033-.952-8.642,0-.053a.389.389,0,0,1,.112-.281.4.4,0,0,1,.292-.114h3.189a.4.4,0,0,1,.292.115.39.39,0,0,1,.112.281l0,.053-.952,8.68.224.024.461.051.012-.112.94-8.568a1.223,1.223,0,0,0,.007-.127,1.08,1.08,0,0,0-.315-.769,1.1,1.1,0,0,0-.778-.315h-3.189a1.1,1.1,0,0,0-.777.315,1.078,1.078,0,0,0-.314.768,1.148,1.148,0,0,0,.007.128l.94,8.537.011.1Z" transform="translate(-218.55 -114.393)" fill="#84b8d4"/>
            <path id="패스_55895" data-name="패스 55895" d="M338.311,101.747c0-.244.288-.442.645-.442h.034c.356,0,.645.2.645.441l0,3.724c0,.244-.288.442-.645.442h-.034c-.357,0-.645-.2-.646-.441Z" transform="translate(-221.947 -74.461)" fill="#f9ea9c"/>
            <path id="패스_55896" data-name="패스 55896" d="M323.887,105.845c-.14-.2-.017-.528.275-.732l.028-.02c.292-.2.642-.208.782-.009l2.138,3.048c.14.2.017.527-.275.731l-.027.02c-.292.205-.642.209-.782.009Z" transform="translate(-212.447 -76.844)" fill="#f9ea9c"/>
            <path id="패스_55897" data-name="패스 55897" d="M350.471,105.845c.14-.2.017-.528-.275-.732l-.028-.02c-.292-.2-.642-.208-.782-.009l-2.138,3.048c-.14.2-.017.527.275.731l.027.02c.292.205.642.209.782.009Z" transform="translate(-227.773 -76.844)" fill="#f9ea9c"/>
            <path id="패스_55898" data-name="패스 55898" d="M642.062,151.534a18.921,18.921,0,1,1-18.921-18.921,18.921,18.921,0,0,1,18.921,18.921" transform="translate(-397.396 -85)" fill="#ebc255"/>
            <path id="패스_55899" data-name="패스 55899" d="M629.829,172.545q-.71.064-1.436.065a15.9,15.9,0,0,1-2.035-.13l-.044.341a16.207,16.207,0,0,0,2.079.133q.741,0,1.467-.066Zm3.972-.887a15.748,15.748,0,0,1-1.957.573l.075.336a16.071,16.071,0,0,0,2-.585Zm3.612-1.877a15.884,15.884,0,0,1-1.745,1.055l.159.305a16.2,16.2,0,0,0,1.782-1.078Zm3.016-2.733a15.985,15.985,0,0,1-1.421,1.464l.231.255a16.267,16.267,0,0,0,1.452-1.5Zm2.226-3.41a15.956,15.956,0,0,1-1,1.777l.288.188a16.154,16.154,0,0,0,1.025-1.815Zm1.279-3.867a15.691,15.691,0,0,1-.514,1.975l.326.108a15.963,15.963,0,0,0,.525-2.018Zm.246-4.063q.036.534.036,1.078,0,.484-.029.962l.343.02q.029-.488.03-.982,0-.555-.037-1.1Zm-.8-3.991a15.621,15.621,0,0,1,.528,1.97l.337-.067a16,16,0,0,0-.54-2.013l-.326.11Zm-1.794-3.653a15.8,15.8,0,0,1,1.015,1.768l.309-.152a16.108,16.108,0,0,0-1.037-1.806Zm-2.665-3.077a15.909,15.909,0,0,1,1.431,1.454l.26-.225a16.318,16.318,0,0,0-1.462-1.485Zm-3.358-2.3a15.822,15.822,0,0,1,1.753,1.043l.195-.284a16.2,16.2,0,0,0-1.791-1.066Zm-3.837-1.367a15.643,15.643,0,0,1,1.963.559l.115-.324a16.064,16.064,0,0,0-2.006-.571Zm-4.056-.338q.357-.016.719-.016.667,0,1.32.055l.029-.343q-.667-.055-1.349-.056-.369,0-.735.017Zm-4.009.705a15.685,15.685,0,0,1,1.981-.483l-.059-.339a16.044,16.044,0,0,0-2.025.493Zm-3.693,1.71a15.806,15.806,0,0,1,1.79-.975l-.144-.312a16.06,16.06,0,0,0-1.829,1Zm-3.136,2.594a15.925,15.925,0,0,1,1.485-1.4l-.219-.265a16.323,16.323,0,0,0-1.517,1.428Zm-2.378,3.305a15.862,15.862,0,0,1,1.083-1.729l-.279-.2a16.234,16.234,0,0,0-1.107,1.767l.3.163ZM613,153.1a15.591,15.591,0,0,1,.6-1.95l-.321-.123a16.027,16.027,0,0,0-.617,1.992Zm-.43,4.048q0-.18,0-.36a15.893,15.893,0,0,1,.088-1.677l-.342-.036a16.327,16.327,0,0,0-.09,1.714q0,.184,0,.368Zm.613,4.024a15.734,15.734,0,0,1-.437-1.992l-.34.052a16.013,16.013,0,0,0,.447,2.036Zm1.626,3.73a15.741,15.741,0,0,1-.934-1.812l-.315.138a16.168,16.168,0,0,0,.954,1.852Zm2.523,3.194a15.927,15.927,0,0,1-1.364-1.516l-.27.214a16.294,16.294,0,0,0,1.393,1.549Zm3.251,2.452a15.877,15.877,0,0,1-1.7-1.122l-.207.274a16.207,16.207,0,0,0,1.741,1.146Zm3.769,1.542a15.661,15.661,0,0,1-1.935-.648l-.13.318a16.069,16.069,0,0,0,1.977.662Z" transform="translate(-402.648 -90.252)" fill="#dd8c59"/>
            <path id="패스_55900" data-name="패스 55900" d="M1013.965,48.755a4.138,4.138,0,0,0-5.251.093l-.005-.009-.189.147-.085.061v0l-2.832,2.2a1.4,1.4,0,1,0,1.646,2.256l2.1-1.644,7.915,5.775.819-.67a3.754,3.754,0,0,0,.614-2.611l.848-.612-4.452-5.811Z" transform="translate(-659.346 -31.402)" fill="#e1a364"/>
            <path id="패스_55901" data-name="패스 55901" d="M1021.141,92.045l.006,0-.061-.044c.02.015.035.033.055.049" transform="translate(-669.879 -60.354)" fill="#edbd8c"/>
            <path id="패스_55902" data-name="패스 55902" d="M991.914,52.96a1.4,1.4,0,1,1-1.646-2.256l2.831-2.2V48.49l-.647-.573a4.071,4.071,0,0,0-4.9.14l-1.433-1.033-4.459,5.806,1.155.832a3.923,3.923,0,0,0,.77,3.843l1.863-1.285a1.227,1.227,0,0,1,1.388,2.012l-1.262.87.081.058,1.572-1.084a1.173,1.173,0,0,1,1.613.372,1.192,1.192,0,0,1-.086,1.519,1.185,1.185,0,0,1,1.486.44,1.23,1.23,0,0,1,.1,1.269l.026-.019a1.228,1.228,0,0,1,1.46,1.949l1.708,1.231a1.492,1.492,0,0,0,2.092-.219,1.558,1.558,0,0,0-.347-2.077c-.02-.015-.035-.034-.055-.049l.061.044,1.519,1.094a1.41,1.41,0,1,0,1.638-2.273l.79.569a1.376,1.376,0,0,0,1.986-.295,1.293,1.293,0,0,0-.281-1.807,1.408,1.408,0,1,0,1.625-2.281l-.621-.453-7.915-5.775Z" transform="translate(-644.009 -30.85)" fill="#f4d3ae"/>
            <path id="패스_55903" data-name="패스 55903" d="M989.795,73.785a1.172,1.172,0,0,0-1.613-.372L986.319,74.7l-.029.02a1.227,1.227,0,0,0,1.388,2.011l.629-.434,1.262-.87a1.172,1.172,0,0,0,.225-1.64" transform="translate(-646.75 -48.042)" fill="#e1a364"/>
            <path id="패스_55904" data-name="패스 55904" d="M997,82.761a1.173,1.173,0,0,0-1.613-.371l-.026.02a1.23,1.23,0,0,0-.1-1.269,1.186,1.186,0,0,0-1.486-.441,1.191,1.191,0,0,0,.086-1.518,1.173,1.173,0,0,0-1.613-.372l-1.572,1.084-.9.619a1.227,1.227,0,0,0,1.388,2.011l.4-.274a1.2,1.2,0,0,0-.033,1.464,1.173,1.173,0,0,0,1.613.371l.718-.495a1.218,1.218,0,0,0,.049,1.353,1.172,1.172,0,0,0,1.613.371l1.25-.913c.027-.019.048-.042.073-.063A1.179,1.179,0,0,0,997,82.761" transform="translate(-649.041 -51.583)" fill="#e1a364"/>
            <path id="패스_55905" data-name="패스 55905" d="M980.36,42.514a.376.376,0,0,0-.069-.527l-1.973-1.515a.376.376,0,0,0-.527.069l-5.017,6.533a.376.376,0,0,0,.069.527l1.973,1.515a.376.376,0,0,0,.527-.069l.434-.565,4.459-5.806Z" transform="translate(-638.133 -26.501)" fill="#fff"/>
            <path id="패스_55906" data-name="패스 55906" d="M1040.883,47.5l-5.009-6.539a.376.376,0,0,0-.527-.069l-1.974,1.512a.377.377,0,0,0-.07.527l.293.382,4.452,5.811.264.345a.376.376,0,0,0,.527.069l1.974-1.512a.376.376,0,0,0,.07-.527" transform="translate(-677.843 -26.775)" fill="#fff"/>
            <path id="패스_55907" data-name="패스 55907" d="M45.487,266.952a2.631,2.631,0,1,0,2.631,2.631,2.631,2.631,0,0,0-2.631-2.631m.007,4.3a1.659,1.659,0,1,1,1.659-1.659,1.659,1.659,0,0,1-1.659,1.659" transform="translate(-28.115 -175.133)" fill="#eccea9"/>
            <path id="패스_55908" data-name="패스 55908" d="M39.7,266.436a7.257,7.257,0,0,0-1.753-4.973c-2.509-3.062-7.025-2.293-7.025-2.293a7.393,7.393,0,0,0-5.833,7.266,7.6,7.6,0,0,0,.127,1.375L23.4,270.82c-.242.4-.056.734.415.734h1.762l.226,2.373c.165,1.6,1.284,2.283,2.854,2.283h1.321l-.011,3,7.618-.019-.017-5.817c.481-1.016,2.126-5.373,2.126-6.937m-3.068-1.407-.962.058a3.063,3.063,0,0,1-.409.992l.045.051.593.669a4.06,4.06,0,0,1-.862.862l-.721-.638a3.059,3.059,0,0,1-.991.408l-.058.966a4.086,4.086,0,0,1-1.219,0l-.059-.974a3.055,3.055,0,0,1-.978-.412l-.735.651a4.065,4.065,0,0,1-.678-.631c-.064-.075-.125-.152-.183-.231l.657-.742a3.052,3.052,0,0,1-.395-.969l-1-.06a4.068,4.068,0,0,1,0-1.219l1-.061a3.046,3.046,0,0,1,.4-.957l-.666-.751a4.029,4.029,0,0,1,.863-.862l.75.664a3.065,3.065,0,0,1,.958-.4l.06-1a4.053,4.053,0,0,1,1.219,0l.06.99a3.038,3.038,0,0,1,.972.4l.736-.653a4.027,4.027,0,0,1,.863.862l-.647.73a3.041,3.041,0,0,1,.413.98l.968.058a4.086,4.086,0,0,1,0,1.219" transform="translate(-15.284 -169.971)" fill="#eccea9"/>
            <path id="패스_55909" data-name="패스 55909" d="M47.362,269.818a1.659,1.659,0,1,0,1.659,1.659,1.659,1.659,0,0,0-1.659-1.659" transform="translate(-29.983 -177.013)" fill="#e798c4"/>
            <path id="패스_55910" data-name="패스 55910" d="M45.844,266.262a3.047,3.047,0,0,0-.412-.98l.647-.73a4.035,4.035,0,0,0-.863-.862l-.736.652a3.053,3.053,0,0,0-.972-.4l-.06-.99a4.085,4.085,0,0,0-1.219,0l-.06,1a3.057,3.057,0,0,0-.958.4l-.75-.665a4.042,4.042,0,0,0-.863.862l.665.751a3.058,3.058,0,0,0-.4.957l-1,.06a4.071,4.071,0,0,0,0,1.219l1,.06a3.047,3.047,0,0,0,.395.969l-.657.742c.058.079.12.156.183.231a4.052,4.052,0,0,0,.679.631l.735-.651a3.045,3.045,0,0,0,.978.413l.059.973a4.051,4.051,0,0,0,1.219,0l.059-.966a3.065,3.065,0,0,0,.991-.408l.721.638a4.052,4.052,0,0,0,.861-.862l-.592-.669-.045-.052a3.062,3.062,0,0,0,.409-.991l.962-.059a4.086,4.086,0,0,0,0-1.219Zm-3.006,3.3a2.631,2.631,0,1,1,2.631-2.631,2.631,2.631,0,0,1-2.631,2.631" transform="translate(-25.466 -172.482)" fill="#e798c4"/>
            <path id="패스_55911" data-name="패스 55911" d="M1178.5,203.493c-.874.22-1.546,1.478-1.546,3.015a4.979,4.979,0,0,0,.09.908h-13.131v0h-1.932v19.516a.44.44,0,0,0,.439.439h17.256a.44.44,0,0,0,.439-.439V207.539c0-.241.014-.6.033-.806v-.191c0-1.6-.724-2.907-1.648-3.05m-8.993,13.284h7.363a.241.241,0,0,1,0,.482h-7.363a.241.241,0,0,1,0-.482m-.177-4.148a.241.241,0,0,1,.241-.241h6.546a.241.241,0,0,1,0,.482h-6.546a.241.241,0,0,1-.241-.241m.177,5.884h7.363a.241.241,0,0,1,0,.482h-7.363a.241.241,0,0,1,0-.482m-1.7,7.346h-3.6v-3.585h3.6Zm0-6.28h-3.6v-3.585h3.6Zm0-6.28h-3.6v-3.585h3.6Zm8.3,11.785h-6.6a.241.241,0,0,1,0-.482h6.6a.241.241,0,0,1,0,.482m1.029-1.951h-7.633a.241.241,0,0,1,0-.482h7.633a.241.241,0,1,1,0,.482m.321-12.193h-7.889a.241.241,0,1,1,0-.482h7.889a.241.241,0,1,1,0,.482" transform="translate(-762.311 -150.899)" fill="#e6e6e6"/>
            <path id="패스_55912" data-name="패스 55912" d="M1156.99,207.36h13.131a4.945,4.945,0,0,1-.09-.908c0-1.537.672-2.795,1.546-3.015a1.112,1.112,0,0,1,.15-.029l-18.482.014c-1,0-1.815,1.372-1.815,3.064a5.008,5.008,0,0,0,.083.869h5.478Z" transform="translate(-755.389 -150.844)" fill="#fff"/>
            <path id="패스_55913" data-name="패스 55913" d="M1168.46,243.422h3.6v-3.585h-3.6Zm.641-2.279a.241.241,0,0,1,.335.059l.753,1.075,1.029-1.833a.241.241,0,0,1,.42.236l-1.033,1.839a.553.553,0,0,1-.166.187.432.432,0,0,1-.245.077.486.486,0,0,1-.394-.224l-.757-1.082a.241.241,0,0,1,.059-.335" transform="translate(-766.563 -174.742)" fill="gray"/>
            <path id="패스_55914" data-name="패스 55914" d="M1170.827,243.485a.487.487,0,0,0,.394.224.432.432,0,0,0,.245-.078.552.552,0,0,0,.166-.186l1.033-1.839a.241.241,0,1,0-.42-.236l-1.029,1.833-.753-1.076a.241.241,0,1,0-.394.276Z" transform="translate(-767.59 -175.667)" fill="#fff"/>
            <path id="패스_55915" data-name="패스 55915" d="M1168.46,261.681h3.6V258.1h-3.6Zm.641-2.279a.241.241,0,0,1,.335.059l.753,1.075,1.029-1.833a.241.241,0,0,1,.42.236l-1.033,1.839a.553.553,0,0,1-.166.187.429.429,0,0,1-.245.077.487.487,0,0,1-.394-.224l-.757-1.082a.241.241,0,0,1,.059-.335" transform="translate(-766.563 -186.721)" fill="gray"/>
            <path id="패스_55916" data-name="패스 55916" d="M1170.827,261.743a.487.487,0,0,0,.394.224.433.433,0,0,0,.245-.078.552.552,0,0,0,.166-.186l1.033-1.839a.241.241,0,1,0-.42-.236l-1.029,1.833-.753-1.076a.241.241,0,1,0-.394.276Z" transform="translate(-767.59 -187.645)" fill="#fff"/>
            <path id="패스_55917" data-name="패스 55917" d="M1168.46,225.164h3.6v-3.585h-3.6Zm.641-2.279a.241.241,0,0,1,.335.059l.753,1.075,1.029-1.833a.241.241,0,0,1,.42.236l-1.033,1.839a.552.552,0,0,1-.166.187.43.43,0,0,1-.245.077.487.487,0,0,1-.394-.224l-.757-1.082a.241.241,0,0,1,.059-.335" transform="translate(-766.563 -162.764)" fill="gray"/>
            <path id="패스_55918" data-name="패스 55918" d="M1170.827,225.227a.487.487,0,0,0,.394.224.432.432,0,0,0,.245-.078.552.552,0,0,0,.166-.186l1.033-1.839a.241.241,0,1,0-.42-.236l-1.029,1.833-.753-1.076a.241.241,0,1,0-.394.276Z" transform="translate(-767.59 -163.689)" fill="#fff"/>
            <path id="패스_55919" data-name="패스 55919" d="M1191.477,223.741h-7.889a.241.241,0,1,0,0,.482h7.889a.241.241,0,1,0,0-.482" transform="translate(-776.329 -164.182)" fill="gray"/>
            <path id="패스_55920" data-name="패스 55920" d="M1183.588,229.836h6.546a.241.241,0,0,0,0-.482h-6.546a.241.241,0,1,0,0,.482" transform="translate(-776.329 -167.865)" fill="gray"/>
            <path id="패스_55921" data-name="패스 55921" d="M1183.4,242.6h7.363a.241.241,0,1,0,0-.482H1183.4a.241.241,0,0,0,0,.482" transform="translate(-776.206 -176.237)" fill="gray"/>
            <path id="패스_55922" data-name="패스 55922" d="M1183.4,247.642h7.363a.241.241,0,1,0,0-.482H1183.4a.241.241,0,0,0,0,.482" transform="translate(-776.206 -179.546)" fill="gray"/>
            <path id="패스_55923" data-name="패스 55923" d="M1191.033,259.191H1183.4a.241.241,0,1,0,0,.482h7.633a.241.241,0,0,0,0-.482" transform="translate(-776.206 -187.439)" fill="gray"/>
            <path id="패스_55924" data-name="패스 55924" d="M1190.005,264.864h-6.6a.241.241,0,0,0,0,.482h6.6a.241.241,0,0,0,0-.482" transform="translate(-776.206 -191.161)" fill="gray"/>
            <path id="패스_55925" data-name="패스 55925" d="M639.312,155.639a10.6,10.6,0,1,0,10.6,10.6,10.6,10.6,0,0,0-10.6-10.6m8.987,6.421h-3.432a13.725,13.725,0,0,0-1.489-3.505,13.241,13.241,0,0,0-1.327-1.842,9.911,9.911,0,0,1,6.248,5.347m-3.659,3.514a14.539,14.539,0,0,1-.582,4h-4.444v-6.825h4.715a12.888,12.888,0,0,1,.312,2.826m-3.778,10.453a9.992,9.992,0,0,1-1.248.114v-5.88h4.232a22.025,22.025,0,0,1-2.946,5.679.341.341,0,0,0-.038.087m-3.3-.087a22.015,22.015,0,0,1-2.946-5.679h4.312v5.878a9.945,9.945,0,0,1-1.342-.144.357.357,0,0,0-.024-.055m-3.74-10.365a12.86,12.86,0,0,1,.313-2.826h4.793v6.825H634.4a14.534,14.534,0,0,1-.582-4m3.539-8.876c.05-.05.088-.087.113-.111l.028-.026.008-.007a.332.332,0,0,0,.052-.07,9.969,9.969,0,0,1,1.366-.148v5.724h-4.619a13.065,13.065,0,0,1,1.365-3.151,12.565,12.565,0,0,1,1.272-1.762c.173-.2.316-.349.415-.448m2.255,5.362v-5.725a9.948,9.948,0,0,1,1.261.116.336.336,0,0,0,.078.1l.007.007a11.3,11.3,0,0,1,1.915,2.494,13.063,13.063,0,0,1,1.278,3ZM632.3,159.23a9.912,9.912,0,0,1,4.051-2.454,13.327,13.327,0,0,0-1.274,1.78,13.731,13.731,0,0,0-1.489,3.505h-3.268a9.939,9.939,0,0,1,1.98-2.831m-2.267,3.512c.012,0,.022.007.034.007h3.357a13.559,13.559,0,0,0-.3,2.826,15.137,15.137,0,0,0,.557,4h-3.617a.321.321,0,0,0-.087.018,9.929,9.929,0,0,1,.053-6.85m.218,7.52h3.637a21.981,21.981,0,0,0,2.724,5.513,9.91,9.91,0,0,1-6.36-5.513m16.063,2.984a9.9,9.9,0,0,1-4.514,2.587,22.055,22.055,0,0,0,2.762-5.571h3.8a9.938,9.938,0,0,1-2.049,2.984m2.316-3.645a.343.343,0,0,0-.131-.027h-3.734a15.142,15.142,0,0,0,.557-4,13.559,13.559,0,0,0-.3-2.826H648.5a.334.334,0,0,0,.078-.016,9.929,9.929,0,0,1,.053,6.867" transform="translate(-413.465 -100.106)" fill="#fff"/>
            <path id="패스_55926" data-name="패스 55926" d="M723.841,187.844h.344V185.78h-.344Zm0-4.127h.344v-2.064h-.344Zm0-4.127h.344v-2.064h-.344Zm3.28-3.255h-2.064v.344h2.064Zm4.128,0h-2.064v.344h2.064Zm4.128,0h-2.064v.344h2.064Zm4.127,0H737.44v.344H739.5Zm4.128,0h-2.064v.344h2.064Zm4.127,0h-2.064v.344h2.064Zm4.128,0h-2.064v.344h2.064Zm4.127,0H753.95v.344h2.064Zm4.128,0h-2.064v.344h2.064Zm4.127,0H762.2v.344h2.064Zm4.128,0h-2.064v.344H768.4Zm4.127,0H770.46v.344h2.064Zm4.128,0h-2.064v.344h2.064Zm4.128,0h-2.064v.344h2.064Zm4.127,0h-2.064v.344h2.064Zm4.127,0h-2.064v.344h2.064Zm4.127,0H791.1v.344h2.064Zm4.128,0h-2.064v.344h2.064Zm4.127,0h-2.064v.344h2.064Zm4.127,0h-2.064v.344h2.064Zm4.127,0h-2.063v.344h2.063Zm4.127,0h-2.064v.344H813.8Zm4.128,0h-2.064v.344h2.064Zm4.127,0h-2.064v.344h2.064Zm1.889.17h.344V174.44h-.344Zm0-4.127h.344v-2.064h-.344Zm0-4.127h.344v-2.064h-.344Zm0-4.127h.344v-2.064h-.344Zm0-4.127h.344V157.93h-.344Zm0-4.127h.344V153.8h-.344Zm0-4.127h.344v-2.064h-.344Z" transform="translate(-474.872 -98.194)" fill="#4d4d4d"/>
            <path id="패스_55927" data-name="패스 55927" d="M1140.572,355.549h-2.064v.344h2.064Zm4.127,0h-2.064v.344h2.064Zm4.127,0h-2.064v.344h2.064Zm3.523-.26v.26h-1.459v.344h1.8v-.6Zm0-2.064h.344v-2.064h-.344Zm0-4.128h.344v-2.064h-.344Zm0-4.127h.344v-2.064h-.344Zm0-4.128h.344v-2.064h-.344Zm0-4.127h.344v-2.064h-.344Zm0-4.127h.344v-2.064h-.344Zm0-4.127h.344V326.4h-.344Zm0-4.127h.344v-2.064h-.344Z" transform="translate(-754.875 -231.702)" fill="#4d4d4d"/>
            <path id="패스_55928" data-name="패스 55928" d="M85.02,364.231h2.064v-.344H85.02Zm-4.127,0h2.064v-.344H80.893Zm-4.127,0h2.064v-.344H76.765Zm-4.127,0H74.7v-.344H72.638Zm-4.127,0h2.064v-.344H68.51Zm-4.127,0h2.064v-.344H64.383Zm-4.127,0h2.064v-.344H60.256Zm-4.127,0h2.064v-.344H56.128Zm-4.127,0h2.064v-.344H52Zm-4.127,0h2.064v-.344H47.873Zm-1.128-1.28h.344v-2.064h-.344Zm0-4.127h.344V356.76h-.344Zm0-4.127h.344v-2.064h-.344Zm0-4.127h.344v-2.064h-.344Z" transform="translate(-30.667 -228.635)" fill="#4d4d4d"/>
            <path id="패스_55929" data-name="패스 55929" d="M775.8,231.627h2.064v-.344H775.8Zm-4.127,0h2.064v-.344h-2.064Zm-4.127,0h2.064v-.344h-2.064Zm-4.128,0h2.064v-.344h-2.064Zm-4.127,0h2.064v-.344h-2.064Zm-4.127,0h2.064v-.344h-2.064Zm-4.127,0H753.1v-.344h-2.064Zm-4.128,0h2.064v-.344H746.9Zm-4.127,0h2.064v-.344h-2.064Zm-2.236-.172h.344v-2.064h-.344Zm0-4.127h.344v-2.064h-.344Zm0-4.127h.344v-2.064h-.344Zm0-4.127h.344v-2.064h-.344Zm0-4.127h.344v-2.064h-.344Zm0-4.127h.344v-2.064h-.344Zm0-4.127h.344v-2.064h-.344Zm0-4.127h.344V200.5h-.344Zm0-4.127h.344v-2.064h-.344Zm0-4.127h.344v-2.064h-.344Zm-3.268-2.58h2.064v-.344h-2.064Zm-4.127,0h2.064v-.344h-2.064Zm-4.127,0h2.064v-.344h-2.064Zm-4.128,0h2.064v-.344h-2.064Zm-4.127,0h2.064v-.344h-2.064Zm-4.127,0H718.7v-.344h-2.064Zm-4.128,0h2.064v-.344h-2.064Z" transform="translate(-467.438 -125.557)" fill="#4d4d4d"/>
            <path id="패스_55930" data-name="패스 55930" d="M349.251,286.77h2.064v-.344h-2.064Zm-4.127,0h2.064v-.344h-2.064Zm-4.127,0h2.064v-.344H341Zm-4.127,0h2.064v-.344h-2.064Zm-.86-1.548h.344v-2.064h-.344Zm0-4.127h.344v-2.064h-.344Zm0-4.127h.344V274.9h-.344Zm0-4.127h.344v-2.064h-.344Zm0-4.127h.344v-2.064h-.344Zm0-4.127h.344v-2.064h-.344Zm0-4.127h.344v-2.064h-.344Zm0-4.127h.344v-2.064h-.344Zm0-4.127h.344v-2.064h-.344Zm0-4.127h.344v-2.064h-.344Zm0-4.127h.344v-2.064h-.344Z" transform="translate(-220.437 -168.687)" fill="#4d4d4d"/>
            <path id="패스_56693" data-name="패스 56693" d="M85.02,364.231h2.064v-.344H85.02Zm-4.127,0h2.064v-.344H80.893Zm-4.127,0h2.064v-.344H76.765Zm-4.127,0H74.7v-.344H72.638Zm-4.127,0h2.064v-.344H68.51Zm-4.127,0h2.064v-.344H64.383Zm-4.127,0h2.064v-.344H60.256Zm-4.127,0h2.064v-.344H56.128Zm-4.127,0h2.064v-.344H52Zm-4.127,0h2.064v-.344H47.873Z" transform="translate(6.333 -228.635)" fill="#4d4d4d"/>
            <path id="패스_56699" data-name="패스 56699" d="M85.02,364.231h2.064v-.344H85.02Zm-4.127,0h2.064v-.344H80.893Zm-4.127,0h2.064v-.344H76.765Zm-4.127,0H74.7v-.344H72.638Zm-4.127,0h2.064v-.344H68.51Zm-4.127,0h2.064v-.344H64.383Zm-4.127,0h2.064v-.344H60.256Zm-4.127,0h2.064v-.344H56.128Zm-4.127,0h2.064v-.344H52Zm-4.127,0h2.064v-.344H47.873Z" transform="translate(47.333 -228.635)" fill="#4d4d4d"/>
            <path id="패스_56694" data-name="패스 56694" d="M736.841,187.844h.344V185.78h-.344Zm0-4.127h.344v-2.064h-.344Zm0-4.127h.344v-2.064h-.344Zm.1,24.532h.344v-2.064h-.344Zm0-4.127h.344V197.93h-.344Zm0-4.127h.344V193.8h-.344v2.064Zm0-4.127h.344v-2.064h-.344Z" transform="translate(-487.873 -86.058)" fill="#4d4d4d"/>
            <path id="패스_56695" data-name="패스 56695" d="M736.841,187.844h.344V185.78h-.344Zm0-4.127h.344v-2.064h-.344Zm0-4.127h.344v-2.064h-.344Zm.1,24.532h.344v-2.064h-.344Zm0-4.127h.344V197.93h-.344Zm0-4.127h.344V193.8h-.344v2.064Zm0-4.127h.344v-2.064h-.344Z" transform="translate(-487.873 -57.643)" fill="#4d4d4d"/>
            <path id="패스_56696" data-name="패스 56696" d="M1140.572,355.549h-2.064v.344h2.064Zm4.127,0h-2.064v.344h2.064Zm4.127,0h-2.064v.344h2.064Zm3.828,0h-1.764v.344h1.764Z" transform="translate(-771.599 -231.702)" fill="#4d4d4d"/>
            <path id="패스_56697" data-name="패스 56697" d="M1152.655,355.549h-1.764v.344h1.764Z" transform="translate(-787.599 -231.702)" fill="#4d4d4d"/>
            <path id="패스_56698" data-name="패스 56698" d="M737.274,191.728h2.064v-.344h-2.064Zm-4.127,0h2.064v-.344h-2.064Zm-4.127,0h2.064v-.344h-2.064Zm-4.128,0h2.064v-.344h-2.064Zm-4.127,0h2.064v-.344h-2.064Zm-4.127,0H718.7v-.344h-2.064Zm-4.128,0h2.064v-.344h-2.064Z" transform="translate(-490.438 -42.557)" fill="#4d4d4d"/>
          </g>
        </g>
      </g>
    </g>
    <g id="그룹_190254" data-name="그룹 190254" transform="translate(1244.313 191.821)">
      <g id="그룹_190253" data-name="그룹 190253" clip-path="url(#clip-path)">
        <path id="패스_55475" data-name="패스 55475" d="M267.868,2.807a.648.648,0,0,1-.648-.648V.648a.648.648,0,1,1,1.3,0V2.159a.648.648,0,0,1-.648.648" transform="translate(-151.829)" fill="#fff"/>
        <path id="패스_55476" data-name="패스 55476" d="M267.868,60.677a.648.648,0,0,1-.648-.648v-2.96a.648.648,0,1,1,1.3,0v2.96a.648.648,0,0,1-.648.648m0-7.189a.648.648,0,0,1-.648-.648v-2.96a.648.648,0,1,1,1.3,0v2.96a.648.648,0,0,1-.648.648m0-7.189a.648.648,0,0,1-.648-.648v-2.96a.648.648,0,1,1,1.3,0v2.96a.648.648,0,0,1-.648.648m0-7.189a.648.648,0,0,1-.648-.648V35.5a.648.648,0,1,1,1.3,0v2.96a.648.648,0,0,1-.648.648m0-7.189a.648.648,0,0,1-.648-.648v-2.96a.648.648,0,1,1,1.3,0v2.96a.648.648,0,0,1-.648.648m0-7.188a.648.648,0,0,1-.648-.648v-2.96a.648.648,0,1,1,1.3,0v2.96a.648.648,0,0,1-.648.648m0-7.189a.648.648,0,0,1-.648-.648v-2.96a.648.648,0,1,1,1.3,0V16.9a.648.648,0,0,1-.648.648" transform="translate(-151.829 -7.552)" fill="#fff"/>
        <path id="패스_55477" data-name="패스 55477" d="M265.879,132.626h-1.511a.648.648,0,1,1,0-1.3h.864v-.864a.648.648,0,1,1,1.3,0v1.511a.647.647,0,0,1-.648.648" transform="translate(-149.84 -73.76)" fill="#fff"/>
        <path id="패스_55478" data-name="패스 55478" d="M141,134.614h-3.1a.648.648,0,0,1,0-1.3H141a.648.648,0,1,1,0,1.3m-7.533,0h-3.1a.648.648,0,0,1,0-1.3h3.1a.648.648,0,0,1,0,1.3m-7.533,0h-3.1a.648.648,0,0,1,0-1.3h3.1a.648.648,0,0,1,0,1.3m-7.533,0h-3.1a.648.648,0,1,1,0-1.3h3.1a.648.648,0,0,1,0,1.3m-7.533,0h-3.1a.648.648,0,0,1,0-1.3h3.1a.648.648,0,0,1,0,1.3m-7.533,0h-3.1a.648.648,0,0,1,0-1.3h3.1a.648.648,0,0,1,0,1.3m-7.533,0H92.7a.648.648,0,1,1,0-1.3h3.1a.648.648,0,1,1,0,1.3m-7.533,0h-3.1a.648.648,0,0,1,0-1.3h3.1a.648.648,0,1,1,0,1.3m-7.533,0h-3.1a.648.648,0,1,1,0-1.3h3.1a.648.648,0,1,1,0,1.3m-7.533,0H70.1a.648.648,0,1,1,0-1.3h3.1a.648.648,0,0,1,0,1.3m-7.534,0h-3.1a.648.648,0,0,1,0-1.3h3.1a.648.648,0,1,1,0,1.3m-7.533,0h-3.1a.648.648,0,0,1,0-1.3h3.1a.648.648,0,0,1,0,1.3" transform="translate(-30.9 -75.749)" fill="#fff"/>
        <path id="패스_55479" data-name="패스 55479" d="M42.783,134.614H41.272a.648.648,0,0,1,0-1.3h1.511a.648.648,0,0,1,0,1.3" transform="translate(-23.082 -75.749)" fill="#fff"/>
      </g>
    </g>
    <g id="그룹_190418" data-name="그룹 190418" transform="translate(938.485 172.133)">
      <g id="그룹_190417" data-name="그룹 190417" clip-path="url(#clip-path-2)">
        <path id="패스_56625" data-name="패스 56625" d="M111.063,349.924q-1.73,6.264-2.972,12.63a29.283,29.283,0,0,0-.68,10.016c.519,3.373,2.1,6.522,3.661,9.615q5.9,11.667,11.828,23.318a5.711,5.711,0,0,0,1.518,2.1,6.622,6.622,0,0,0,3.5.951,201.536,201.536,0,0,0,32.353-.084c1.45-.121,3.059-.333,3.969-1.37a4.751,4.751,0,0,0,.85-3.076q.381-10.289.762-20.577a127.747,127.747,0,0,1,.9-12.784c1.714-12.4,7.045-24.213,8.63-36.628" transform="translate(-67.913 -211.598)" fill="#141624"/>
        <path id="패스_56626" data-name="패스 56626" d="M205.845,7a15.29,15.29,0,0,0,7.4-4.017,12.155,12.155,0,0,1,2.712-2.37A5.949,5.949,0,0,1,218.3.021,8.759,8.759,0,0,1,223.19,1.1a13.5,13.5,0,0,1,2.442,1.878A6.847,6.847,0,0,1,227.161,4.8a2.609,2.609,0,0,1,.137,2.3,2.026,2.026,0,0,1,1.942-.453,3.857,3.857,0,0,1,1.739,1.112c2.395,2.461,2.711,6.413,1.566,9.65s-3.51,5.887-5.985,8.267a21.234,21.234,0,0,1-4.281,3.374,8.843,8.843,0,0,1-5.239,1.211,15.511,15.511,0,0,1-3.673-1.1c-2.921-1.11-5.938-1.97-8.8-3.233a18.77,18.77,0,0,1-7.495-5.462" transform="translate(-124.841 0)" fill="#593f2f"/>
        <path id="패스_56627" data-name="패스 56627" d="M286.876,143.986c7.14,1.91,11.767,8.67,15.675,14.985q14.053,22.7,26.815,46.183a36.569,36.569,0,0,1-8.113,6.469,3.447,3.447,0,0,1-1.879.634,3.618,3.618,0,0,1-1.753-.787c-3.867-2.657-7.777-5.352-10.88-8.882-1.627-1.851-3.008-3.9-4.467-5.892a90.09,90.09,0,0,0-12.913-14.16" transform="translate(-181.726 -91.21)" fill="#ebbaad"/>
        <path id="패스_56628" data-name="패스 56628" d="M163.175,129.443c6.905,1.244,11.187,5.748,14.046,11.864s1.445,11.442,1.542,18.131c.221,15.126-.1,43.133-11.589,66.924-.445.923-61.63-5.7-61.887-6.32-6.733-16.094-3.7-81.524,3.232-88.3,5.888-5.759,31.743-4.13,39.684-5.267" transform="translate(-64.308 -80.116)" fill="#905ed1"/>
        <path id="패스_56629" data-name="패스 56629" d="M207.707,95.269c-.491,1.826-3.584,11.19-4.434,13.534q-.07.193-.14.384c-.564,1.53-1.167,3.01-1.778,4.526-.418,1.037-1.3,2.266-.972,3.2.526,1.509,2.3,2.969,3.379,3.969a9.117,9.117,0,0,0,4.638,2.385c3.279.685,6.745.623,9.872-1.469,2.819-1.887,1.468-6.05,1.6-7.11.236-1.831.284-3.582.42-5.414.137-1.867.235-3.748.337-5.613a35.356,35.356,0,0,1,.118-4.365c-4.617-.9-9.015-1.2-12.887-3.7" transform="translate(-126.89 -60.349)" fill="#f2c1b4"/>
        <path id="패스_56630" data-name="패스 56630" d="M214.938,43.51a19.679,19.679,0,0,0-.142-18.171c-1.164-2.153-2.914-4.18-5.177-4.653-.37-.077-.748-.111-1.113-.215a9.553,9.553,0,0,1-2.314-1.3c-3.3-2.073-7.35-1.951-11.048-1.27a13.758,13.758,0,0,0-6.177,2.409,14.587,14.587,0,0,0-3.227,3.964,15.174,15.174,0,0,0-2.367,5.975,19.3,19.3,0,0,0-.083,2.5,25.929,25.929,0,0,0,.544,6.086c.9,3.573,3.257,6.557,5.78,9.13a16.809,16.809,0,0,0,6.619,4.624" transform="translate(-116.105 -11.055)" fill="#593f2f"/>
        <path id="패스_56631" data-name="패스 56631" d="M224.258,62.932c.18,5.892-.188,12.221-3.737,16.928a8.2,8.2,0,0,1-3.6,2.907c-3.077,1.118-6.468-.6-8.951-2.73a34.964,34.964,0,0,1-8.486-11.69,18.948,18.948,0,0,1-2.2-7.934c-.01-3.338-.459-1.337,1.806-3.789A27.819,27.819,0,0,1,209,50.463c1.826-.615,6.151.1,8.532.611,2.613.562,2.844-1.221,4.149.735,2.534,3.8,2.44,6.754,2.573,11.123" transform="translate(-124.945 -31.816)" fill="#f8d8c5"/>
        <path id="패스_56632" data-name="패스 56632" d="M266.35,73.958a6.513,6.513,0,0,1,1.5-1.578,1.754,1.754,0,0,1,.885-.4,1.868,1.868,0,0,1,1.5.984,6.041,6.041,0,0,1,1.065,2.3,3.384,3.384,0,0,1-.393,2.459,5.5,5.5,0,0,1-1.258,1.256,7.993,7.993,0,0,1-2.717,1.638.883.883,0,0,1-.924-.139" transform="translate(-168.503 -45.592)" fill="#f8d8c5"/>
        <path id="패스_56633" data-name="패스 56633" d="M195.927,86.956c-.48-.152-.919-.428-1.411-.536a2.59,2.59,0,0,0-2.537,1.041,3.859,3.859,0,0,0-.643,2.755,3.342,3.342,0,0,0,.855,1.973,4.567,4.567,0,0,0,1.317.845c1.824.876,3.9,1.591,5.841,1.038" transform="translate(-121.184 -54.713)" fill="#f8d8c5"/>
        <path id="패스_56634" data-name="패스 56634" d="M191.36,54.293a10.015,10.015,0,0,1,1.068,4.768c-.165,1.33-1.052,2.8-1.182,4.132a9.124,9.124,0,0,0,.143,2.721,5.264,5.264,0,0,1-2.65-1.789,8.022,8.022,0,0,1-.15-10.18,2.167,2.167,0,0,1-.026,1.116" transform="translate(-118.358 -34.172)" fill="#593f2f"/>
        <path id="패스_56635" data-name="패스 56635" d="M242.98,91.824a.275.275,0,0,1-.049-.546,1.413,1.413,0,0,0,.564-.181l.041-.029a1.611,1.611,0,0,0,.207-.165,18.5,18.5,0,0,1-2.3-5.794.275.275,0,0,1,.538-.114,17.943,17.943,0,0,0,2.251,5.661c.251.41-.193.725-.382.86l-.039.028a1.888,1.888,0,0,1-.787.277.325.325,0,0,1-.049,0m.788-.881h0Z" transform="translate(-152.945 -53.703)" fill="#362b24"/>
        <path id="패스_56636" data-name="패스 56636" d="M252.044,82.8l.342-.057a.564.564,0,0,0,.463-.649l-.191-1.143a.563.563,0,0,0-.648-.463l-.342.058a.563.563,0,0,0-.462.648l.191,1.142a.563.563,0,0,0,.648.463" transform="translate(-159.124 -50.98)" fill="#362b24"/>
        <path id="패스_56637" data-name="패스 56637" d="M225.918,87.174l.342-.057a.564.564,0,0,0,.463-.649l-.191-1.142a.564.564,0,0,0-.649-.463l-.342.058a.563.563,0,0,0-.462.648l.191,1.142a.563.563,0,0,0,.648.463" transform="translate(-142.574 -53.752)" fill="#362b24"/>
        <path id="패스_56638" data-name="패스 56638" d="M216,76.245a.275.275,0,0,1-.064-.542,23.956,23.956,0,0,1,4.861-.649.275.275,0,0,1,.017.549,23.389,23.389,0,0,0-4.75.634.274.274,0,0,1-.064.007" transform="translate(-136.655 -47.544)" fill="#362b24"/>
        <path id="패스_56639" data-name="패스 56639" d="M248.052,70.018a.275.275,0,0,1-.08-.538,19.863,19.863,0,0,1,5.331-.852.281.281,0,0,1,.281.269.275.275,0,0,1-.269.281,19.307,19.307,0,0,0-5.184.828.274.274,0,0,1-.08.012" transform="translate(-156.958 -43.473)" fill="#362b24"/>
        <path id="패스_56640" data-name="패스 56640" d="M233.672,112.98a7.453,7.453,0,0,1-4.074-1.041.275.275,0,0,1,.3-.464,8.1,8.1,0,0,0,5.526.828,8.872,8.872,0,0,0,2.489-.652.275.275,0,1,1,.227.5,9.406,9.406,0,0,1-2.641.7,13.457,13.457,0,0,1-1.823.132" transform="translate(-145.362 -70.588)" fill="#362b24"/>
        <path id="패스_56641" data-name="패스 56641" d="M220.991,96.843a2.805,2.805,0,1,1-2.805-2.805,2.806,2.806,0,0,1,2.805,2.805" transform="translate(-136.436 -59.57)" fill="#efc1a6"/>
        <path id="패스_56642" data-name="패스 56642" d="M30.974,172.676a260.743,260.743,0,0,0-27.2,22.7c-1.683,1.611-3.43,3.41-3.727,5.643-.291,2.192.894,4.3,2.259,6.085,3.749,4.9,9.027,8.542,14.215,12.1L35.1,231.939c.281.192.585.422.626.747a1.074,1.074,0,0,1-.21.664c-.755,1.25-1.914,2.242-2.784,3.424a4.115,4.115,0,0,0-.833,4.041c.957,2.042,4.229,2.433,5.068,4.521.386.96,3.143,5.289,4.236,5.332.832-.6-1.695-4.861-1.777-5.839-.469-5.607-1.078-10.985-1.548-16.592a9.7,9.7,0,0,0-.485-2.694,10.013,10.013,0,0,0-1.243-2.111L26.895,210.29c-1.776-2.523-3.69-5.16-6.594-6.466,2.228-2.418,5.218-4.074,8.078-5.8a119.155,119.155,0,0,0,16.286-11.834" transform="translate(0 -109.384)" fill="#f8d8c5"/>
        <path id="패스_56643" data-name="패스 56643" d="M261.686,90.863a2.805,2.805,0,1,1-2.805-2.805,2.806,2.806,0,0,1,2.805,2.805" transform="translate(-162.214 -55.782)" fill="#efc1a6"/>
        <path id="패스_56644" data-name="패스 56644" d="M233.06,112.16a33.159,33.159,0,0,0,8.146.867.207.207,0,0,1,.215.254,4.293,4.293,0,0,1-.676,1.444,5.881,5.881,0,0,1-1.311,1.463,4.043,4.043,0,0,1-5.14-.221,6.02,6.02,0,0,1-1.689-3.36.38.38,0,0,1,.454-.446" transform="translate(-147.342 -71.044)" fill="#fff"/>
        <path id="패스_56645" data-name="패스 56645" d="M373.057,233.825c-2.1.833-15.169,2.9-19.395,11.71-3.15,6.572,2.612,40.747,1.872,47.73-.506,4.775,8.887,29.055,10.642,31.2,1.575,1.925,11.924,2.1,24.673,1.246-1.821-21.565-7.37-87.313-7.94-94.507-3.688,1.1-7.166,1.556-9.852,2.621" transform="translate(-223.431 -146.459)" fill="#f696b9"/>
        <path id="패스_56646" data-name="패스 56646" d="M463.3,223.49c-3.874-.66-9.748-1.7-12.336-1.447a80.8,80.8,0,0,0-15.868,3.334c.57,7.193,6.119,72.941,7.94,94.507,5.864-.392,12.235-1,18.5-1.753q.171-2.4.343-4.8c2.138-29.912,4.27-60,1.427-89.844" transform="translate(-275.618 -140.632)" fill="#fff"/>
        <path id="패스_56647" data-name="패스 56647" d="M536.759,236.338c-2.75-3.06-24.147-9.727-25.01-9.841-.659-.087-1.626-.248-2.763-.442,2.844,29.846.711,59.932-1.427,89.844q-.172,2.4-.343,4.8c6.755-.813,13.38-1.8,19.1-2.859a8.907,8.907,0,0,0,2.743-.826c2.142-1.22,4.378-21.051,6.77-38.639.295-2.174,10.235-31.682.935-42.034" transform="translate(-321.303 -143.198)" fill="#f696b9"/>
        <path id="패스_56648" data-name="패스 56648" d="M648.984,297.139c-4.561,14.09-5.5,29.1-5.339,43.907a42.2,42.2,0,0,1-.175,5.677,39.473,39.473,0,0,1-1.442,6.146,67.069,67.069,0,0,1-4.592,12.561,1.748,1.748,0,0,0-.3,1.272,1.63,1.63,0,0,0,.905.849,19.342,19.342,0,0,0,8.763,2.165,2.115,2.115,0,0,0,1.079-.2,2.224,2.224,0,0,0,.8-1.082,129.486,129.486,0,0,0,11.442-48.14" transform="translate(-403.578 -188.227)" fill="#f8d8c5"/>
        <path id="패스_56649" data-name="패스 56649" d="M561.752,250.277c3.54,1.858,8.653,7.541,11.294,11.177,8.788,12.1,9.438,26.452,10.553,41.367a16.938,16.938,0,0,1-.653,7.311c-1.729,4.531-6.81,7.146-11.66,7.162s-9.461-2.11-13.551-4.715a29.429,29.429,0,0,1-8.057-7.082" transform="translate(-348.201 -158.541)" fill="#f696b9"/>
        <path id="패스_56650" data-name="패스 56650" d="M415.613,128.183a6.717,6.717,0,0,0-3.855,2.472,12.226,12.226,0,0,0-3.037,10.506,14.356,14.356,0,0,0,2.365,4.906,26.984,26.984,0,0,0,12.743,9.794,11.6,11.6,0,0,0,5.9.825,5.513,5.513,0,0,0,4.441-3.6" transform="translate(-258.751 -81.199)" fill="#362b24"/>
        <path id="패스_56651" data-name="패스 56651" d="M676.985,249.428c-8.3,1.237-13.442,5.742-16.87,11.863s-1.719,11.457-1.826,18.156c-.1,6.176,8.422,20.355,10.248,29.328,2.654,13.038-.992,20.4-.555,20.477,18.775,3.329,34.112-1.438,53.193-2.96,1.04-.083,15.957,2.275,15.852-3.087-.205-10.508,3.033-24.683,0-40.022-2.038-10.306-9.559-23.994-12.911-26.726-7.088-5.776-19.584-8.833-29.135-9.983" transform="translate(-416.792 -156.132)" fill="#729ff2"/>
        <path id="패스_56652" data-name="패스 56652" d="M682.6,155.407c-1.194-2.426-2.05-2.809-3.01-5.348a11.4,11.4,0,0,1-.646-3.938c-.04-5.219-4.036-8-.083-10.591,2.892-1.9,5.495-1.3,6.848-1.568,0,0,5.066-5.323,11.278-5.72,9.8-.626,12.65,4.011,14.781,6.8,1.993,2.608,3.981,7.132,4.114,10.459a28.357,28.357,0,0,1-1.515,9.688,13.664,13.664,0,0,1-2.665,4.952,13.181,13.181,0,0,1-6.811,4.04" transform="translate(-428.928 -81.199)" fill="#3d2921"/>
        <path id="패스_56653" data-name="패스 56653" d="M728.151,209c.5,1.722,3.6,7.973,4.447,10.179q.069.181.14.361c.561,1.44,1.154,2.833,1.757,4.259.412.976,1.252,2.126.982,3.013-.437,1.437-2.015,2.845-2.974,3.808a8.094,8.094,0,0,1-4.17,2.327,11.164,11.164,0,0,1-9.068-1.245c-2.632-1.745-1.518-5.707-1.674-6.709-.269-1.73-.364-3.387-.542-5.121-.18-1.766-.324-3.545-.471-5.31a34.558,34.558,0,0,0-.235-4.131c4.195-.919,6.537-.519,10-2.942" transform="translate(-453.778 -131.44)" fill="#f2c1b4"/>
        <path id="패스_56654" data-name="패스 56654" d="M425.7,104.7c-.954-3.976,3.619-8.721,6.075-9.8s5.756-.383,8.4-.872a16.646,16.646,0,0,0,7.441-2.855,1.464,1.464,0,0,1,1.005-.458,1.307,1.307,0,0,1,.791.562,7.152,7.152,0,0,1,1.259,2.4c1.007.2,1.176-1.819,2.194-1.867a1.345,1.345,0,0,1,.871.4,15.2,15.2,0,0,1,2.657,3.167,22.48,22.48,0,0,1,2.908,5.322c1.366,4,.638,8.375-.52,12.388q-.755,2.616-1.743,5.149c-1.142,2.926-2.775,6.006-5.684,7.059" transform="translate(-269.582 -57.461)" fill="#362b24"/>
        <path id="패스_56655" data-name="패스 56655" d="M429.658,133.835a20.281,20.281,0,0,1-10.589-15.448c-.285-2.507,0-5.252,1.635-6.985.268-.284.566-.535.814-.838a9.848,9.848,0,0,0,1.188-2.466c1.567-3.7,3.812-4.744,7.34-6.347a20.78,20.78,0,0,1,8.117-1.693c1.737.105,3.212-.418,4.843.3a15.639,15.639,0,0,1,5.523,3.657,19.869,19.869,0,0,1,1.545,2.067,26.72,26.72,0,0,1,3.127,5.467c1.345,3.552,1.11,7.463.494,11.126-.471,2.8-1.193,5.641-2.871,7.81" transform="translate(-265.404 -63.329)" fill="#362b24"/>
        <path id="패스_56656" data-name="패스 56656" d="M450.622,168.929c-.336,2.157-2.695,13.289-3.37,16.085q-.055.23-.112.458c-.451,1.826-.949,3.6-1.453,5.416-.345,1.243-1.178,2.762-.713,3.79a12.6,12.6,0,0,0,3.7,4.239,11.265,11.265,0,0,0,5.885,2.045c3.7.375,7.529-.132,10.749-2.924,2.9-2.518.938-7.126.969-8.36.054-2.13-.092-4.146-.149-6.265-.06-2.159-.165-4.33-.264-6.483a42.155,42.155,0,0,1-.364-5.023c-5.207-.452-10.1-.246-14.669-2.627" transform="translate(-281.788 -107.01)" fill="#f2c1b4"/>
        <path id="패스_56657" data-name="패스 56657" d="M437.3,155.072c3.32,5.089,7.361,10.222,13.136,12.111a8.455,8.455,0,0,0,4.757.336c3.261-.868,5.118-4.316,5.96-7.583a36.035,36.035,0,0,0,.287-14.885,19.537,19.537,0,0,0-2.815-8.006c-1.959-2.829-12.471-2.47-15.774-1.507-1.907.556-5.142,3.709-6.854,5.545-1.878,2.014-3.124.643-3.076,3.066.095,4.7,1.918,7.148,4.379,10.922" transform="translate(-274.237 -85.415)" fill="#f8d8c5"/>
        <path id="패스_56658" data-name="패스 56658" d="M437.14,180.557a6.713,6.713,0,0,0-2.2-.451,1.8,1.8,0,0,0-.987.18,1.925,1.925,0,0,0-.685,1.714,6.231,6.231,0,0,0,.453,2.57,3.489,3.489,0,0,0,1.782,1.847,5.66,5.66,0,0,0,1.8.321,8.235,8.235,0,0,0,3.263-.216c.321-.111.673-.323.7-.662" transform="translate(-274.462 -114.089)" fill="#f8d8c5"/>
        <path id="패스_56659" data-name="패스 56659" d="M503.889,159.611c.316-.412.525-.9.877-1.285a2.669,2.669,0,0,1,2.758-.615,3.981,3.981,0,0,1,2.167,1.95,3.452,3.452,0,0,1,.44,2.172,4.708,4.708,0,0,1-.615,1.49c-1.026,1.815-2.356,3.641-4.327,4.32" transform="translate(-319.196 -99.813)" fill="#f8d8c5"/>
        <path id="패스_56660" data-name="패스 56660" d="M334.928,270.3a56.4,56.4,0,0,0-3.5,10.928l-6.725,27.294a48.418,48.418,0,0,0-1.694,9.639c-.175,4.492.9,8.927,1.969,13.292q3.522,14.392,7.043,28.784a2.552,2.552,0,0,0,3.753,2.188,92.557,92.557,0,0,0,18.184-5.686,86.6,86.6,0,0,1-4.614-17.776,261.046,261.046,0,0,1-3.692-36.351c-.144-4.631-.1-9.52,2.211-13.535" transform="translate(-204.606 -171.228)" fill="#f696b9"/>
        <path id="패스_56661" data-name="패스 56661" d="M427.32,139.029A11.652,11.652,0,0,1,430,142.768a9.127,9.127,0,0,1,.4,1.586,21.226,21.226,0,0,1-.51,9.57c-.048.166-.118.353-.28.411a.53.53,0,0,1-.332-.026,6.618,6.618,0,0,1-3.258-2.524,18.476,18.476,0,0,1-1.928-3.713,5.886,5.886,0,0,1-.662-3.77" transform="translate(-268.156 -88.07)" fill="#362b24"/>
        <path id="패스_56692" data-name="패스 56692" d="M0,0H339.556V25.469H0Z" transform="translate(10.03 173.915)" fill="#fff"/>
        <path id="패스_56662" data-name="패스 56662" d="M493.011,171.915a.275.275,0,0,1-.115-.525,1.462,1.462,0,0,0,.52-.328l.033-.04a1.55,1.55,0,0,0,.169-.225,19.043,19.043,0,0,1-3.78-5.2.275.275,0,0,1,.493-.244,18.5,18.5,0,0,0,3.7,5.076c.35.339,0,.748-.162.945l-.031.038a1.93,1.93,0,0,1-.713.475.275.275,0,0,1-.114.025m.637-1.088h0Z" transform="translate(-310.277 -104.65)" fill="#362b24"/>
        <path id="패스_56663" data-name="패스 56663" d="M450.646,124.306a5.327,5.327,0,0,1,2.619.431,5.207,5.207,0,0,1,2.879,2.626,3.258,3.258,0,0,1-.7,3.672l3.157-1.212a9.882,9.882,0,0,0,2.528-1.26,6.439,6.439,0,0,0,1.557-1.811,7.92,7.92,0,0,0,.192-8.047" transform="translate(-285.468 -75.194)" fill="#362b24"/>
        <path id="패스_56664" data-name="패스 56664" d="M474.016,171.345l-.362.15a.563.563,0,0,1-.736-.3l-.471-1.135a.563.563,0,0,1,.3-.736l.362-.15a.563.563,0,0,1,.736.3l.471,1.135a.563.563,0,0,1-.3.736" transform="translate(-299.25 -107.136)" fill="#362b24"/>
        <path id="패스_56665" data-name="패스 56665" d="M499.228,160.871l-.362.15a.563.563,0,0,1-.736-.3l-.471-1.135a.563.563,0,0,1,.3-.736l.362-.15a.563.563,0,0,1,.736.3l.471,1.135a.563.563,0,0,1-.3.736" transform="translate(-315.221 -100.501)" fill="#362b24"/>
        <path id="패스_56666" data-name="패스 56666" d="M462.54,163.992a.275.275,0,0,1-.123-.521,24.669,24.669,0,0,1,4.732-1.773.275.275,0,1,1,.139.532,24.124,24.124,0,0,0-4.626,1.733.271.271,0,0,1-.122.029" transform="translate(-292.828 -102.424)" fill="#362b24"/>
        <path id="패스_56667" data-name="패스 56667" d="M482.508,190.667a14.665,14.665,0,0,1-2.877-.283.275.275,0,0,1,.108-.539,14.392,14.392,0,0,0,8.337-.844.275.275,0,1,1,.214.506,14.926,14.926,0,0,1-5.782,1.16" transform="translate(-303.69 -119.711)" fill="#362b24"/>
        <path id="패스_56668" data-name="패스 56668" d="M491.669,152.327a.275.275,0,0,1-.111-.526,22.485,22.485,0,0,1,3.487-1.207.275.275,0,0,1,.137.533,21.9,21.9,0,0,0-3.4,1.178.278.278,0,0,1-.111.023" transform="translate(-311.281 -95.39)" fill="#362b24"/>
        <path id="패스_56669" data-name="패스 56669" d="M752.886,324.529s2.87,32.112,11.371,40.378c0,0-39.6,8.864-42.02,10.314S777.7,372.65,777.7,372.65l-12.335-32.066Z" transform="translate(-457.465 -205.577)" fill="#598ce9"/>
        <path id="패스_56670" data-name="패스 56670" d="M707.707,180.552c-1.853,1.514-1.617-6.186-2.43-6.995-.708-.7-4.43-5.9-5.526-6.234l-.086-.024h0a8.839,8.839,0,0,0-2.375-.236,13.278,13.278,0,0,0-2.649.115,7.727,7.727,0,0,0-4.46,2.161,8.185,8.185,0,0,0-1.818,3.455,35.75,35.75,0,0,0-.708,3.6,8.3,8.3,0,0,0-.626,2.711,2.726,2.726,0,0,0-.281.972,16.627,16.627,0,0,0,.914,7.608,50.407,50.407,0,0,0,3.235,7.048,5.669,5.669,0,0,0,.861,1.328,4.933,4.933,0,0,0,4.653.952l.054-.016c4-.588,8.614-5.739,10.606-8.82,2.343,1.895,7.386-1.781,7.386-5.829,0-1.7-2.38-5.366-6.75-1.8" transform="translate(-434.951 -105.817)" fill="#f8d8c5"/>
        <path id="패스_56671" data-name="패스 56671" d="M699.41,205.937a1.481,1.481,0,0,1-.569-.1l-.044-.019c-.214-.087-.716-.292-.566-.747a17.828,17.828,0,0,0,.89-5.991.275.275,0,0,1,.269-.281h.006a.275.275,0,0,1,.275.269,18.38,18.38,0,0,1-.9,6.13,1.594,1.594,0,0,0,.236.112l.047.019a1.4,1.4,0,0,0,.586.047.287.287,0,0,1,.289.26.275.275,0,0,1-.26.289c-.08,0-.166.009-.257.009" transform="translate(-442.287 -125.935)" fill="#362b24"/>
        <path id="패스_56672" data-name="패스 56672" d="M714.924,200.433l.337-.03a.563.563,0,0,0,.511-.611l-.1-1.141a.563.563,0,0,0-.611-.511l-.337.03a.563.563,0,0,0-.511.611l.1,1.141a.564.564,0,0,0,.611.511" transform="translate(-452.426 -125.513)" fill="#362b24"/>
        <path id="패스_56673" data-name="패스 56673" d="M691.213,202.546l.337-.03a.563.563,0,0,0,.511-.611l-.1-1.141a.563.563,0,0,0-.611-.511l-.337.03a.563.563,0,0,0-.511.611l.1,1.141a.564.564,0,0,0,.611.511" transform="translate(-437.405 -126.852)" fill="#362b24"/>
        <path id="패스_56674" data-name="패스 56674" d="M568.965,349.361a23.257,23.257,0,0,1,2.756,6.467,2.577,2.577,0,0,0,.764,1.521c.742.548,1.781.1,2.584-.347l2.05-1.151a6.318,6.318,0,0,0,1.325-.9,4.235,4.235,0,0,0,1.13-3.217,12,12,0,0,0-.793-3.408,25.863,25.863,0,0,0-2.443-5.564c-1.088-1.715-2.673-4.055-4.57-4.78-.846-.323-1.836.389-2.5,1" transform="translate(-360.419 -214.049)" fill="#f8d8c5"/>
        <path id="패스_56675" data-name="패스 56675" d="M698.506,157.6a11.5,11.5,0,0,1-1.023,3.79c-2.669.51-4.839-3.43-7.091-5.046a13.982,13.982,0,0,0-3.478-2.321,5.575,5.575,0,0,0-2.627-.12,6.007,6.007,0,0,0-2.893,1.206,3.913,3.913,0,0,0-1.462,2.846,4.558,4.558,0,0,0,.337,1.719,4.206,4.206,0,0,0,1.529,2.079,2.148,2.148,0,0,0,2.383.046,2.126,2.126,0,0,1-1.212,1.138,16.854,16.854,0,0,1-5,1.811,7.33,7.33,0,0,1-5.119-.93c-2.455-1.593-3.528-4.861-3.676-7.929a12.02,12.02,0,0,1,.724-5.1,8.316,8.316,0,0,1,3.219-3.874,7.256,7.256,0,0,1,3.526-.879c1.01-.042,2.518-.237,3.436.275" transform="translate(-423.886 -92.471)" fill="#3d2921"/>
        <path id="패스_56676" data-name="패스 56676" d="M713.9,191.31a.275.275,0,0,1-.073-.54,11.8,11.8,0,0,1,3.814-.4.275.275,0,0,1,.258.291.278.278,0,0,1-.291.258,11.277,11.277,0,0,0-3.637.382.26.26,0,0,1-.073.01" transform="translate(-452.058 -120.58)" fill="#362b24"/>
        <path id="패스_56677" data-name="패스 56677" d="M698.56,223.925a.275.275,0,0,1,0-.55,18.006,18.006,0,0,0,7.039-1.509.275.275,0,0,1,.221.5,18.551,18.551,0,0,1-7.256,1.555Z" transform="translate(-442.338 -140.53)" fill="#362b24"/>
        <path id="패스_56678" data-name="패스 56678" d="M739.809,357.986c-.015,4.043,1.282,7.973,2.773,11.731a109.053,109.053,0,0,0,9.933,19.217c-8.169.523-16.343,1.046-24.474,1.993-8.273.963-16.488,2.364-24.7,3.764-3.447.588-6.964,1.2-10.04,2.862-.31.167-.651.4-.669.754-.029.559.713.771,1.271.8,10.859.481,22.6.79,33.46.4,12.507-.452,35.469,1.36,37.656-1.1a2.106,2.106,0,0,0,.435-.709c1.609-4.666-4.99-35.347-5.64-39.857" transform="translate(-438.758 -226.676)" fill="#f8d8c5"/>
        <path id="패스_56679" data-name="패스 56679" d="M727.976,211.34a2.805,2.805,0,1,1-2.805-2.805,2.806,2.806,0,0,1,2.805,2.805" transform="translate(-457.592 -132.099)" fill="#efc1a6"/>
        <path id="패스_56680" data-name="패스 56680" d="M462.692,184.238a2.891,2.891,0,1,1-2.892-2.892,2.892,2.892,0,0,1,2.892,2.892" transform="translate(-289.435 -114.876)" fill="#efc1a6"/>
        <path id="패스_56681" data-name="패스 56681" d="M656.792,277.465c-4.2,7.068-5.455,14.864-6.419,23.092-.629,5.37-1.259,10.783-.84,16.18a2.209,2.209,0,0,0,.372,1.263,2.167,2.167,0,0,0,.779.521,49.612,49.612,0,0,0,10.559,4.053,16.439,16.439,0,0,0,11.014-1.038" transform="translate(-411.37 -175.764)" fill="#729ff2"/>
        <path id="패스_56682" data-name="패스 56682" d="M524.87,348.332a1.545,1.545,0,0,0-.018.707,1.166,1.166,0,0,0,.609.667,2.76,2.76,0,0,0,2.733-.3,8.138,8.138,0,0,0,1.959-2.1l3.183-4.338a3.875,3.875,0,0,0,1.874,3.349,8.779,8.779,0,0,0,3.81,1.18,25.037,25.037,0,0,0,3.074.181,2.012,2.012,0,0,0,1.028-.194,1.98,1.98,0,0,0,.643-.753,17.917,17.917,0,0,0,2.319-7.038,2.957,2.957,0,0,0-.146-1.6c-1.631-3.4-9.285-3.936-12.2-2.208a19.217,19.217,0,0,0-8.867,12.443" transform="translate(-332.453 -212.167)" fill="#f8d8c5"/>
        <path id="패스_56683" data-name="패스 56683" d="M66.932,132.728c-2.97,0-8.93,2.4-11.42,4.016A187,187,0,0,0,33.2,153.752a45.358,45.358,0,0,0-7.793,8.371,2.446,2.446,0,0,0-.574,1.69,2.5,2.5,0,0,0,.659,1.141,62.567,62.567,0,0,0,16.219,13.512,3.773,3.773,0,0,0,2.018.684,3.878,3.878,0,0,0,1.666-.638l6.079-3.491a59.313,59.313,0,0,0,8.112-5.265c1.828-1.492,3.475-3.2,5.363-4.616a22.208,22.208,0,0,1,14.44-4.358" transform="translate(-15.721 -84.078)" fill="#905ed1"/>
        <path id="패스_56684" data-name="패스 56684" d="M289,183.976a80.794,80.794,0,0,0,6.46,8.7,1.407,1.407,0,0,0,.708.534,1.422,1.422,0,0,0,1.083-.405A193.437,193.437,0,0,0,314.1,178a.934.934,0,0,0,.221-1.425c-4.737-8.123-9.475-16.247-14.448-24.227-2.756-4.422-5.77-8.978-10.339-11.481a31.559,31.559,0,0,0-7.18-2.536" transform="translate(-178.858 -87.63)" fill="#905ed1"/>
        <path id="패스_56685" data-name="패스 56685" d="M202.788,186.391c-1.493,0-2.408-2.2-2.8-3.142a57.981,57.981,0,0,1-2.337-7.226,190.461,190.461,0,0,1-4.779-23.815,138.946,138.946,0,0,1-.744-24.173l.366.014a138.621,138.621,0,0,0,.742,24.11,190.05,190.05,0,0,0,4.77,23.769,57.539,57.539,0,0,0,2.322,7.18c.363.872,1.213,2.917,2.461,2.917h0c1.892,0,4.226-3.631,5.222-5.181l.071-.111a40.7,40.7,0,0,0,3.754-7.971,120.8,120.8,0,0,0,5.317-19.945,103.139,103.139,0,0,0,1.554-22.579l.366-.026a103.575,103.575,0,0,1-1.559,22.67,121.191,121.191,0,0,1-5.334,20,41.041,41.041,0,0,1-3.79,8.044l-.071.111c-1.029,1.6-3.439,5.348-5.531,5.349Z" transform="translate(-121.584 -81.105)" fill="#442a66"/>
        <path id="패스_56686" data-name="패스 56686" d="M216.451,301.507H205.258a.447.447,0,0,1-.447-.447v-15.6a.447.447,0,0,1,.447-.447h11.193a.447.447,0,0,1,.447.447v15.6a.447.447,0,0,1-.447.447" transform="translate(-129.74 -180.546)" fill="#fff"/>
        <rect id="사각형_113157" data-name="사각형 113157" width="5.685" height="7.123" transform="translate(78.327 107.259)" fill="#905ed1"/>
        <rect id="사각형_113158" data-name="사각형 113158" width="8.493" height="1.301" transform="translate(76.957 117.397)" fill="#905ed1"/>
        <path id="패스_56687" data-name="패스 56687" d="M720.731,307.188a.773.773,0,0,1-.165-.018c-.516-.113-.835-.725-1.184-1.678a139.492,139.492,0,0,1-8.434-54l.366.018a139.112,139.112,0,0,0,8.413,53.857c.257.7.545,1.364.916,1.445.25.054.607-.148,1.057-.6a23.11,23.11,0,0,0,2.538-3.3l.133-.2a37.285,37.285,0,0,0,3.889-7.365,64.225,64.225,0,0,0,2.967-11.361c1.261-6.566,1.788-14.313,2.3-21.8.314-4.616.61-8.976,1.065-13l.364.041c-.454,4.012-.75,8.368-1.064,12.98-.51,7.5-1.038,15.261-2.3,21.849a64.554,64.554,0,0,1-2.986,11.425,37.7,37.7,0,0,1-3.927,7.438l-.133.195a23.4,23.4,0,0,1-2.581,3.356,1.911,1.911,0,0,1-1.23.721" transform="translate(-450.268 -157.849)" fill="#442a66"/>
        <path id="패스_56688" data-name="패스 56688" d="M735.473,420.9H725.206a.608.608,0,0,1-.608-.608v-12.7a.608.608,0,0,1,.608-.608h10.267a.608.608,0,0,1,.608.608v12.7a.608.608,0,0,1-.608.608" transform="translate(-459.007 -257.811)" fill="#fff"/>
        <rect id="사각형_113159" data-name="사각형 113159" width="4.697" height="6.219" transform="translate(268.829 151.357)" fill="#63a5de"/>
        <rect id="사각형_113160" data-name="사각형 113160" width="8.071" height="1.191" transform="translate(267.374 160.12)" fill="#63a5de"/>
        <path id="패스_56689" data-name="패스 56689" d="M452.678,283.355l-.111-.088c-1.156-.911-2.019-3.01-2.711-4.7-.227-.552-.441-1.073-.643-1.5-1.038-2.193-2.015-4.45-2.9-6.709a109.549,109.549,0,0,1-4.3-13.381c-1.371-5.461-2.33-11.091-3.257-16.536a118.75,118.75,0,0,1-1.807-13.927l.366-.018a118.463,118.463,0,0,0,1.8,13.883c.926,5.438,1.884,11.061,3.251,16.509a109.075,109.075,0,0,0,4.281,13.335c.886,2.251,1.86,4.5,2.895,6.686.206.434.422.96.65,1.516.653,1.589,1.459,3.552,2.485,4.453.773-.729,1.233-2.758,1.572-4.256.126-.558.235-1.04.346-1.408.668-2.216,1.3-4.475,1.889-6.715,1.146-4.384,2.146-8.869,2.973-13.332.993-5.361,1.761-10.824,2.282-16.24.056-.583.117-1.186.18-1.807.465-4.629,1.044-10.391.452-14.8l.363-.048c.6,4.449.016,10.235-.45,14.884-.062.62-.123,1.224-.179,1.806-.523,5.425-1.293,10.9-2.288,16.271-.828,4.471-1.83,8.966-2.979,13.358-.586,2.245-1.223,4.509-1.892,6.729-.107.355-.215.831-.34,1.383-.388,1.714-.871,3.847-1.818,4.561Z" transform="translate(-276.792 -142.073)" fill="#442a66"/>
        <path id="패스_56690" data-name="패스 56690" d="M386.437,403.3H312.58l-6.929-37.865a1.768,1.768,0,0,1,1.74-2.087h70.261a1.769,1.769,0,0,1,1.74,1.45Z" transform="translate(-193.6 -230.17)" fill="#e1dede"/>
        <path id="패스_56691" data-name="패스 56691" d="M413.952,419.817a1.966,1.966,0,1,1-1.966-1.966,1.965,1.965,0,0,1,1.966,1.966" transform="translate(-259.734 -264.694)" fill="#fff"/>
        <rect id="사각형_113162" data-name="사각형 113162" width="328" height="2" transform="translate(17.515 172.5)" fill="#2b3544"/>
      </g>
    </g>
  </g>
</svg>
