<svg xmlns="http://www.w3.org/2000/svg" width="184" height="28.825" viewBox="0 0 184 28.825">
  <g id="logo" transform="translate(-212.005 -573.967)">
    <rect id="사각형_113311" data-name="사각형 113311" width="0.886" height="12.653" transform="translate(317.947 590.139)" fill="#444647"/>
    <g id="그룹_190573" data-name="그룹 190573" transform="translate(322.806 573.967)">
      <path id="패스_56722" data-name="패스 56722" d="M500.457,607.939a2.908,2.908,0,0,0-2.286,1.076,2.011,2.011,0,0,0-1.718-1.07c-.061,0-.12-.006-.179-.006a2.938,2.938,0,0,0-2.1.843.98.98,0,0,0-.548-.612,1.378,1.378,0,0,0-.577-.112,3.043,3.043,0,0,0-.514.061l-.094.019a9.234,9.234,0,0,1,.189,1.91v4.49h1.657v-4.577l.066-.06a2.489,2.489,0,0,1,.946-.538,1.513,1.513,0,0,1,.388-.053,1.1,1.1,0,0,1,.666.2,1.077,1.077,0,0,1,.387.605,1.911,1.911,0,0,1,.063.5v3.922h1.665v-4.577a2.463,2.463,0,0,1,.986-.593,1.58,1.58,0,0,1,.413-.058,1.086,1.086,0,0,1,.649.188,1.051,1.051,0,0,1,.386.577,1.918,1.918,0,0,1,.072.541v3.922h1.673v-4.179a2.688,2.688,0,0,0-.461-1.6,2.015,2.015,0,0,0-1.572-.816C500.563,607.94,500.51,607.939,500.457,607.939Z" transform="translate(-429.452 -587.008)" fill="#e45b00" fill-rule="evenodd"/>
      <path id="패스_56723" data-name="패스 56723" d="M473.856,613.35a1.908,1.908,0,0,1-1.236-.439,1.877,1.877,0,0,1-.65-1.129,2.4,2.4,0,0,1-.046-.467,2.05,2.05,0,0,1,.651-1.568,1.91,1.91,0,0,1,1.281-.482,2.666,2.666,0,0,1,.711.1,1.873,1.873,0,0,0,.41.065H475a.765.765,0,0,0,.413-.1.881.881,0,0,0,.273-.281,1.859,1.859,0,0,0,.1-.173l.169-.323a4.338,4.338,0,0,0-2.349-.616,3.289,3.289,0,0,0-2.42.942,3.434,3.434,0,0,0-.921,2.438,3.193,3.193,0,0,0,3.341,3.366,4.244,4.244,0,0,0,2.332-.637l.042-.029-.575-1.125A2.912,2.912,0,0,1,473.856,613.35Z" transform="translate(-421.038 -587.006)" fill="#e45b00" fill-rule="evenodd"/>
      <path id="패스_56724" data-name="패스 56724" d="M444.956,607.939a2.829,2.829,0,0,0-2.659,1.868,4.072,4.072,0,0,0-.272,1.511,3.67,3.67,0,0,0,.582,2.112,2.924,2.924,0,0,0,2.1,1.217,4.377,4.377,0,0,0,.563.036,3.984,3.984,0,0,0,2.4-.7l.042-.031-.192-.31a1.054,1.054,0,0,0-.34-.359.741.741,0,0,0-.4-.105,1.611,1.611,0,0,0-.543.092,2.29,2.29,0,0,1-.594.126c-.074,0-.147.008-.221.007a1.745,1.745,0,0,1-1.091-.338,1.77,1.77,0,0,1-.651-1.3h4.255v-.489a3.707,3.707,0,0,0-.662-2.24,2.778,2.778,0,0,0-2.264-1.1Zm-1.279,2.658h0a1.486,1.486,0,0,1,.626-1.233,1.137,1.137,0,0,1,.628-.19,1.207,1.207,0,0,1,1.1.686,1.688,1.688,0,0,1,.181.737Z" transform="translate(-410.329 -587.008)" fill="#e45b00" fill-rule="evenodd"/>
      <path id="패스_56725" data-name="패스 56725" d="M455.109,610.712v-6.723a1.336,1.336,0,0,0-.519-1.1,1.311,1.311,0,0,0-.786-.243h-.354v8.73a1.349,1.349,0,0,0,.244.821,1.189,1.189,0,0,0,.741.444,1.973,1.973,0,0,0,.39.038,1.529,1.529,0,0,0,.8-.195,1.218,1.218,0,0,0,.535-.747,2.023,2.023,0,0,0,.068-.531.782.782,0,0,1-.1.04,1.317,1.317,0,0,1-.407.075.683.683,0,0,1-.374-.1.518.518,0,0,1-.222-.346A.817.817,0,0,1,455.109,610.712Z" transform="translate(-414.662 -584.999)" fill="#e45b00" fill-rule="evenodd"/>
      <path id="패스_56726" data-name="패스 56726" d="M436.488,611.386v-3.2h1.387l.484-1.238h-1.87v-1.932h-.155a1.623,1.623,0,0,0-.772.166,1.22,1.22,0,0,0-.547.628,2.816,2.816,0,0,0-.184,1.075v.063H433.6v1.237h1.226v3.767a1.822,1.822,0,0,0,.255.992,1.371,1.371,0,0,0,1,.608,1.869,1.869,0,0,0,.288.021,2.19,2.19,0,0,0,.86-.15,1.237,1.237,0,0,0,.717-.811,2.293,2.293,0,0,0,.094-.692,1.768,1.768,0,0,1-.661.252,1.019,1.019,0,0,1-.138.009.866.866,0,0,1-.421-.095.607.607,0,0,1-.287-.368A1.15,1.15,0,0,1,436.488,611.386Z" transform="translate(-407.135 -585.9)" fill="#e45b00" fill-rule="evenodd"/>
      <path id="패스_56727" data-name="패스 56727" d="M461.727,607.939a2.828,2.828,0,0,0-2.659,1.868,4.059,4.059,0,0,0-.271,1.511,3.66,3.66,0,0,0,.582,2.112,2.922,2.922,0,0,0,2.1,1.217,4.38,4.38,0,0,0,.564.036,3.987,3.987,0,0,0,2.4-.7l.043-.031-.192-.31a1.054,1.054,0,0,0-.34-.359.743.743,0,0,0-.4-.105,1.61,1.61,0,0,0-.542.092,2.3,2.3,0,0,1-.595.126c-.073,0-.147.008-.221.007a1.744,1.744,0,0,1-1.091-.338,1.77,1.77,0,0,1-.651-1.3h4.255v-.489a3.7,3.7,0,0,0-.661-2.24,2.779,2.779,0,0,0-2.264-1.1Zm-1.281,2.658h0a1.487,1.487,0,0,1,.627-1.233,1.132,1.132,0,0,1,.628-.19,1.205,1.205,0,0,1,1.1.686,1.671,1.671,0,0,1,.181.737Z" transform="translate(-416.69 -587.008)" fill="#e45b00" fill-rule="evenodd"/>
      <path id="패스_56728" data-name="패스 56728" d="M483.6,614.682a4.383,4.383,0,0,0,.495-.028,2.959,2.959,0,0,0,2.032-1.048,3.587,3.587,0,0,0,.729-2.295,4.613,4.613,0,0,0-.061-.757,3.057,3.057,0,0,0-1.124-1.988,3.349,3.349,0,0,0-2.071-.632,4.21,4.21,0,0,0-.531.032,2.947,2.947,0,0,0-2.082,1.155,3.651,3.651,0,0,0-.64,2.189,4.688,4.688,0,0,0,.043.647,3.109,3.109,0,0,0,1.071,2.035,3.309,3.309,0,0,0,2.138.688Zm0-1.266h0a1.617,1.617,0,0,1-.323-.032,1.44,1.44,0,0,1-.984-.759,2.746,2.746,0,0,1-.294-1.314v-.038a2.684,2.684,0,0,1,.317-1.322,1.428,1.428,0,0,1,1.284-.75,1.7,1.7,0,0,1,.268.021,1.433,1.433,0,0,1,1.042.765,2.778,2.778,0,0,1,.294,1.325v.037a2.684,2.684,0,0,1-.312,1.315A1.429,1.429,0,0,1,483.6,613.416Z" transform="translate(-424.864 -587.006)" fill="#e45b00" fill-rule="evenodd"/>
      <path id="패스_56729" data-name="패스 56729" d="M396.263,604.032a9.51,9.51,0,0,1-1.12-.573,1.92,1.92,0,0,1-.5-.433.951.951,0,0,1-.2-.592.882.882,0,0,1,.486-.806,1.779,1.779,0,0,1,.8-.193l.11,0a4.879,4.879,0,0,1,.906.091,2.71,2.71,0,0,0,.443.048,1.4,1.4,0,0,0,.863-.261,1.756,1.756,0,0,0,.514-.652,3.62,3.62,0,0,0,.191-.47l.125-.37a8.5,8.5,0,0,0-3.17-.626,4.593,4.593,0,0,0-2.85.868,3.353,3.353,0,0,0-1.332,2.677,3.043,3.043,0,0,0,.737,2.091,5.5,5.5,0,0,0,1.6,1.185l.586.295q.676.307,1.323.672a2.4,2.4,0,0,1,.573.458.956.956,0,0,1,.251.637.93.93,0,0,1-.394.763,1.874,1.874,0,0,1-.821.325,3.179,3.179,0,0,1-.542.045,5.226,5.226,0,0,1-2.379-.667c-.122-.066-.24-.135-.357-.208l-1.132,2.1a7.878,7.878,0,0,0,4.056,1.03,5.1,5.1,0,0,0,3.2-1.007,3.344,3.344,0,0,0,1.287-2.68,3.17,3.17,0,0,0-1.273-2.61,9.107,9.107,0,0,0-1.8-1.05Z" transform="translate(-390.963 -583.69)" fill="#ca001f" fill-rule="evenodd"/>
      <path id="패스_56730" data-name="패스 56730" d="M412.46,605.221l4.636-5.633h-3.3l-3.7,4.861h-.055v-4.861h-2.723l0,11.932h.161a2.96,2.96,0,0,0,1.608-.428,2.074,2.074,0,0,0,.9-1.37,3.35,3.35,0,0,0,.068-.69v-2.739h.055l3.767,5.078h3.465Z" transform="translate(-397.166 -583.841)" fill="#ca001f" fill-rule="evenodd"/>
      <path id="패스_56731" data-name="패스 56731" d="M421.607,579a3.213,3.213,0,0,0-2,1.307,2.262,2.262,0,0,0-.371,1.259,3.114,3.114,0,0,0,.293,1.248l.532,1.179a4.273,4.273,0,0,1,.324,1.611,3.2,3.2,0,0,1-1.575,2.793c.364-.032.73-.048,1.095-.049a9.323,9.323,0,0,1,1.376.083l4.3-5.229A17.815,17.815,0,0,0,421.607,579Z" transform="translate(-401.523 -575.876)" fill="#ca001f" fill-rule="evenodd"/>
      <path id="패스_56732" data-name="패스 56732" d="M427.954,595.687a3.522,3.522,0,0,0,.459-1.244,14.728,14.728,0,0,0,.2-2.277,4.288,4.288,0,0,1,.155-1.1,1.479,1.479,0,0,1,.5-.762,1.768,1.768,0,0,1,.81-.321,3.523,3.523,0,0,1,.554-.042l1.016.043.375,0a10.124,10.124,0,0,0,5.148-1.424,17.966,17.966,0,0,0-8.859-2.8l-2.293,6.354a6.973,6.973,0,0,1,.772,1.119A12.274,12.274,0,0,1,427.954,595.687Z" transform="translate(-404.259 -578.507)" fill="#ca001f" fill-rule="evenodd"/>
      <path id="패스_56733" data-name="패스 56733" d="M413.47,586.927c.037,0,.075,0,.112-.005a5.038,5.038,0,0,0,2.251-.829,2.836,2.836,0,0,0,1.292-2.417,3.652,3.652,0,0,0-.255-1.29q-.253-.612-.537-1.209a3.925,3.925,0,0,1-.379-1.6,2.755,2.755,0,0,1,.35-1.385,3.477,3.477,0,0,1,2.027-1.539,18.391,18.391,0,0,0-3.018-1.7,13.186,13.186,0,0,0-2.905-.955,1.86,1.86,0,0,0-.309-.034.316.316,0,0,0-.259.122.367.367,0,0,0-.066.223c0,.017,0,.034,0,.05l.076.7,1.263,11.471a.753.753,0,0,0,.047.188.322.322,0,0,0,.119.151A.338.338,0,0,0,413.47,586.927Z" transform="translate(-398.856 -573.967)" fill="#e45b00" fill-rule="evenodd"/>
      <path id="패스_56734" data-name="패스 56734" d="M429.533,598.323a2.107,2.107,0,0,0,.128.284l.007.011a.341.341,0,0,0,.127.132.289.289,0,0,0,.137.034.56.56,0,0,0,.188-.042c.02-.007.038-.015.057-.024l10.559-4.864.657-.311.034-.019a.359.359,0,0,0,.163-.173.267.267,0,0,0,.022-.11.334.334,0,0,0-.052-.174,2.154,2.154,0,0,0-.2-.251,13.371,13.371,0,0,0-2.292-1.932,12,12,0,0,1-3.921,1.469,10.53,10.53,0,0,1-1.711.145c-.346,0-.69-.017-1.035-.039l-.219,0a2.613,2.613,0,0,0-.833.115,1.075,1.075,0,0,0-.693.667,2.67,2.67,0,0,0-.15.812l0,.1-.024.82a8.163,8.163,0,0,1-.342,2.235A3.452,3.452,0,0,1,429.533,598.323Z" transform="translate(-405.591 -580.465)" fill="#e45b00" fill-rule="evenodd"/>
    </g>
    <g id="그룹_190574" data-name="그룹 190574" transform="translate(212.005 589.208)">
      <path id="패스_56735" data-name="패스 56735" d="M248.589,604.736h.841c1.072,0,1.536-.107,1.876-.412a1.682,1.682,0,0,0,.484-1.249,1.449,1.449,0,0,0-.9-1.518,4.464,4.464,0,0,0-1.411-.18h-.9v3.359Zm0,4.985c0,1.844-2.447,2.072-2.447,2.072V599.375h4.63a3.441,3.441,0,0,1,3.643,3.647,3.2,3.2,0,0,1-2.77,3.43,2.32,2.32,0,0,1,.519.519c.714.893,2.983,4.823,2.983,4.823H252.2c-.484-.819-.678-1.16-1.164-2.036-1.231-2.232-1.606-2.841-2.053-3.037a1.1,1.1,0,0,0-.394-.107Z" transform="translate(-224.952 -599.001)" fill="#ca001f" fill-rule="evenodd"/>
      <path id="패스_56736" data-name="패스 56736" d="M263.112,600.6l1.669,5.248c.16.556.374,1.251.572,2.163a23.705,23.705,0,0,1,.713-2.484l2.106-6.148H270.8l-4.322,12.508H264.21l-4.217-12.508S262.725,599.375,263.112,600.6Z" transform="translate(-230.205 -599.001)" fill="#ca001f" fill-rule="evenodd"/>
      <rect id="사각형_113312" data-name="사각형 113312" width="2.61" height="12.418" transform="translate(41.988 0.373)" fill="#ca001f"/>
      <path id="패스_56737" data-name="패스 56737" d="M293.609,601a2.882,2.882,0,0,0-.649-.069A2.566,2.566,0,0,0,290.854,602a5.7,5.7,0,0,0-.7,3.2,6.9,6.9,0,0,0,.519,3.323,2.577,2.577,0,0,0,2.391,1.394,3.217,3.217,0,0,0,2.129-.8l1.142,1.573a5.676,5.676,0,0,1-7.5-.554,6.485,6.485,0,0,1-1.5-4.449,7.936,7.936,0,0,1,.842-3.859,5.332,5.332,0,0,1,4.751-2.877,5.07,5.07,0,0,1,3.143.983C295.565,601.424,293.609,601,293.609,601Z" transform="translate(-240.574 -598.838)" fill="#ca001f" fill-rule="evenodd"/>
      <path id="패스_56738" data-name="패스 56738" d="M218.6,601.131a4.333,4.333,0,0,0-1.515-.268c-1.019,0-1.734.587-1.734,1.428,0,.646.34.965,1.376,1.252l1.5.412c2.038.553,3.145,1.857,3.145,3.7,0,2.518-2.036,4.179-5.128,4.179a8.876,8.876,0,0,1-4.235-1.126l.93-1.948a7.033,7.033,0,0,0,3.412,1c1.43,0,2.182-.587,2.182-1.7,0-.805-.521-1.3-1.628-1.609l-1.378-.374a3.749,3.749,0,0,1-2.446-1.572,3.584,3.584,0,0,1-.52-1.893c0-2.27,1.822-3.842,4.453-3.842a7.277,7.277,0,0,1,4.144,1.251C219.972,601.809,218.6,601.131,218.6,601.131Z" transform="translate(-212.005 -598.773)" fill="#ca001f" fill-rule="evenodd"/>
      <path id="패스_56739" data-name="패스 56739" d="M236.365,601.438H233.22v2.877h3.558v2.037h-3.521v3.323h4.7v2.144h-7.235V599.4H237.8S237.93,601.438,236.365,601.438Z" transform="translate(-219.103 -599.011)" fill="#ca001f" fill-rule="evenodd"/>
      <path id="패스_56740" data-name="패스 56740" d="M310.222,601.438h-3.143v2.877h3.556v2.037h-3.521v3.323h4.7v2.144h-7.238V599.4h7.075S311.786,601.438,310.222,601.438Z" transform="translate(-247.115 -599.011)" fill="#ca001f" fill-rule="evenodd"/>
      <path id="패스_56741" data-name="패스 56741" d="M333.647,606.752s-.411-1.3-.682-2.5c-.122-.573-.5-2.2-.5-2.2s-.356,1.465-.59,2.4c-.23.891-.393,1.48-.658,2.3Zm-6.521,5.02,4.073-12.454h2.7l3.912,12.454H335.13l-.875-2.946H330.61l-.353,1.187S330.045,611.772,327.126,611.772Z" transform="translate(-255.667 -598.98)" fill="#ca001f" fill-rule="evenodd"/>
      <path id="패스_56742" data-name="패스 56742" d="M352.195,601a2.887,2.887,0,0,0-.649-.069A2.568,2.568,0,0,0,349.44,602a5.684,5.684,0,0,0-.7,3.2,6.912,6.912,0,0,0,.519,3.323,2.579,2.579,0,0,0,2.394,1.394,3.211,3.211,0,0,0,2.127-.8l1.144,1.573a5.678,5.678,0,0,1-7.5-.554,6.485,6.485,0,0,1-1.5-4.449,7.944,7.944,0,0,1,.839-3.859,5.333,5.333,0,0,1,4.754-2.877,5.07,5.07,0,0,1,3.142.983C354.152,601.424,352.195,601,352.195,601Z" transform="translate(-262.794 -598.838)" fill="#ca001f" fill-rule="evenodd"/>
      <path id="패스_56743" data-name="패스 56743" d="M368.807,601.438h-3.144v2.877h3.556v2.037H365.7v3.323h4.7v2.144h-7.237V599.4h7.076S370.371,601.438,368.807,601.438Z" transform="translate(-269.334 -599.011)" fill="#ca001f" fill-rule="evenodd"/>
    </g>
  </g>
</svg>
