<?xml version="1.0" encoding="utf-8"?>
<!-- Generator: Adobe Illustrator 23.0.0, SVG Export Plug-In . SVG Version: 6.00 Build 0)  -->
<svg version="1.1" id="레이어_1" xmlns="http://www.w3.org/2000/svg" xmlns:xlink="http://www.w3.org/1999/xlink" x="0px"
	 y="0px" viewBox="0 0 160 89" style="enable-background:new 0 0 160 89;" xml:space="preserve">
<style type="text/css">
	.st0{enable-background:new    ;}
	.st1{fill:#FFFFFF;}
</style>
<g class="st0">
	<path class="st1" d="M10,36.3c-2.6,0-4.6-0.8-6.2-2.4c-1.6-1.6-2.4-3.8-2.4-6.4V27c0-1.8,0.3-3.4,1-4.8c0.7-1.4,1.7-2.5,2.9-3.3
		c1.3-0.8,2.6-1.2,4.2-1.2c2.4,0,4.3,0.8,5.7,2.3c1.3,1.6,2,3.8,2,6.6v1.6H5.4c0.1,1.5,0.6,2.7,1.5,3.5c0.9,0.9,2,1.3,3.3,1.3
		c1.8,0,3.4-0.7,4.5-2.2l2.2,2.1c-0.7,1.1-1.7,1.9-2.9,2.5C12.8,36,11.5,36.3,10,36.3z M9.5,20.9c-1.1,0-2,0.4-2.7,1.2
		S5.7,24,5.5,25.3h7.7V25c-0.1-1.4-0.4-2.4-1.1-3.1C11.5,21.3,10.6,20.9,9.5,20.9z"/>
	<path class="st1" d="M27.1,27.4h-8.7v-3.3h8.7V27.4z"/>
	<path class="st1" d="M49,36h-4.2V25.3H34V36h-4.2V11.8H34v10.1h10.8V11.8H49V36z"/>
	<path class="st1" d="M61.8,26.7h-4.7V36H53V11.8h8.5c2.8,0,4.9,0.6,6.5,1.9c1.5,1.3,2.3,3.1,2.3,5.4c0,1.6-0.4,3-1.2,4.1
		c-0.8,1.1-1.9,1.9-3.3,2.5l5.4,10.1V36h-4.5L61.8,26.7z M57.2,23.3h4.3c1.4,0,2.5-0.4,3.3-1.1c0.8-0.7,1.2-1.7,1.2-2.9
		c0-1.3-0.4-2.3-1.1-3c-0.7-0.7-1.8-1.1-3.3-1.1h-4.4V23.3z"/>
</g>
<g class="st0">
	<path class="st1" d="M13,58c0,4.8,2.5,10.3,7.6,12.7l-2.5,3.5c-3.5-1.6-5.9-4.7-7.3-8.4c-1.4,4.1-3.9,7.5-7.5,9.2l-2.5-3.6
		c5.1-2.4,7.7-8.3,7.7-13.4v-1.7H2v-3.7h17.2v3.7H13V58z M30.5,65.3H26v15.7h-4.5V49.6H26v11.9h4.6V65.3z"/>
	<path class="st1" d="M48.5,52.8c0,9.6-3.2,17.4-14.3,22.8l-2.3-3.5c8-3.8,11.5-8.7,12.1-15.7H33.5v-3.6H48.5z M57.8,49.6v31.3h-4.5
		V49.6H57.8z"/>
	<path class="st1" d="M85.6,67.7c-3.5-1.2-5.8-3.5-7.2-6.4c-1.4,3.2-3.9,5.7-7.5,7l-2.3-3.6c5.2-1.8,7.4-6.2,7.4-10.3v-3h4.6v3
		c0,4.1,2.2,8.2,7.3,9.8L85.6,67.7z M95.5,76.8v3.6H73.8V70.3h4.5v6.5H95.5z M94.7,72.5h-4.5V49.6h4.5V72.5z"/>
	<path class="st1" d="M127.3,73.5v3.6H99v-3.6h10V62.8h4.5v10.8H127.3z M118.8,69.8c1.2-5.9,1.3-10.3,1.3-13.9h-18.3v-3.6h22.7v3
		c0,3.9,0,8.3-1.3,15L118.8,69.8z"/>
	<path class="st1" d="M141,56.5c0,5.9,2.3,11.7,7.4,14l-2.7,3.6c-3.4-1.7-5.7-4.7-7-8.5c-1.4,4-3.7,7.3-7.2,9l-2.8-3.6
		c5.3-2.4,7.7-8.5,7.7-14.5V52h4.5V56.5z M155.5,49.6V81H151V63h-6v-3.6h6v-9.8H155.5z"/>
</g>
</svg>
