<svg width="15" height="8" viewBox="0 0 15 8" fill="none" xmlns="http://www.w3.org/2000/svg">
<path d="M9.53674e-07 0.99984C4.57764e-05 0.802079 0.0629635 0.608771 0.1808 0.444352C0.298636 0.279934 0.4661 0.151787 0.662022 0.0761132C0.857944 0.000439146 1.07353 -0.0193652 1.28152 0.0192044C1.4895 0.0577741 1.68056 0.152987 1.83054 0.292803L7.50659 5.58609L13.1826 0.292803C13.3849 0.110636 13.6558 0.00983591 13.9369 0.0121145C14.2181 0.014393 14.4871 0.119566 14.6859 0.304984C14.8847 0.490402 14.9975 0.741229 15 1.00344C15.0024 1.26565 14.8943 1.51827 14.699 1.70688L8.26476 7.7072C8.06366 7.89468 7.79094 8 7.50659 8C7.22224 8 6.94952 7.89468 6.74842 7.7072L0.314204 1.70688C0.113082 1.51938 6.10352e-05 1.26505 9.53674e-07 0.99984Z" fill="#AAAAAA"/>
</svg>
